<svg xmlns="http://www.w3.org/2000/svg" xmlns:xlink="http://www.w3.org/1999/xlink" viewBox="0 0 100 100"><defs><symbol id="toy_6" data-name="toy_6" viewBox="0 0 100 100"><path fill="none" d="M0 0h100v100H0z"/><circle cx="49.9" cy="58.8" r="36.4" fill="#62c3f4"/><path fill="#29a3d3" d="M50.3 22.4a29.5 29.5 0 0 1-35.9 44.5 36.4 36.4 0 1 0 36-44.5Z"/><path fill="#1489ad" d="M60.2 23.9A36.4 36.4 0 0 1 22.8 83a36.4 36.4 0 1 0 37.4-59.1Z"/><path d="M47.1 28.5c-.8 1-1.9 1.6-2.8 2.5l.3-1c.2-.4.2-.4.8-.7 1-.8 1-.8 2.2-3-.4.3-.7.6-1.5 1-3.1 2-3.1 2-11.3 6.2a7.2 7.2 0 0 1-2 .8c-2 .5-2.7 1-4.4 2.9-1 1.1-1.6 2.5-2.7 3.5a21.5 21.5 0 0 1-3.2 1.9l2.4-2.8a3.7 3.7 0 0 0 1.8-1.6A22 22 0 0 1 29 35c1-.9 2.4-1.3 3.5-2.1 1.8-1.3 3.2-3 5.1-4.1a25.5 25.5 0 0 1 3.1-1.7l9.1-3.4a20 20 0 0 0-1.7 1.3h.5L47 28.5M71.2 41.9c-3.4-5.8-4.6-6.1-6.7-6.8a8.5 8.5 0 0 1-1.4-.5l-.3-.2c-1.3-.7-2.5-1.6-3.8-2.4-1.1-.6-2.4-.9-3.5-1.6a26.7 26.7 0 0 1-4.5-3.9v1.6c.9 1.3 1 1.4 1.6 1.6l.1 1.5-.7-1c-1.4-1.3-1.4-1.3-1.6-5l.5.1a6.1 6.1 0 0 0-1-1.4 37.3 37.3 0 0 0 3.3 2c2.5 1.2 5.2 1.8 7.4 3.6 1.6 1.3 2.9 3 4.5 4.4 1 .9 2.4 1.3 3.4 2.3l.2.3c1 1.2 1.5 2.8 2.7 4a25.2 25.2 0 0 1 3.2 3.5 18.6 18.6 0 0 1-3.4-2M32.3 84.7C31 86 31 86 31 86.8l-1-.9a3.5 3.5 0 0 1-.4-.5l.5-.2.7-1.3-1.8-2.6c-1.6 1.4-1.6 1.4-1.7 2-.5 1.9-.5 2-1.2 2.4 0 .2 0 .6 1.3 1.7l-.7-.6a37.6 37.6 0 0 1-4.3-4.2l-1.6-1.9a23 23 0 0 1-1.2-1.9l.1-.2c2.1 0 1.6-8.8 0-10.5a5 5 0 0 1-1.2-2.2l1.4.5h.4c0-.2 0-.2-.4-.6-2.2-2.3-2.2-3.8-2.1-6.4a4.3 4.3 0 0 1 1.5-2.8c-.2 1-1 1.5-1 2.4a16.8 16.8 0 0 0 .2 3.8 12.3 12.3 0 0 0 .7-3.5 7.2 7.2 0 0 1-.2 4.4 6.4 6.4 0 0 0 1.1 1.2c.4-1.3 0-2.7.7-3.9h.1c0 4.5 0 4.5.2 5.3.2 0 3.6-.2 4 .1a4.7 4.7 0 0 1 0 2c-.2.6-.9.5-1.3.9s-.1 1 0 1.5a27 27 0 0 1 2.2 7.8c1 .4 2.2-.4 3.1.5 0 0 3 4.6 3.2 5.6M74.2 85.8a37.6 37.6 0 0 1-5 3.8H69c1.5-1 1.6-1.4 1.6-1.6-.5-.4-.5-.4-1-2.5A7.2 7.2 0 0 0 68 84l-2 2.3c.7 1.1.7 1.1 1.3 1.2-.1.3-.1.3-1.5 1.4v-.7a15.7 15.7 0 0 0-1.2-1.2 2.2 2.2 0 0 1 0-.2c2.3-5 3.6-5 5-5.1s1.3-.1 1.5-.4a6.6 6.6 0 0 0 .2-1.1 21.5 21.5 0 0 1 2.3-6c.5-.9.6-1.4-.4-1.7-1.5-.5-.6-2.5-.6-2.5a27.4 27.4 0 0 1 4.2 0 9.4 9.4 0 0 0 .6-4.5v-.7c.9 1.2.3 2.5.5 3.7h.1a5.8 5.8 0 0 0 1.2-1l-.4-1.2.4-3.3c.3 1.2 0 2.5.5 3.6 1.1-3 .5-4.4.1-5.2s-.3-.8-.3-1c1.4 1.1 1.3 2.7 1.2 4.2-.2 1.9-.2 1.9-3.2 5.5.6 0 .6 0 2-.6a4.8 4.8 0 0 1-1.3 2.1c-.9.6-1.3 2-1.6 4-.8 4 0 6 .7 6l.1.3a13 13 0 0 1-2.4 3l-1 .9M60.3 80.7c.5-5.3-.2-6-.6-6.5-1.5-1.5-3.8-1.5-5.4-2.8-1.3-1-2.3-2.6-3.8-3.6a21.8 21.8 0 0 0-2.3-1.2c-2.4-1.2-2.4-1.2-11-10.2-.5.8-1.2 2-1.6 3 1.7 2.6 1.7 2.6 3 3.3.1.4.1.4-.7 2.3l-1-1.8C34 60.2 34 60 34 59.6c0-.6 1.7-6.5 2.6-6.6 1.3-.1 2.3.7 3.4.8l.2-.2c.4-1.3 0-2.7.3-4 .5-1.7 1.7-3 2-4.8 0-.3-.2-.7-.7-1-1.4-1-.2-2.6 0-2.6 1.2.3 2.3 1.2 3.7 1.2l.9-4.3c1 1 0 2.2.2 3.3.2 0 .5.1 1.5-.4l-.4-1.2a24 24 0 0 1 .6-2.4c.4 1-.1 2 .4 2.9a9.3 9.3 0 0 0 .9-2.7c0-.8-.7-1.4-.7-2.2a3.9 3.9 0 0 1 1 3.6c-.3 1.7-.3 1.7-3.6 3.7.4.3.4.3 2.5.3-.5 1.5-2.4 1.6-2.8 3.2a9.6 9.6 0 0 0 .7 5.5 10.6 10.6 0 0 0 1 2 12.9 12.9 0 0 0 7 4.7c6 2.1 5.5 8 5 10.4s1.5 5.3 3 5.8c.3 1.5-.6 2.8-.8 4.2a1 1 0 0 0 .4 1c.3.2.6.4 1 3l-3-2M53.6 94.8a15 15 0 0 1-2 .3h-.3a2 2 0 0 1 .5 0 11.9 11.9 0 0 0 1.3-.3 2 2 0 0 0 .1-.6c-3 1-3.5 1-4 1H48l-1.7-.2-1.4-.2a4.5 4.5 0 0 1-.7-.2v-.1c2-.4 2.8-.5 3.7-1.6.7-.9.8-2.6 0-3s-1.7-.4-2.2-1.3h2.7c-1.2-.7-2.6-1-3.7-1.8a5.4 5.4 0 0 1-.8-2c-.2-1.2 1.4-2.3 1.5-2.3-.1.8-1 1-1 2a8 8 0 0 0 1.2 2.2c1-.5 0-1.7.6-2.4l.8 2.1-.6.8a8.8 8.8 0 0 0 1.6.5c.2-.1.2-.2.4-1.5 0-.8 0-1 .4-1v.3a3.5 3.5 0 0 0 .5 2.8h.4c.6-.1 1.2 0 1.7-.2l2.3-.5h.3a3.7 3.7 0 0 1 0 .9 1.5 1.5 0 0 1-.2.1c-.3 1-2.2.4-2 1.5.2.6.7 1 .7 1.5a3 3 0 0 1-.6 2 19.3 19.3 0 0 1 2.5-.1c.2.5-.2 1.2-.9 1.4M15.7 54a19.6 19.6 0 0 0-1.7 3v-1.6a4.8 4.8 0 0 1 .2-.9l.2-.1c.8-1.3.8-1.3 1.7-5.2a7.2 7.2 0 0 0-2.4 4.7l.3-1.3a34.1 34.1 0 0 1 1.5-5.8l1.3-3.5a60.3 60.3 0 0 1 6.2-8.9l-.2.5c.2 0 .2 0 .4-.4a17.6 17.6 0 0 1 4.2-4.1 11.7 11.7 0 0 1 2.4-1.4c-3.1 2-3.1 2-4.7 3.4l2.6-2-3.2 2.6a7.4 7.4 0 0 0-.5.7c1-.6 1.7-1.5 2.7-2.2-1 1.3-2.5 2.1-3.6 3.4.2 0 .2 0 .3.3a3.3 3.3 0 0 1 .7 0 5.6 5.6 0 0 1-2 1.9c-.6.2-.8.2-3.5 5-2.2 3.9-2.2 3.9-1.5 4.2 1 .5-1.4 7.5-1.4 7.6M85.7 52.7a36.3 36.3 0 0 1 .5 6.1v2.3a5 5 0 0 0-.3-2.6s-4-5-5.8-6.4l.1 3.4c1.6 1.9 1.6 1.9 2.1 2 .2.3.2.3 0 2.5l-.6-1.4-2.3-2.3-1-6.3c0-1.1 1.5-.7 2-1.3-1.3-2.7-2.4-5.5-3.8-8.2a1.8 1.8 0 0 0-1-1 3.8 3.8 0 0 1-2.3-2c.1 0 .3-.2 2.1-.3 0-.5-1-1.4-3.2-3.6.2 0 .2 0 2.8 2.5l.1-.1c0-.6 0-.6-1.2-1.5-.8-.8-.9-1-2.1-2 1 .5 1.8 1.5 2.8 2.1-1.3-1.6-3.2-2.4-4.7-3.8a11.5 11.5 0 0 1 3.7 2.4 6.7 6.7 0 0 1 2.2 3.6c.1.4.1.5.4.5l.4-.6c.7 1 .8 2 1.4 3l2.7 4c1.3 1.9 2.8 3.2 4 5a1.6 1.6 0 0 1 .2.4l.8 3.6" class="cls-5"/><path d="M50.3 6.1a6 6 0 0 0-6 6v3.2h2.3v-3.2a3.6 3.6 0 0 1 7.3 0v3.2h2.4v-3.2a6 6 0 0 0-6-6Z" class="cls-6"/><path fill="#353232" d="M44.2 14.3h11.4a6 6 0 0 1 6 6v3.8H38.2v-3.8a6 6 0 0 1 6-6Z"/><path fill="#f4c237" d="M44.2 14.3h11.4a6 6 0 0 1 6 6v3.8H38.2v-3.8a6 6 0 0 1 6-6Z"/><path d="M55.2 24h6.4v-5.8a4 4 0 0 0-3.9-3.9h-3.4a18 18 0 0 1 1 9.8Z" class="cls-6"/></symbol><style>.cls-5{fill:#0c5f72}.cls-6{fill:#f2ab38}</style></defs><g id="Слой_2" data-name="Слой 2"><use xlink:href="#toy_6" id="Слой_15" width="100" height="100" data-name="Слой 15"/></g></svg>