<svg xmlns="http://www.w3.org/2000/svg" xmlns:xlink="http://www.w3.org/1999/xlink" viewBox="0 0 100 100"><defs><symbol id="toy_5" data-name="toy_5" viewBox="0 0 100 100"><path fill="none" d="M0 0h100v100H0z"/><circle cx="49.9" cy="58.3" r="36.4" fill="#7ace38"/><path fill="#64af22" d="M50.3 22a29.5 29.5 0 0 1-35.9 44.4 36.4 36.4 0 1 0 36-44.5Z"/><path fill="#519113" d="M60.2 23.4A36.4 36.4 0 0 1 33.1 84a36.7 36.7 0 0 1-10.3-1.5 36.4 36.4 0 1 0 37.4-59.1Z"/><path d="M78.6 36a35 35 0 0 1 3.2 5l1.2 2.2a26.4 26.4 0 0 1 1.8 5.5 14.2 14.2 0 0 0-3.5-4.1 23 23 0 0 1-.3 8.3 62.1 62.1 0 0 0-6.3-4.8 30.5 30.5 0 0 1-3.9 8.1l-8.2-5.6a73.2 73.2 0 0 1-6.8 7.4c-3.9-3.1-4.9-4-7.8-6.7-2.7 2.3-3.6 3.1-7.9 6.4a54.3 54.3 0 0 1-6-7.5l-7.6 5.4a30.6 30.6 0 0 1-3.2-8.2 50.5 50.5 0 0 0-6 4.4 21.5 21.5 0 0 1 .5-8.3 9.3 9.3 0 0 0-2.7 3.9l.4-1.1a36.4 36.4 0 0 1 5.7-10.4l3.4-3.8a31.4 31.4 0 0 0-4.5 5.5 19 19 0 0 1 4.4-3.2 17.7 17.7 0 0 0-2.5 7c1.9-1.2 2.7-1.7 6.9-4a18 18 0 0 0 1 7.2l7.6-5a30 30 0 0 0 4 6.8 87.5 87.5 0 0 0 7-5.8 61 61 0 0 0 6.5 6 39.7 39.7 0 0 0 5-6.6l7.8 5a18 18 0 0 0 1.7-7l7 4.3a17.4 17.4 0 0 0-1.8-7 29 29 0 0 1 5.1 3.4A26 26 0 0 0 75 32l.8.8 2.8 3.2M85.6 64.8a35 35 0 0 1-1.5 5.9L83 73a5.4 5.4 0 0 0 .5-2.2 34.6 34.6 0 0 1-5.1 7.8 8.2 8.2 0 0 0-2-4 55.3 55.3 0 0 1-7.4 7 56.8 56.8 0 0 0-5.6-4.3c-3 2.3-4 3.2-8.2 6-3.3-2.2-4.3-3-7.5-5.3l-7 5A89.9 89.9 0 0 1 33 77a40.5 40.5 0 0 0-4.7 4.3 53.8 53.8 0 0 1-7-7.3c-1.1 1.8-1.4 2.3-1.4 3.8a30 30 0 0 1-4.5-8l.2.7-1.1-4-.9-5.7a15.7 15.7 0 0 1 .3-2.4 27.4 27.4 0 0 0 2.5 9.1 18 18 0 0 1 3.7-4.6 45 45 0 0 0 5.8 8.5l6.4-5.4a77 77 0 0 0 7.6 7.6l8-6.4c3.4 3 4.4 3.8 8.1 6.7a96.2 96.2 0 0 0 8.3-7.4l7.2 5.5a46.3 46.3 0 0 0 6.3-8.3 24.4 24.4 0 0 1 4.1 5 30.7 30.7 0 0 0 3.3-9 7.6 7.6 0 0 1 .7 4.3l-.2 1" class="cls-5"/><path fill="#ff9797" d="m13.6 55.7-.1.2.1-1v.8"/><path d="m28.5 63.9-2.8 2.4-2.4-3.7 2.7-2.3 2.5 3.6M17.5 60.3l-1.6 2c-.3-1.2-.8-2.7-1-4l1.5-2 1.1 4M60 65.5l-3.4 3.2-3.5-2.9 3.4-3 3.5 2.7M43.3 65.7 40 68.4l-3.2-3.2 3.3-2.7 3.2 3.2M83.8 59.4c-.3 1.1-.8 2.7-1.3 3.8l-1.7-2.1 1.4-3.8 1.6 2M75 63.1l-2.6 3.6-3-2.4c.8-1 2-2.4 2.7-3.5L75 63M86.2 57.6v1.5a15 15 0 0 0-.3-2v-3.8l.2 1.2.2 3.1M15.6 51c-.4.6-1 1.3-1.2 1.9 0-1.1.2-2.6.4-3.8a19.5 19.5 0 0 1 1.1-1.7 44 44 0 0 0-.3 3.6M35.8 58l-3.3 2.4L30 57l3.2-2.4 2.5 3.3M22.9 55.2l-2.6 2.1a67 67 0 0 1-1.3-3.7l2.6-2 1.3 3.6M67 57.5 64.3 61l-3.6-2.6 3-3.2 3.5 2.4M51.1 58.8l-3.4 3-3.2-3.1 3.3-2.9 3.3 3M84.6 50.5v3.7l-1.6-2v-3.5c.6.5 1.2 1.2 1.6 1.8M79 54.5 77.6 58 74.8 56l1.6-3.5 2.6 2" class="cls-7"/><path d="M64.7 25.1c5 3.2-3.3 5.3-4.2 5.5-11.7 2.7-29.4-.2-26.8-4.3a6.4 6.4 0 0 1 2.8-1.9l2.7-1a17.4 17.4 0 0 1 2.3-.5c-3.3 1-4.3 2.4-2.1 3.7 2.8 1.6 9.9 2.3 15.7 1.5s8.2-2.7 5.3-4.3a28.2 28.2 0 0 1 4.3 1.3" class="cls-5"/><path d="M57.1 23.2c2 1.1.3 2.5-3.7 3s-8.7 0-10.7-1c-1.5-.9-.8-1.9 1.5-2.5a19.8 19.8 0 0 1 2.5 0c-2 .7-1 1.3-.8 1.5 2.3 1.3 8.8.7 8.5-.6 0-.2-.4-.4-.5-.5a30.6 30.6 0 0 1 3.2.2M74.2 85.4 71 87.8c-8.4 5.4-34.6 5.3-42.6 0l-1.8-1.4-2.4-2.2a8.3 8.3 0 0 0 1.7 1.2c6.5 3.7 22.4 5.2 35.5 3.4 7-1 11.9-2.6 13.8-4.5l-1.1 1" class="cls-5"/><path d="M63.7 92a27 27 0 0 1-6.5 1.5 49 49 0 0 1-21.4-1.6A33.8 33.8 0 0 1 32 90a52.5 52.5 0 0 0 26.5 2.5 27.5 27.5 0 0 0 9-2.4L63.6 92" class="cls-5"/><path d="M50.6 5.6a6 6 0 0 0-6 6V15H47v-3.3a3.6 3.6 0 0 1 7.3 0V15h2.4v-3.3a6 6 0 0 0-6-6Z" class="cls-8"/><path fill="#353232" d="M44.6 13.9h11.3a6 6 0 0 1 6 6v3.7H38.6V20a6 6 0 0 1 6-6Z"/><path d="M44.6 13.9h11.3a6 6 0 0 1 6 6v3.7H38.6V20a6 6 0 0 1 6-6Z" class="cls-7"/><path d="M55.6 23.6H62v-5.8a3.9 3.9 0 0 0-4-4h-3.4a18 18 0 0 1 1 9.8Z" class="cls-8"/></symbol><style>.cls-5{fill:#b3ea83}.cls-7{fill:#f4c237}.cls-8{fill:#f2ab38}</style></defs><g id="Слой_2" data-name="Слой 2"><use xlink:href="#toy_5" id="Слой_15" width="100" height="100" data-name="Слой 15"/></g></svg>