<svg xmlns="http://www.w3.org/2000/svg" xmlns:xlink="http://www.w3.org/1999/xlink" viewBox="0 0 100 100"><defs><symbol id="toy_2" data-name="toy_2" viewBox="0 0 100 100"><path fill="none" d="M0 0h100v100H0z"/><circle cx="49.6" cy="58.1" r="36.4" fill="#cf3adb" transform="rotate(-23 49.6 58)"/><path fill="#af21bf" d="M50 21.7a29.5 29.5 0 0 1-35.8 44.5A36.4 36.4 0 1 0 50 21.7Z"/><path fill="#8c0e9e" d="M60 23.2a36.4 36.4 0 0 1-27.2 60.6 36.6 36.6 0 0 1-10.3-1.5A36.4 36.4 0 1 0 60 23.2Z"/><path d="M53.1 22.9c1.2.7-.8 1.2-1 1.3-2.7.6-7 0-6.3-1a1.4 1.4 0 0 1 .7-.5 26 26 0 0 1 3.1.5 29.4 29.4 0 0 1 3.5-.3" class="cls-5"/><path d="m74.3 31.4.2.2c3.5 3.3-2 7-13.5 8.5-12.9 1.7-28.4.2-34.7-3.4-3-1.7-3.4-3.6-1.6-5.2l.3-.2c1-1 2.4-2 3.5-3-2.3 1.7-2.2 3.5.7 5.2 5.5 3.1 19.1 4.4 30.4 2.9 10.7-1.4 15.4-5 11-8l3.6 3M85.5 52l.3 2.8c.3 3.8-7.2 7.5-20.3 9.3-18 2.4-39.7.3-48.5-4.7-2.6-1.6-3.8-3.2-3.7-4.7l.4-2.8.4-2c-.4 1.6.7 3.4 3.6 5 8.6 4.9 29.9 7 47.5 4.6C78.5 57.7 86 53.9 85.1 50l.4 2M78.7 79.9c-1.8 2.4-7.5 4.5-16 5.7-14.8 2-32.7.2-40-3.9a7.9 7.9 0 0 1-2.4-2l-1.7-2.6-.8-1.3a7.4 7.4 0 0 0 2.9 2.5c7.8 4.5 27 6.3 43 4.2 9.8-1.3 16-3.8 17.6-6.6a87 87 0 0 1-2.6 4" class="cls-6"/><path d="m54.4 94.1-1.8.3H46l-1.8-.3-2.1-.4-2.6-.6-.6-.2c4.2 1.3 11 1.7 16.8.9a29.5 29.5 0 0 0 3.5-.7 37.7 37.7 0 0 1-5 1M35.4 25.2l-3.2 1.1c1.1-1 7-3.1 8.5-2.9a7.3 7.3 0 0 1-1.3.5l-4 1.3M37.4 28.1c-4 2.6-4.7 2-4.6 1.5.2-1.7 7-4.6 8.2-4.2 0 .4-2.8 2.2-3.7 2.8M46 30c-1.2 2.7-3.7 3.3-4.2 2-.6-2 2.9-5.2 4.3-5.2.9.2.2 2.4-.1 3.1M56.7 29.6c1.3 2 .5 3.3-1 3-2.8-.4-3.9-5-3-5.8a.6.6 0 0 1 .3 0c1 0 2.8 1.5 3.6 2.8M63.5 27.3C66 28.7 66.8 30 66 30c-1.1.3-7.8-4-8-4.6.5-.2 3.1.6 5.3 1.8M62.7 24.3a17.2 17.2 0 0 1 4.4 2.1l-8.5-3a12 12 0 0 1 4 .8M22.1 47.1c-1.4 3-3.6 4-4.3 2.1-.9-2.7 2.3-9 4.7-7.8 1.2 1 .4 4-.4 5.7M41.4 51c-.8 3.9-5 5.4-7.1 2.5s.2-8 4-7.9c2.8.5 3.5 3.5 3 5.5M65.4 50.3a4 4 0 0 1-6.5 4c-3-2.2-2.6-7.9 1.4-8.5 3-.2 4.8 2.5 5 4.5M80.6 45.1c1.2 3 .8 5.8-1 5.2-2.2-.6-5-7.2-3-8.7 1.2-.6 3 1.4 4 3.5M19.5 70.8c.3 2.3-.3 3.5-1.5 2.5-2.3-1.8-4-8.9-2.1-9a1 1 0 0 1 .6 0c1.6 1.2 2.7 4.5 3 6.4M40.6 75c-.2 3.8-4.7 4.7-7.4 1.5-2.5-2.9-1.4-7.1 2.7-6.9a5.5 5.5 0 0 1 4.7 5.5M66.8 74.2c-.9 4-6.3 6-8.5 2.9-1.6-2.3 0-6.7 4.3-7.4 3.6-.2 4.6 2.5 4.2 4.5M83.4 68.6c-.8 3.6-3 6.3-3.8 4.9-.8-1.7.8-7.4 2.8-8.9 1.4-.6 1.6 1.6 1 4M30.9 89.1a22 22 0 0 0 1.9 1.2l-1.2-.6a36.5 36.5 0 0 1-5.2-3.5l-.4-.4a2.3 2.3 0 0 1-.5-.5l.3.2c1.8 1 3.4 2.4 5 3.6" class="cls-5"/><path d="M44 91.8c.5 1.3-1.2 1.6-3.5.5s-3.3-2.5-2-3a3 3 0 0 1 1.3 0 5.5 5.5 0 0 1 4.2 2.5M60.2 91.3c-1.6 1.4-5.7 2.5-5.7.9 0-1 1.7-2.5 4.4-2.9 2.3-.2 2.2.9 1.7 1.6a4.5 4.5 0 0 1-.4.4" class="cls-5"/><path fill="#ff9797" d="m69 88.9-2.8 1.5c2.4-1.3 4.5-3.3 6.8-4.8a1.1 1.1 0 0 1 .3 0l-.7.6c-1 .8-2.5 2-3.7 2.7"/><path d="M50.5 5.7a6 6 0 0 0-6 6v3.2H47v-3.2a3.6 3.6 0 1 1 7.3 0v3.2h2.4v-3.2a6 6 0 0 0-6-6Z" class="cls-8"/><path fill="#353232" d="M44.5 14H56a6 6 0 0 1 6 6v3.7H38.5v-3.8a6 6 0 0 1 6-6Z"/><path d="M44.5 14H56a6 6 0 0 1 6 6v3.7H38.5v-3.8a6 6 0 0 1 6-6Z" class="cls-5"/><path d="M55.5 23.7h6.4v-5.9A4 4 0 0 0 58 14h-3.4a18 18 0 0 1 .9 9.8Z" class="cls-8"/></symbol><style>.cls-5{fill:#f4c237}.cls-6{fill:#ea95f4}.cls-8{fill:#f2ab38}</style></defs><g id="Слой_2" data-name="Слой 2"><use xlink:href="#toy_2" id="Слой_15" width="100" height="100" data-name="Слой 15"/></g></svg>