<svg xmlns="http://www.w3.org/2000/svg" xmlns:xlink="http://www.w3.org/1999/xlink" viewBox="0 0 100 100"><defs><symbol id="toy_9" data-name="toy_9" viewBox="0 0 100 100"><path fill="none" d="M0 0h100v100H0z"/><circle cx="50.3" cy="58.6" r="36.4" fill="#62c3f4"/><path fill="#29a3d3" d="M50.7 22.2a29.5 29.5 0 0 1-35.9 44.5 36.4 36.4 0 1 0 35.9-44.5Z"/><path fill="#1489ad" d="M60.6 23.7a36.4 36.4 0 0 1-37.5 59.1 36.4 36.4 0 1 0 37.5-59Z"/><path d="M55.2 23.4c1.4.8.2 1.7-2.5 2s-6 0-7.3-.7c-1-.5-.7-1.1.4-1.6a25.8 25.8 0 0 1 4 .4c-.1 0-.1.1 0 .2a1.8 1.8 0 0 0 .9 0c.3 0 .4 0 .3-.2a30.4 30.4 0 0 1 4.3-.1M71 28.8c5 3.7-2 6.7-10.5 7.9-17.1 2.3-36.5-2-32-7.1a7.2 7.2 0 0 1 1-.9l1-.7 1.6-1c-4.9 3-.2 5.7 5.3 7 14.4 3.2 35.9-.2 33-5.3a5 5 0 0 0-1.8-1.5c.7.4 1.8 1 2.5 1.6M36 25.3l3.6-1.3 2.7-.3a63 63 0 0 0-6.3 1.6M34.6 26.8l3.5-1.6 3.4-.6-3.6 1.3c-1 .5-2.3.6-3.3 1" class="cls-5"/><path d="m35.4 28.4 2.8-2 3.7-1-2.9 1.7-3.6 1.3M38.4 29.9a25.6 25.6 0 0 1 1.7-2.2l3.5-1.4a21.9 21.9 0 0 0-1.8 1.9l-3.4 1.7M42.9 31a16 16 0 0 1 .5-2.4l2.7-1.7a12 12 0 0 0-.5 2l-2.7 2M48.4 31.4a22 22 0 0 1-.8-2.3l1.6-2a16.5 16.5 0 0 0 .8 2l-1.6 2.3M54.2 31.3c-.7-.6-1.5-1.5-2-2.2a12.8 12.8 0 0 0 .3-2l2 1.9a18.7 18.7 0 0 1-.3 2.4M59.6 30.6l-3-1.9a13.5 13.5 0 0 0-1-2l3 1.6a17.7 17.7 0 0 1 1 2.3M69.6 89.4l-1 .6a54.4 54.4 0 0 1-37 0 35 35 0 0 1-4.2-3 8.5 8.5 0 0 0 1.1.7c5.9 3.3 20.4 4.7 32.3 3.1C66.8 90 71 88.6 73 87l-3.3 2.4M83.3 73.9c-1.4 3-8 5.7-18.4 7-16.5 2.3-36.5.4-44.6-4.2a7.2 7.2 0 0 1-3.1-3l-.6-1.3-.5-1.2a7 7 0 0 0 3.3 3.2c8.3 4.7 29 6.7 46 4.4 11-1.4 17.8-4.4 19-7.5l-1.2 2.6" class="cls-5"/><path d="M66.4 88.4a15.4 15.4 0 0 0-1-1.6L69 84a19 19 0 0 1 1 1.8l-3.7 2.6M57.2 89.7 55 87.9l3.4-2.5 2.3 2-3.5 2.3M47.4 89.9l-3-2.1 2.6-2.1 3 2.3-2.6 2M38.2 89.1l-3.6-2.4 1.6-2c1 .8 2.4 2 3.5 2.7L38.2 89M30.4 87.4 27 84.6a11 11 0 0 1 .3-1.8c1 1 2.5 2.1 3.5 3a9.7 9.7 0 0 0-.3 1.6M25.3 85c-1-1-2.2-2.2-3-3.2A14.9 14.9 0 0 1 21 80l3.1 3.4a12 12 0 0 0 1 1.6M63.6 29.4 60 28a26.2 26.2 0 0 0-2.3-1.9l3.6 1.3a28.4 28.4 0 0 1 2.2 2.1M65.7 28l-3.6-1.2-3.1-1.6 3.6 1 3.1 1.8M65.8 26.4l-3.2-.9-3.6-1.2 3.2.5 3.6 1.5M78.7 81.3l-1.3 1.5.5-.6 2.4-3.1-1.6 2.2M72.8 86.4a9 9 0 0 0 .5-1.6l3.3-3.2a10.6 10.6 0 0 1-.4 1.9l-3.4 3M27.5 71.8a39 39 0 0 1-9.4-3.1 28.6 28.6 0 0 1 4-8.5 27.2 27.2 0 0 1-3.4-1.4 49.1 49.1 0 0 1 6-7.9l1.7-2-2.7-.8A113.2 113.2 0 0 1 35 37.7a26.2 26.2 0 0 0 0 6.4 41 41 0 0 0 2 7l-3.7-.5.8 2.5A64.1 64.1 0 0 0 39 63.5l-5.4-.7a81.3 81.3 0 0 0 6.6 11 98.5 98.5 0 0 1-12.8-2M63.8 73.4a126 126 0 0 1-14.6.8c2.3-3 4-5.3 7.2-10.3l-6 .1c2.1-3 4.1-6 6.3-9.9l1.3-2.4-4.2.2a67.6 67.6 0 0 0 3.6-6.8 37.9 37.9 0 0 0 2-6.4l5.3 5.6 5.6 5.7-3.6.7 1.9 2a89.4 89.4 0 0 1 6.8 8.5c-2.8.7-2.9.7-4.7 1a52.2 52.2 0 0 1 5.5 9 76.6 76.6 0 0 1-12.5 2.2M82.8 42.9l1 1.6.7 1.7.2.5a34.5 34.5 0 0 1 1.5 5.8 35.3 35.3 0 0 1 .5 6.2 34.5 34.5 0 0 1-.5 6 5.7 5.7 0 0 1-.3.8c-.6.9-1.3 2.2-4.7 3.8a38.2 38.2 0 0 0 3.2-12 14.8 14.8 0 0 1-2.4 1.5 33 33 0 0 0 .2-11l-.5-2.5a15.5 15.5 0 0 1-1.4 1 30 30 0 0 0-2-7 30.6 30.6 0 0 0-4-6 37.3 37.3 0 0 1 4.9 4 20.7 20.7 0 0 1 3.3 4.4l.3 1.2" class="cls-5"/><path d="M50.7 6.2a6 6 0 0 0-6 6v3.2H47v-3.2a3.6 3.6 0 0 1 7.3 0v3.2h2.4v-3.2a6 6 0 0 0-6-6Z" class="cls-6"/><path fill="#353232" d="M44.6 14.4H56a6 6 0 0 1 6 6V24H38.6v-3.7a6 6 0 0 1 6-6Z"/><path fill="#f4c237" d="M44.6 14.4H56a6 6 0 0 1 6 6V24H38.6v-3.7a6 6 0 0 1 6-6Z"/><path d="M55.6 24.1H62v-5.8a4 4 0 0 0-3.9-4h-3.4a18 18 0 0 1 .9 9.8Z" class="cls-6"/></symbol><style>.cls-5{fill:#aae3f9}.cls-6{fill:#f2ab38}</style></defs><g id="Слой_2" data-name="Слой 2"><use xlink:href="#toy_9" id="Слой_15" width="100" height="100" data-name="Слой 15"/></g></svg>