<svg xmlns="http://www.w3.org/2000/svg" xmlns:xlink="http://www.w3.org/1999/xlink" viewBox="0 0 100 100"><defs><symbol id="toy_3" data-name="toy_3" viewBox="0 0 100 100"><path fill="none" d="M0 0h100v100H0z"/><circle cx="49.3" cy="58.5" r="36.4" fill="#f42f2f"/><path fill="#e21b1b" d="M49.7 22.2a29.5 29.5 0 0 1-35.9 44.5 36.4 36.4 0 1 0 35.9-44.5Z"/><path fill="#c61010" d="M59.6 23.6a36.4 36.4 0 0 1-37.5 59.2 36.4 36.4 0 1 0 37.5-59.1Z"/><path d="M21.8 34.8a5.2 5.2 0 0 0 .5-.5l-.6.4 1.3-1.4.5-.5-1 1-2 2.3v.2l-.6.7a14.3 14.3 0 0 0 1.2-1.6l.5-.5.2-.2M36.9 59.1a4 4 0 0 1-2.7-2.4l3.1-1.6-.4 4m4.3-1.5a4.2 4.2 0 0 1-3.4 1.7l.4-4.2 3 2.4m-7.3-1.8a5.4 5.4 0 0 1 .7-3.7l2.4 2.2-3 1.5m8.2-.7a6.1 6.1 0 0 1-.5 1.7l-3-2.4 3.3-1.7a5.6 5.6 0 0 1 .2 2.4m-4.7-1.6-2.3-2.2a4.3 4.3 0 0 1 3-1.5l-.6 3.6m.8.1.6-3.7a4 4 0 0 1 2.6 2l-3.2 1.7m17.2-9.9a.5.5 0 0 0-.5-.5l-1.9 1.4.3-2c-.2-.8-.7-.5-.7-.5a31.4 31.4 0 0 0-.5 3.2l-2 1.3.7-3.3c0-.8-.6-.4-.6-.4l-1 4.4-2.7 1.7 1.4-5.4c0-.8-.5-.5-.5-.4l-2 6.5-3.2 1.8a4.6 4.6 0 0 0-3.3-2.6l.8-3.9 4.4-4a.5.5 0 0 0 0-.8h-.2l-4 3.6.9-3.2 2.8-2.6c.2-.3.2-.4 0-.7h-.2l-2.3 2.1.7-2.3 1.9-1.7a1.2 1.2 0 0 0 .1-.5v-.2c-.7.2-1.2.9-1.6 1.3l.8-2.1v-.3l-.2-.2a1.2 1.2 0 0 0-.3.4l-.9 2-.3-1.3h-.2c-.5.2-.6.3.2 2.4l-.8 2.4-.8-2.3-.2-.2c-.6.3-.8.4.6 3.7l-.9 3.2a24.6 24.6 0 0 1-1.6-4l-.2-.2c-.4.2-1 .4 1.5 5.5a104 104 0 0 0-.8 4 5.1 5.1 0 0 0-3.7 1.8 88 88 0 0 1-2.3-2.4 43 43 0 0 1 1-6.4v-.2l-.2-.2c-.7.3-1.2 4.3-1.4 6L30 45.1l1.1-4.2v-.2l-.2-.2c-.3.2-.5.3-1.4 3.8l-.9-1.7 1-2.8v-.3l-.2-.1c-.3.2-.3.2-1.2 2.4l-.5-1.6h-.3c-.5.3-.5.3.2 2.3h-1.5c-.5.4-.5.6-.4 1l2.2-.2 1 1.7-2.6.3a.7.7 0 0 0-.4.8l3.4-.3 1.6 2.2-4.4.5a.6.6 0 0 0-.4.9c.2 0 .4.2 5.5-.6.6.8 1.5 1.8 2.3 2.5a6.5 6.5 0 0 0-1 4.7l-3.2 1.6a49.4 49.4 0 0 1-4.8-3h-.2c-.7.7-.9.8 4 3.5L26 59.5l-3-2h-.3C22 58 22 58 25 60l-2 1-2-1.6h-.2c-.5.6-.5.6 1.3 2l-1.6 1c-.5.6.1 1 .2 1a6.6 6.6 0 0 0 1.7-1l-.4 2.1a.8.8 0 0 0 .3.7h.2a14.7 14.7 0 0 0 .9-3.3l2-1-1 3.5c0 .6.2.7.5.7 1.2-1.3 1-3.1 1.4-4.7l2.7-1.3a60.7 60.7 0 0 0-1.7 5.6c0 .8.3.8.6.8 1.8-2 1.4-4.7 2.2-7l3.3-1.6a5 5 0 0 0 3.4 3.1l-.2 4-4.6 4.5c-.3.6 0 .9.5 1l4-4V69.3l-3 3a.6.6 0 0 0 .6.8l2.4-2.4.2 2.8-2 2c-.3.6.5.7.6.7.6-.2 1-1 1.4-1.4l.3 2.5c.3.8.8.4.9.2l-.2-2.6 1.6 1.6c.6.4.7-.1.7-.2l-2.4-2.7-.1-2.8 2.5 2.8c.7.4.9-.3.8-.5-.6-1.3-2.4-2.6-3.4-3.7V65.7l4 4.6c.7.5.9-.1.9-.4-.2-1-1.5-1.7-2.1-2.4l-2.8-3.3.3-4A5 5 0 0 0 42 58l3 2.1 1.7 7c.3.7.8.3 1 0L46.2 61l3.1 1.9 1.2 4.7c.4.7 1 .2 1 0l-1-4 2.6 1.4.8 3.3a.5.5 0 0 0 1 0c.3-.8-.4-1.8-.6-2.6l2.4 1.4a.5.5 0 0 0 .7-.7c-.4-.8-1.8-1.1-2.6-1.5L57 64c.8-.6 0-1 0-1-1 0-2.4.7-3.4 1L51 62.6l3.6-1a.5.5 0 0 0 0-1c-1.5-.1-3.4 1-4.8 1.3l-3-2c3.4-.8 3.6-1 5.6-1.5a.5.5 0 0 0-.1-1c-2.4-.2-4.5 1.2-6.7 1.8l-3-2a6.5 6.5 0 0 0 .2-5.1l3.2-1.8c2.9 1 3.3 1 6 1.8.8 0 .4-.8.2-1-1.6-.9-3.4-1-5.1-1.5l2.7-1.7c1.2.3 2.7.8 4 1 .7 0 .4-.7.2-.8a16 16 0 0 0-3.2-.9l2-1.4 2.7.7c.7-.1.3-.8.1-1a9.3 9.3 0 0 0-1.9-.4l1.8-1.4a1 1 0 0 0 0-.2M84.5 50s-.1 0-.6-1.2l-.6-2.7a31.7 31.7 0 0 1 1.3 3.8m-1-3.3.8 2.4a5.3 5.3 0 0 1 .1.6 34.8 34.8 0 0 0-1.2-3.7l.3.5v.2m0 1.5c-.4-.7-.8-1.8-1.4-3.5a11.6 11.6 0 0 1 .8.9l.5 2.6m-.3-2.6L83 45c-.3-.7-.6-1.6-1-2.2l1.3 2.7m-.6-.9-.9-.8-.8-2.4a34.3 34.3 0 0 1 1.7 3.2m0-.2A35.9 35.9 0 0 0 81 41s0-.2.1 0a4.5 4.5 0 0 1 .5.7c.3.8.8 1.8 1 2.6m2.7 19.2.3-2.2-.4 2.8-.1.7.2-1.3m-11-31.2L74 32a32.7 32.7 0 0 1 3.3 3.9l-2.5-2.5-2.6-2.7a5.7 5.7 0 0 0-.5-.4l2.1 2.2c-.7-.7-1.4-1.3-2.2-1.8l-2-1.7a3 3 0 0 0-.6-.4l1.5 1.3a34.4 34.4 0 0 0-2.7-1.6l.3.2 2.4 1.5-1.3-.6c0 .2 0 .2 2.4 1.4l2.2 1.8-2-1.1 3 2a34.8 34.8 0 0 1 2.5 2.6 27.2 27.2 0 0 0-3-2.1c0 .3 0 .3 2 1.6l1.9 1.6a36.4 36.4 0 0 1 2.3 3.3 22.2 22.2 0 0 0 1 3l-1.5-1a42.5 42.5 0 0 0-4.1-5.1 1 1 0 0 0-.4-.2 1 1 0 0 0 .3.6 40.8 40.8 0 0 1 3.6 4.4l-1.6-.9-3-3.4a1 1 0 0 0-.4-.2L77 41l-1.6-.7-2-2.4a1.2 1.2 0 0 0-.4-.2c-.1.3-.1.3 1.6 2.2l-1.6-.6h-.2c0 .6 0 .6 2.1 1.5l-.5.9a.8.8 0 0 0 .5.8l.8-1.4 1.6.7c-.2.5-.4 1.2-.7 1.6a.8.8 0 0 0 .5.9 16 16 0 0 0 1-2.1l1.6.8a9.6 9.6 0 0 1-.9 2.7 1 1 0 0 0 .4.8h.1a10 10 0 0 0 1-3.1c.5.2 1 .6 1.5 1 2 4.9 2 4.9 1.8 7.2h-2.4c-.3.3 0 .8 0 1l2.3.1-.5 2.6h-2c-.4.3-.1.7 0 1h1.7l-.8 2.2-1.5-.1a.7.7 0 0 0-.2 1h1.2l-1 2a.8.8 0 0 0 0 1h.2l1.2-2.1-.2 2.4a2.2 2.2 0 0 0 0 .4h.1c.2-.1.4-.3.5-3.9l.7-2V61a3.3 3.3 0 0 0 .1.5h.2a24.1 24.1 0 0 0 0-5.4l.6-2.7a35.8 35.8 0 0 1 .4 6.2 2.2 2.2 0 0 0 0 .5l.1-.1a31 31 0 0 0-.5-7.6v-2.9a5.6 5.6 0 0 0 .8 1.4 20.5 20.5 0 0 1 .8 3.8 30.5 30.5 0 0 1-.2 6.4 3.4 3.4 0 0 0 0 .8 24.5 24.5 0 0 0 .3-5.8v1l-.3-3.6-.5-2.8s-.5-2.1-1.2-4a35.4 35.4 0 0 0-2.4-5.5V41a2.1 2.1 0 0 0-.6-.7l-2.4-3.1a30.2 30.2 0 0 0-3.6-4.5l-.2-.2M24.7 85.4l-.6-.5.6.5m2 1.6.5.5-1-.8-1.8-1.7 2.3 2m-3.2-2.8-.5-.5.5.4m1.9 1.4.9 1-2.4-2a2.2 2.2 0 0 1-.1-.6l1.6 1.6M23 83.7l-1.2-1.3-.9-1a1.5 1.5 0 0 1-.2-.4 28 28 0 0 0 2.3 2.7m.2.2a29.4 29.4 0 0 1-2.2-2.7l2 2a2 2 0 0 0 .2.6m5.5-3.7c-.1-.9-.2-.8-2 0l-.2-1.6s-.2-.7-.7-.5a21.5 21.5 0 0 0 .3 2.5l-1 .7-.6-2.7a.9.9 0 0 0-.5-.6h-.2a14.1 14.1 0 0 0 .9 3.6l-1 .7a19.5 19.5 0 0 1-1.4-4.2c-.1-.5-.4-.6-.5-.6-.2.3.5 2.7 1.7 5a3.5 3.5 0 0 0-.4.6l-2.6-2.5a28.2 28.2 0 0 1-2-3.3 6.3 6.3 0 0 1 0-3 1 1 0 0 0-.4-.8 5.5 5.5 0 0 0-.2 2.6 32.6 32.6 0 0 1-1.3-3.1 17.5 17.5 0 0 1 .4-2.2s0-.7-.4-.9a14.2 14.2 0 0 0-.4 1.9l-.7-2.8.5-1.6c0-.1 0-.7-.3-1l-.4 1.3-.4-2.7c0-.5 0-.6-.2-.7a.8.8 0 0 0-.1.3c0 1 .2 2 .4 2.8l-.7-2v-.2l-.2.1a23.1 23.1 0 0 0 1.1 3.5l.7 2.7-1.3-3.2v-.1c-.2.3.5 2.1 1.7 4.6a32.9 32.9 0 0 0 1.3 3.1 31.5 31.5 0 0 1-2.5-4.8v-.1c0 .2.6 2.2 3.1 6.1a32.2 32.2 0 0 0 2 3.3h-.1l1.7 2.1a35.2 35.2 0 0 0 4.3 4.2l1.8 1.4-.7-.7 2.4 1.6a29.8 29.8 0 0 0 5.2 3l.4.1a31 31 0 0 1-4.7-2.6 103.6 103.6 0 0 0 5.7 3l.3.1-2.8-1.4 1.9.8c.6.2 1.5.8 2.2 1l.3.1a14.2 14.2 0 0 0-1.7-.8l1.7.7h.2l-2.2-1h.6c-.2-.3-.2-.3-1.5-.3l-1.8-.9h1c-.3-.4-.3-.4-2-.5L30.2 89a15.2 15.2 0 0 0 1.6.1c-.1-.4-.1-.4-2.5-.6a76 76 0 0 1-2.3-1.6l-3.1-3.2a5.4 5.4 0 0 1 .4-.6 41.7 41.7 0 0 0 4.3 2.4h.1l-4.2-2.7 1-.7 3 1.7h.2l.1-.2c0-.2 0-.2-3-1.8l1-.7 2.4 1.2a.5.5 0 0 0 .3 0c0-.5 0-.5-2-1.5l1.2-.6v-.2M64 90.4c-.4 0-1 0-1-.6l2.9-1.4a18.8 18.8 0 0 1-1.9 2m3.2-1.5a10.3 10.3 0 0 1-2.7 1.4 19.7 19.7 0 0 0 2-2 9.9 9.9 0 0 1 .8.6h-.1m-4 .5a5 5 0 0 1 1.4-2l1.4.6-2.8 1.4m5.8-2a12.2 12.2 0 0 1-1 1l-.9-.6 2.8-1.7a4.2 4.2 0 0 1-.9 1.3m-2.4 0-1.3-.7a9.5 9.5 0 0 1 2.8-1.6 25.6 25.6 0 0 1-1.5 2.3m.6-.1a24.6 24.6 0 0 0 1.5-2.4c.9-.1 1.3.1 1.3.7l-2.8 1.7m13.7-11.7.2-.3-1.4 1.8 1-2a2.7 2.7 0 0 0 0-.4s0 0-1.8 3.2l-1.6 1.7 1.8-3 .2-.5H79a39.4 39.4 0 0 0-2.6 4.3l-2.2 2a36.5 36.5 0 0 0 3-4.8 1.4 1.4 0 0 0 .1-.3h-.1c-1.9 1.6-2.5 4-4 5.9l-2.6 2c0-.4 0-1.2-1.6-.9a29.6 29.6 0 0 0 1.3-3 58.5 58.5 0 0 0 4.7-5c.2-.3.2-.4.1-.5-.2 0-.2 0-2.2 2.2a41 41 0 0 1-2.2 2.2l1-3 3-3.6c.2-.3.1-.4 0-.6s-.1 0-2.8 3l.5-2.7 2-2.6c.4-.6 0-.8-.2-.7-.7.3-1.2 1.4-1.6 2l.2-2.7c0-.2 0-.4-.4-.3a.7.7 0 0 0-.3.4c0 1-.2 2-.3 2.8l-1.1-1.3c-.6-.3-.8.5-.7.7.2.9 1 1.3 1.6 1.9 0 .9-.3 1.8-.4 2.6l-1.7-1.9c-.6-.3-.8.5-.8.6.4 1 1.5 1.8 2.2 2.5l-.9 3a28.8 28.8 0 0 0-2.4-2.8c-.6-.3-.8.5-.8.6.6 1.4 2 2.2 2.8 3.3a30.8 30.8 0 0 1-1.3 3 11.2 11.2 0 0 0-3.6 2.1l-2.2-.9a30.2 30.2 0 0 0 0-4.6c-.3-.5-.8 0-.9 0-.3.6 0 1.6.1 2.3v2l-2.2-1-.4-3.3c-.3-.6-.9 0-1 0l.5 2.8-2.1-.8-.5-2.4c-.3-.5-.8 0-.9 0-.2.5.2 1.4.4 2l-2.1-1c-.6-.2-.8.2-.7.4.3.7 1.6.8 2.3 1.2l-2 .5c-.6.2-.3.6-.2.6s.2.1 3.2-.7l2 .9-3.2.8c-.6.3-.3.6-.2.7s.2 0 4.3-1.1l2.3 1-5 1.3-.4.3v.2c.4.2 3.5-.7 6.1-1.6l2.1 1c-.7.7-.9 1.8-1.7 2.4a12.5 12.5 0 0 1-3 1.4l-4-.3c-.4 0-.5.1-.5.3a21.4 21.4 0 0 0 3.5.4l-2.4 1-2.6-.3a.5.5 0 0 0-.4.2v.1l2 .2-1.7.6-1.5-.1c-.3 0-.3 0-.4.2a3.6 3.6 0 0 0 1.3.2l-1.5.4-.1.1v.1a7.6 7.6 0 0 0 1.7-.4l-.7.6h.1a5.6 5.6 0 0 0 1.3-.8l1.7-.5-1.3 1 .1.1a8 8 0 0 0 2.1-1.4l2.4-.9a17.3 17.3 0 0 1-2.7 2h.1a14.8 14.8 0 0 0 3.6-2.4l2.9-1.2c0 .6.3.8 1.1.7a16.5 16.5 0 0 1-2 1.5A35 35 0 0 1 57 94l-.3.1a26.3 26.3 0 0 0 4-1.3 14.6 14.6 0 0 1-2 .9l-2 .5 1-.2h.1l1-.3h.2a14.4 14.4 0 0 0 2.1-1 5.3 5.3 0 0 1-1 .6l.5-.1c.9-.5 1-.5 1.3-1a17 17 0 0 0 2.1-1.5 12 12 0 0 0 3.4-1.7 2 2 0 0 1 .3.5 17.3 17.3 0 0 1-4 2.5h-.2l.5-.2h.1a17 17 0 0 0 3.5-2.1 1.9 1.9 0 0 1-.2.3L66 91l.7-.5.7-.3H67l.7-.3.2-.2 1.1-.7 1.2-.7-2.1 1.3a1.3 1.3 0 0 0 .2-.4 26.1 26.1 0 0 0 2.8-1.7l.6-.5c-1.5 1-2 1.3-3.4 2a2.4 2.4 0 0 0-.3-.5 12 12 0 0 0 1.7-1.6c.3-.4.4-1 .8-1.3.7-.7 1.8-1.3 2.6-2H75a2.2 2.2 0 0 0 .6-.6h-1.5l2.3-2h1a2.2 2.2 0 0 0 .5-.7h-.8l1.6-1.7h.6a2.4 2.4 0 0 0 .5-.8h-.4l1.3-1.8.2-.3M42.2 25a5.2 5.2 0 0 1 2-.7l2-.3a35.7 35.7 0 0 0-4 1m2-.4a8.1 8.1 0 0 1-2 .4 37.5 37.5 0 0 1 4-1l-1.8.6h-.1m.7-.6a32 32 0 0 1 4-.4c-.7 0-1.4 0-2 .2l-2 .2m1.8 0a38.3 38.3 0 0 0 .3-.1l2-.3-2.3.4m1.1-.3 1.4-.1-1.4.1m0 0 1.4-.1-1.4.1m-7.3 5.6.4-1.2.9-.2a1.3 1.3 0 0 0 .6-.4l-1.4.2a9 9 0 0 1 .5-.9l1.4-.2a1.7 1.7 0 0 0 .6-.4l-1.6.3a12 12 0 0 1 1-1l2-.2a3 3 0 0 0 .6-.3l-2.1.3 1.4-.8a37.3 37.3 0 0 1 4.4-.9h-.1c-2.3.1-4.6.5-6.8.8a11.3 11.3 0 0 1 1.8-.6 5.4 5.4 0 0 0-2.6.6l-1.8.2 1.4-.5a4.2 4.2 0 0 0-2 .6l-1.3.2 1-.5c-.5 0-.6.1-1.6.6l-1.1.1a4.6 4.6 0 0 0-.8.3l1-.1-2 .6a3.3 3.3 0 0 0-.6.3 19.5 19.5 0 0 0 3.2-1l1.3-.2-3.4 1a2.7 2.7 0 0 0-.6.3c1.7 0 3-1 4.6-1.4l1.8-.2a39.9 39.9 0 0 0-5.6 1.7 1.8 1.8 0 0 0-.5.2 1.1 1.1 0 0 0 .2 0 45.2 45.2 0 0 1 6.7-2l2.1-.3a7.3 7.3 0 0 0-2.3.9l-3.7 1.4-5 1.7a2 2 0 0 0-.6.4c.6 0 1.4-.5 2-.7l2.3-.8-3.2 1.8-3.2 1.3a1.8 1.8 0 0 0-.6.5 21 21 0 0 0 2.6-1 36 36 0 0 0-2.3 1.6l-2.2 1a1.5 1.5 0 0 0-.6.6h.1l1.6-.7-2 1.8a.8.8 0 0 0-.3.4l.4-.1 2-2-.7 1.4v.1l2-2.3a44 44 0 0 1 2.3-1.8l-1.6 2v.1a33 33 0 0 0 2.8-2.8q1.5-1 3.2-1.8a14.8 14.8 0 0 0-2.9 2.7 1.2 1.2 0 0 0 .7-.3 15 15 0 0 1 3.4-3 38.3 38.3 0 0 1 3.6-1.4 8.3 8.3 0 0 0 2.6-.5l-1.4.7a26.3 26.3 0 0 0-5.1 3.2 1.5 1.5 0 0 0-.2.2l.5-.2a23 23 0 0 1 4.4-2.8l-1 1-3 2.3a1.5 1.5 0 0 0-.2.2c.2 0 .2 0 2.3-1.7l.6-.5c0 .3-.3.7-.4 1L38.7 30a1 1 0 0 0-.2.2c.3 0 .3 0 1.8-1.6l-.1 1a.8.8 0 0 0 .4-.3M54 26a5.6 5.6 0 0 1-1.8-.8 10.3 10.3 0 0 0-.8-.8A22.3 22.3 0 0 1 54 26m-.7-.8c.7.3 1 .7.9.8a22.7 22.7 0 0 0-2.8-1.5l1.9.7m-1.6-.2a23.4 23.4 0 0 0-2.2-1.2l1.3.5a10.3 10.3 0 0 1 .9.7m-.3-.7 1.2.5-1.7-.5-1.4-.6 1.9.6m-1.2-.3-1-.3 1 .3m0 0-1-.3 1 .3m12.5 3.6a8.4 8.4 0 0 0-2-.6l-.3-.4a2.8 2.8 0 0 0-.8-.4l.3.6-1.6-.4a7 7 0 0 0-.4-.6 3.5 3.5 0 0 0-1-.3l.7.7-2-.5a3.1 3.1 0 0 0-.8-.8 4 4 0 0 0-.9-.2 3.6 3.6 0 0 1 1 .8l-1.9-.5a20.4 20.4 0 0 0-3.7-1.3c2.6 1.3 2.8 1.6 3 2.4a13.4 13.4 0 0 1-1.7-.6c0 .2-.1.4 1.8 1a6.2 6.2 0 0 1 0 1l-1.5-.6c0 .4 0 .4 1.3.9l-.4.9-1.1-.5h-.1c-.3.4-.1.5 1 .9l-.8.9c0 .2 0 .5.3.5l.7-.9.2 1.4c0 .5.4.4.4.3a14 14 0 0 0-.3-2.2l.5-.9.6 2.2c.1.3.2.4.4.4.2-.2-.4-1.9-.9-3a8.8 8.8 0 0 0 .2-1 14.5 14.5 0 0 1 1.7 3.3c.1.3.3.4.4.4.2-.3-.7-2.2-2.2-4a5 5 0 0 0-.4-1 6.8 6.8 0 0 0 2.2 1 22.7 22.7 0 0 1 2.5 1.9 7.6 7.6 0 0 1 1 3.3c0 .3.3.5.6.5a6.3 6.3 0 0 0-.7-3l2 2.2a20.1 20.1 0 0 1 .4 2.5c.1.6.6.7.7.5a5.3 5.3 0 0 0-.2-2l1.5 2v1.9c0 .6.6.7.7.5.3-.3 0-1 0-1.5l1.4 2.2c.3.4.6.4.6.1a.7.7 0 0 0 0-.2 41 41 0 0 0-1.5-2.2l1.6 1h.3c.2-.3.2-.3-2.6-2-.5-.8-1-1.4-1.6-2l2.5 1.5h.3c0-.4 0-.4-3.6-2.5l-2.2-2.2 4 2.2a.6.6 0 0 0 .2 0c-.1-.3-.1-.3-5.1-3a28.9 28.9 0 0 0-2.5-1.8c.3-.3-.6-.9-1.1-1.2l1.9.6a49.4 49.4 0 0 1 5.6 3 1.7 1.7 0 0 0 .4.1 36 36 0 0 0-5.3-2.9l2 .6 4 2a1.7 1.7 0 0 0 .3.1 36.7 36.7 0 0 0-3.5-2l1.6.5 2.8 1.4a1.2 1.2 0 0 0 .3.1 12.8 12.8 0 0 0-2.3-1.3l1.5.4-.3-.3" class="cls-5"/><path d="M49.7 6.1a6 6 0 0 0-6 6v3.2H46v-3.2a3.6 3.6 0 0 1 7.3 0v3.2h2.4v-3.2a6 6 0 0 0-6-6Z" class="cls-6"/><path fill="#353232" d="M43.6 14.3H55a6 6 0 0 1 6 6v3.8H37.6v-3.8a6 6 0 0 1 6-6Z"/><path fill="#f4c237" d="M43.6 14.3H55a6 6 0 0 1 6 6v3.8H37.6v-3.8a6 6 0 0 1 6-6Z"/><path d="M54.6 24H61v-5.8a3.9 3.9 0 0 0-3.9-3.9h-3.4a18 18 0 0 1 .9 9.8Z" class="cls-6"/></symbol><style>.cls-5{fill:#ff9797}.cls-6{fill:#f2ab38}</style></defs><g id="Слой_2" data-name="Слой 2"><use xlink:href="#toy_3" id="Слой_15" width="100" height="100" data-name="Слой 15"/></g></svg>