<svg xmlns="http://www.w3.org/2000/svg" xmlns:xlink="http://www.w3.org/1999/xlink"
  viewBox="0 0 100 100">
  <defs>
    <symbol id="toy_1" data-name="toy_1" viewBox="0 0 100 100">
      <path fill="none" d="M0 0h100v100H0z" />
      <circle cx="50.1" cy="57.9" r="35.9" fill="#f7c154" />
      <path fill="#eaaf2d" d="M50.5 22A29.2 29.2 0 0 1 15 66a36 36 0 1 0 35.4-44Z" />
      <path fill="#e8932e" d="M60.3 23.4a36 36 0 0 1-37 58.4 36 36 0 1 0 37-58.4Z" />
      <path
        d="M50.8 23.5c3 .6 4 2.4 0 4.9-7.6 4.6-25.4 6.6-26.4 4.4a1.8 1.8 0 0 1 .2-.3l1.2-1.1a81.6 81.6 0 0 1 2.7-2c2.9 2.7 22.4-1.6 22.5-5 0-.6-.4-.8-1-1.1l.8.1"
        class="cls-5" />
      <path
        d="M57.5 23.3c7.3 2.6 9 8.1-4.3 14.3C39.2 44 19.8 45.9 17 44a.6.6 0 0 1 0-.3l1.5-3.2 1-1.7.1.4c5.5 2.7 42.2-4.7 39-13-.5-1.3-2.4-2.8-6.2-3.2a29.6 29.6 0 0 1 5.2.2"
        class="cls-5" />
      <path
        d="m67.8 26.6 1.6 1c14.3 9.9-8.1 23.4-37.8 29-11 2-17.1 1.7-17.5 1 0-1.8.3-4 .5-5.8 4.3 3.7 57-6.6 55-21-.2-1.6-1.2-3.8-5-5.7a27.5 27.5 0 0 1 3.2 1.5"
        class="cls-5" />
      <path
        d="m78.4 35.8 2.4 3.5c10.3 18.5-51 35.1-63.4 32.4a2 2 0 0 1-.7-.4L15 66c6.2 4 68.3-10.8 63.9-28.4A8.6 8.6 0 0 0 77 34l1.4 1.7"
        class="cls-5" />
      <path
        d="m85.5 51.9.3 2.3C86.5 74 30 85.4 24 82.6l-1-1.2-2.4-3c5.3 3.4 67.8-10.2 64.1-30l-.1-.5.9 4"
        class="cls-5" />
      <path
        d="M85.4 64.3a34.3 34.3 0 0 1-1.6 5.8c-7 16-46.5 21.3-49.4 20l-2-1-2.5-1.5c5.1 1.6 51.4-6.1 55.5-23.7v.4"
        class="cls-5" />
      <path d="M50.4 6.2a6 6 0 0 0-6 6v3.1h2.4v-3.1a3.6 3.6 0 0 1 7.2 0v3.1h2.3v-3.1a6 6 0 0 0-6-6Z"
        class="cls-6" />
      <path fill="#353232" d="M44.5 14.4h11a6 6 0 0 1 6 6V24h-23v-3.6a6 6 0 0 1 6-6Z" />
      <path fill="#f4c237" d="M44.5 14.4h11a6 6 0 0 1 6 6V24h-23v-3.6a6 6 0 0 1 6-6Z" />
      <path d="M55.3 24h6.3v-5.8a3.9 3.9 0 0 0-3.9-3.8h-3.3c.8 2.4 1.8 6.4.9 9.6Z" class="cls-6" />
    </symbol>
    <style>.cls-5{fill:#f42f2f}.cls-6{fill:#f2ab38}</style>
  </defs>
  <g id="Слой_2" data-name="Слой 2">
    <use xlink:href="#toy_1" id="Слой_15" width="100" height="100" data-name="Слой 15" />
  </g>
</svg>