<svg xmlns="http://www.w3.org/2000/svg" xmlns:xlink="http://www.w3.org/1999/xlink" viewBox="0 0 100 100"><defs><symbol id="toy_7" data-name="toy_7" viewBox="0 0 100 100"><path fill="none" d="M0 0h100v100H0z"/><circle cx="50.2" cy="57.6" r="36.4" fill="#f42f2f"/><path fill="#e21b1b" d="M50.6 21.2a29.5 29.5 0 0 1-35.9 44.5 36.4 36.4 0 1 0 36-44.5Z"/><path fill="#c61010" d="M60.5 22.7a36.4 36.4 0 0 1-37.4 59.1 36.4 36.4 0 1 0 37.4-59Z"/><path d="M48.8 21.3a77 77 0 0 1-8.8 1.4 36.6 36.6 0 0 0-3.6 1.2c5.7-.7 9.8-1.5 13-2.7Z" class="cls-5"/><path d="M50.1 21.2h-.2c-3 2.6-13.3 4.3-16.8 4.9l-1.5.2c-1 .6-2 1.2-2.9 2l2.4-.5c14.8-2.8 18.4-5.2 19-6.6Z" class="cls-5"/><path d="M39 30c8.4-2.8 14.8-6.5 11.7-8.8h-.2c1.5 2.6-7.4 6.6-21 9.4l-4.7 1a33.6 33.6 0 0 0-2.3 2.4l4.6-1A117.7 117.7 0 0 0 39 30Z" class="cls-5"/><path d="M51.4 29.4c4.4-3 6-6.6.6-8.1h-.6c6.2 2.3-.1 9.7-27.5 15.7l-4.4 1-1.6 3c1.3-.5 3-.9 5.2-1.4a91.7 91.7 0 0 0 28.3-10.2Z" class="cls-5"/><path d="M56.1 33.3c7.1-5.4 5.5-9.8-.3-11.6a39 39 0 0 0-2-.3C63.3 24 61 34.7 21 44.2l-5.2 1.3-1 3.3 4-1.2c7.6-1.8 27.4-6.8 37.3-14.3Z" class="cls-5"/><path d="M63.5 23.7a38 38 0 0 0-3.3-1c8.2 4.5 8.2 16.4-40.6 29.5L14 53.8a39 39 0 0 0-.2 3.5c1.6-.6 4.6-1.5 10.1-3 40.7-11.6 48.9-23.7 39.6-30.6Z" class="cls-5"/><path d="M71.4 28a35.3 35.3 0 0 0-3-2c5.9 6.7 5 18.7-46.9 34a74.4 74.4 0 0 0-7.3 2.4c.1 1.2.3 2.3.6 3.4l8.1-2.6c39.8-12.3 56-24 48.5-35.2Z" class="cls-5"/><path d="M78.1 34.3a36.2 36.2 0 0 0-2.5-2.7C83.6 50.2 37 64.3 21.4 69l-5.1 1.7a33.2 33.2 0 0 0 1.3 3c1-.4 2.8-1 5.9-1.8C63.8 60 82.2 47.4 78 34.3Z" class="cls-5"/><path d="M83.2 42.3a35.6 35.6 0 0 0-1.8-3.4c2.3 17-29 29.9-56.8 37.8-2.3.7-3.6 1-4.5 1.4l2 2.6 4.9-1.4c26.7-7.5 56.9-19.8 56.2-37Z" class="cls-5"/><path d="M73.6 68.2c5.2-3.7 11-9.2 12.5-16.4a35 35 0 0 0-.8-3.8C84.6 54 80 60 72 65.7 58.4 75.3 37 81 29 83.2l-3.7 1a37 37 0 0 0 2.4 2l3.4-.8c7.8-2 28.4-7.5 42.4-17.2Z" class="cls-5"/><path d="m34.6 88.3-2.8.7a31.5 31.5 0 0 0 2.8 1.5l1.2-.3c28-6.7 45-15.9 50.4-27.3a36.4 36.4 0 0 0 .4-4.6c-4.5 12.3-22.2 22.5-52 30Z" class="cls-5"/><path d="M72.8 80c-3.5 2.3-13.8 7.9-33.7 12.3l2.7.7c4.8-1.2 9.7-2 14.4-3.6a86.7 86.7 0 0 0 16.3-7.1 41.8 41.8 0 0 0 10-7.9 35.1 35.1 0 0 0 2-4.5A41 41 0 0 1 72.8 80ZM50.2 94H52c6-1.3 14.4-3.9 21.5-8.3A36.8 36.8 0 0 0 78 81a75.7 75.7 0 0 1-30.5 12.8l2.7.1Z" class="cls-5"/><path d="M50.5 5.2a6 6 0 0 0-6 6v3.2H47v-3.2a3.6 3.6 0 1 1 7.3 0v3.2h2.4v-3.2a6 6 0 0 0-6-6Z" class="cls-6"/><path fill="#353232" d="M44.5 13.4h11.4a6 6 0 0 1 6 6V23H38.5v-3.7a6 6 0 0 1 6-6Z"/><path fill="#f4c237" d="M44.5 13.4h11.4a6 6 0 0 1 6 6V23H38.5v-3.7a6 6 0 0 1 6-6Z"/><path d="M55.5 23.1h6.4v-5.8a4 4 0 0 0-3.9-4h-3.4c.8 2.5 1.8 6.6.9 9.8Z" class="cls-6"/></symbol><style>.cls-5{fill:#ff9797}.cls-6{fill:#f2ab38}</style></defs><g id="Слой_2" data-name="Слой 2"><use xlink:href="#toy_7" id="Слой_15" width="100" height="100" data-name="Слой 15"/></g></svg>