<svg xmlns="http://www.w3.org/2000/svg" xmlns:xlink="http://www.w3.org/1999/xlink" viewBox="0 0 100 100"><defs><symbol id="toy_8" data-name="toy_8" viewBox="0 0 100 100"><path fill="none" d="M0 0h100v100H0z"/><circle cx="49.9" cy="57.6" r="36.4" fill="#f7c154"/><path fill="#eaaf2d" d="M50.3 21.3a29.5 29.5 0 0 1-35.8 44.4 36.4 36.4 0 1 0 35.8-44.4Z"/><path fill="#e8932e" d="M60.3 22.7a36.4 36.4 0 0 1-37.5 59.1 36.4 36.4 0 1 0 37.5-59Z"/><path d="M24.8 32a35 35 0 0 0-6.7 8.7 22 22 0 0 1 2.7-5l.4-.5a36.2 36.2 0 0 1 4.1-4.4 38.6 38.6 0 0 1 5-3.8 33.9 33.9 0 0 1 3.8-2.2 5.7 5.7 0 0 0-.6.4 29.9 29.9 0 0 1 8.3-2.2 31 31 0 0 0-9.5 3.5 4 4 0 0 0-1.3 2.3 32 32 0 0 0-6.3 3.2M44.6 39.3a90 90 0 0 0 .2 10.2 50.3 50.3 0 0 1-7-5.7 223 223 0 0 1-8.4 3.7 75.9 75.9 0 0 1 5.4-9.5 13.1 13.1 0 0 1 .5-6.7 51.1 51.1 0 0 0 5.1 0l6-5.6a12.3 12.3 0 0 0-1.7 6.2 46 46 0 0 0 5.4 1.3 49.4 49.4 0 0 1-4 4.5c-.4.5-1.3 1-1.5 1.5M73.4 35a44 44 0 0 1 6.8 8.5c-2.1-1-2.7-1.2-6.1-2.5a18.6 18.6 0 0 1-3.4 6.4 41 41 0 0 0-3.3-9.9l-7.6-5a15.1 15.1 0 0 0 3.6-2 18.6 18.6 0 0 0-6.4-5.6 67.4 67.4 0 0 1 9 4.5 15 15 0 0 0 2.9-.6 28.2 28.2 0 0 1 2.6 2.9c.7 1 1.3 2.4 2 3.3M21.6 70.4a39.5 39.5 0 0 0 4.1 9.8 40.3 40.3 0 0 1-6.8-6.5c-.8.8-1 1-.6 1.9l-.4-.6a28.1 28.1 0 0 1-3-8.6 28.6 28.6 0 0 1-1.4-9v-1c.2.7.3 1 1.6 1.5a29.2 29.2 0 0 1 3.8-8.6 37.9 37.9 0 0 0 .4 11.2 39 39 0 0 0 7.4 4 47.7 47.7 0 0 0-5.1 6M66.7 73.2a38.2 38.2 0 0 1-.3 8.8l-7.7-3c-3.9 2-4.9 2.4-9.2 4.3l1.9-9c-3.8-3.4-4.7-4.3-8-7.7 5-.5 6.2-.7 11-1.5 2.2-5 2.7-6.2 4.3-10.5l5.3 9.8 9.8-.1a53.2 53.2 0 0 1-7.2 8.9M84.3 45.7a34.5 34.5 0 0 1 1.4 5.8 36.3 36.3 0 0 1 0 12.7 35.6 35.6 0 0 1-4 11.2l-.3.3-.1.3a35.3 35.3 0 0 0 4-10.4 10 10 0 0 0-1.1-5.6 8 8 0 0 0 2-4.5 35 35 0 0 0-2.4-11v.2l.5 1M46.6 93.5a5.6 5.6 0 0 0 1.3.4l-1.5-.1-1.8-.2-2.1-.4h-.3l-1.5-.5a39.7 39.7 0 0 1-7.5-3.2 30.4 30.4 0 0 0 4.4.6c-.4-1.6-.6-2-.1-4.9a50.3 50.3 0 0 0 5.7 5.6l6.8.8-3.4 1.9M69.2 88.4a38.9 38.9 0 0 1-6 3l-3.5 1.2.6-.2c1-.5 1-.7.7-1.6a46 46 0 0 0 6-1.9 39.6 39.6 0 0 0 7.6-6.6 13 13 0 0 1-4.1 5.2l.4-.3-1.7 1.2" class="cls-5"/><path d="M50.6 5.2a6 6 0 0 0-6 6v3.2H47v-3.2a3.6 3.6 0 0 1 7.3 0v3.2h2.4v-3.2a6 6 0 0 0-6-6Z" class="cls-6"/><path fill="#353232" d="M44.6 13.4h11.3a6 6 0 0 1 6 6v3.8H38.6v-3.8a6 6 0 0 1 6-6Z"/><path fill="#f4c237" d="M44.6 13.4h11.3a6 6 0 0 1 6 6v3.8H38.6v-3.8a6 6 0 0 1 6-6Z"/><path d="M55.5 23.2H62v-5.9a3.9 3.9 0 0 0-3.9-3.9h-3.4a18 18 0 0 1 1 9.8Z" class="cls-6"/></symbol><style>.cls-5{fill:#ffe6bb}.cls-6{fill:#f2ab38}</style></defs><g id="Слой_2" data-name="Слой 2"><use xlink:href="#toy_8" id="Слой_15" width="100" height="100" data-name="Слой 15"/></g></svg>