<svg xmlns="http://www.w3.org/2000/svg" xmlns:xlink="http://www.w3.org/1999/xlink" viewBox="0 0 100 100"><defs><symbol id="toy_4" data-name="toy_4" viewBox="0 0 100 100"><path fill="none" d="M0 0h100v100H0z"/><circle cx="50.2" cy="58.3" r="36.4" fill="#62c3f4"/><path fill="#29a3d3" d="M50.6 22a29.5 29.5 0 0 1-35.8 44.4A36.4 36.4 0 1 0 50.6 22Z"/><path fill="#1489ad" d="M60.5 23.4a36.4 36.4 0 0 1-37.4 59 36.4 36.4 0 1 0 37.4-59Z"/><path d="M52 62.5a2.6 2.6 0 0 1-2.5 2.3 2.6 2.6 0 0 1-1.6-4.7 2.5 2.5 0 0 1 4.1 2.4m15.6-7.6c0-.5 0-.5-4.2-1.2l2.6-2.3a.6.6 0 0 0-.4-1 31.8 31.8 0 0 0-2.9 2.3l.2-4c0-.8-.7-.7-.8-.5-.6.7-.3 2.2-.3 3l-.3 2.4-1.7 1.4.5-4c0-.8-.7-.7-.9-.5l-.9 5.4-1 .8L55 56a.6.6 0 0 0-.5 1c.3.4 1.2.4 1.8.6L52.5 60a3.8 3.8 0 0 0-2.4-1.7v-4.5l1.1 1.2a.5.5 0 0 0 1-.4c0-.2 0-.2-2-2.4V51c1-1 2.2-2.5 3-3.6.4-.7-.1-1-.4-1l-2.6 3v-2.2l2.8-3.5c.4-.9-.4-.9-.5-.9-1.3.5-1.5 2-2.3 2.8V42c-.1-.4-.2-.5-.5-.5a1 1 0 0 0-.4.4v3.6c-.7-.8-1.6-1.8-2.2-2.7-.5-.4-.8.3-.8.5a24.5 24.5 0 0 0 2.9 3.8v2.2l-2.4-2.8c-.6-.5-.9.3-.8.6a32.5 32.5 0 0 0 3.1 3.8v1.3l-2 2c-.6.5.3 1 .6 1 .6-.3 1-1 1.4-1.3v4.4a3.7 3.7 0 0 0-2.5 1.4l-3.7-2.5 1.5-.4a.6.6 0 0 0 .1-1.1l-2.8.6-1-.7-.6-5.2c-.3-.9-.9-.2-.9-.2-.1.2-.2.3.3 4.4l-1.6-1.4-.2-5c-.2-1-.8-.3-.8-.3-.1.2-.2.3 0 4.4L34.4 50c-.7-.4-.8.6-.8.7a10.5 10.5 0 0 0 2.5 2.5l-3.5.6c-.7.3-.4.9-.1 1.1l4.7-.7 1.5 1.3-3.5.7a.6.6 0 0 0-.2 1.1c.1 0 .2.1 5-.8l1 .7c0 .9.2 2 .4 2.9.4.9 1 .3 1 0 .2-.5-.1-1.3-.2-2 1 .9 2.6 1.9 3.7 2.6a4 4 0 0 0 0 2.8l-4.2 2.3.4-1.7c.1-.9-.6-.8-.8-.7s-.2.2-1 3.1l-1 .6c-1.5-.5-3.3-1.3-4.7-2-.8 0-.8.7-.6 1 0 .1.2.3 3.9 1.7l-1.8 1-4.6-2c-.7-.1-.7.6-.5 1 0 0 .2.2 3.8 1.7L32 71c-.6.7.3 1.1.4 1.1 1-.1 2.1-1 3-1.5l-.7 3.7c0 .7.7.8.9.6l1.1-5 1.8-1-.8 3.8c0 .8.6.8.8.7s.1 0 1.4-5.2l1.1-.5 2.6 1a.6.6 0 0 0 .6-1c-.3-.5-1.3-.6-1.8-.8l4-2.3a3.8 3.8 0 0 0 2.2 1.5v5l-1.2-1.2a.6.6 0 0 0-1 .4c0 .3 0 .3 2.2 2.4V74L45 77c-.4.8.6.9.7.8l2.9-2.5v2l-3.4 3c-.4.7.6.8.7.7a17 17 0 0 0 2.7-2.3v3.1a.6.6 0 0 0 1 .3 1.3 1.3 0 0 0 .2-.3v-3.1l2.6 2.3c.8.4 1-.3 1-.6-.9-1.2-2.6-2.2-3.6-3.1v-2l2.7 2.5c.7.4 1-.2 1-.5l-3.7-3.6v-1.2l2-2c.5-.7-.3-1-.6-1s-1 1-1.5 1.3V66.1a3.7 3.7 0 0 0 2.5-1.1l4 2.3-1.5.6c-.8.3-.4 1 0 1.1l3-1 1.2.7 1.2 4.9c.4.8 1 0 1 0s.2-.3-.8-4.1l2 1 1 4.7c.3.7 1 0 1-.1s.1-.3-.7-4l3.1 1.5a.7.7 0 0 0 .8-1l-3.3-1.5 3.8-1.6c.7-.5.3-1 0-1.1-1-.3-2 .7-3 1-.6.4-1.5.7-2.2 1l-2-1 3.8-1.5c.8-.5.4-1 0-1.1l-5.3 1.9-1-.7-.7-2.8a.6.6 0 0 0-1.2 0c-.1.6.3 1.4.5 2a218 218 0 0 1-4-2.2 4 4 0 0 0 .2-3l3.7-2.5-.3 1.7c0 .9.7.8 1 .6s.1-.2.6-3.2l1-.7 5 1a.6.6 0 0 0 .4-1l-4-1 1.6-1.2 4.8.7a.5.5 0 0 0 .6-.5M67.3 33.5c.3.4.8 1.3.3 1.5-1 .2-2.8-2-2.5-2.5.2-.4 1.4.1 2.2 1m-.4-4.4c-.3-.2-.3-.2-1.6-.3l-.8-1a1.9 1.9 0 0 0-.7-.3l.8 1-2.4-1.5a1.7 1.7 0 0 0-.5-.2c.8 1 2.2 1.4 3.2 2.1l.4.6-2.2-1.6a1.5 1.5 0 0 0-.5-.2c.6 1.3 2 1.5 3 2.3l.2.4-1-.1v.1c.3.4.3.4 1.2.5l.3 1.4a3 3 0 0 0-1.4-.6l-2.3-2 .9.4h.2c-.2-.3-.2-.3-2-1.1l-.7-.6-1.5-1.5a1.9 1.9 0 0 0-.6-.3l1.2 1.2-1.3-.8c-.5-.2-1.1-1-1.7-1.4a3 3 0 0 0-.6-.2l1.4 1a31.3 31.3 0 0 0-2.6-1.3l.2.2c.8.4 1.6.7 2.3 1.2l-2-.8c0 .2 0 .2 2.9 1.4l1.2.8L58 27h-.1c0 .2 0 .2 3 1.6l.7.5.5 1a1 1 0 0 0 .5.4h.1l-.3-.6 2.2 2c-.2.2-.2.3 0 .9l-2.1-.9.2-.3a.7.7 0 0 0-.5-.6l-.5.6-.6-.2-2.4-2.3-.3-.1 2 2-1-.4-2.3-2.1-.3-.2 1.9 2-1.6-.7h-.2c0 .3 0 .3 2 1.2l-1 .7c0 .3.2.6.5.6l1.2-1 1 .5-.9.8a.5.5 0 0 0 .4.5c.4-.3.9-.6 1.2-1l.6.3 1.3 1.3a.6.6 0 0 0 .3.2h.1c0-.3 0-.3-1-1.2l2.2.9a6.4 6.4 0 0 0 1.2 1.3l-.5 1.7-.4-1c-.3-.4-.5-.3-.6-.3l.8 1.9-.2.4c-.8 0-1.8-.2-2.5-.4h-.2c-.3.6-.2.6 2.4 1l-.5.9-2.7-.5c-.5 0-.2.5 0 .7s0 0 2.3.4L62.8 41a.5.5 0 0 0 .4.7 16.5 16.5 0 0 0 1.2-1.6l.5 2.6c.2.6.6.5.7.3a26.9 26.9 0 0 0-.7-3.5l.5-.9.7 2.5c.2.6.5.5.6.3a24.6 24.6 0 0 0-1-3.4l.2-.5 1.3.2h.2c.1-.6-.4-.7-1.2-.8l.5-1.7a2.7 2.7 0 0 0 1.2.5l2 2.8-.9-.5a.6.6 0 0 0-.2 0c-.2.3-.2.3 1.7 1.6l.5.8-.2 2.8c0 .5.4.6.5.5a11.8 11.8 0 0 0 .3-2.3l.8 1.5-.5 2.9c0 .6.5.7.6.5a6.3 6.3 0 0 0 .4-2.4l1.2 2.6c.1.4.2.4.4.3s.1-.1 0-.3l-1.1-2.7 2 1.5a.4.4 0 0 0 .2 0c.3-.4.3-.4-2.8-2.6l-.8-1.5 2 1.5a.5.5 0 0 0 .2 0c.3-.4.3-.4-2.9-2.6l-.5-.8V38c-.1-.3-.3-.6-.6-.5a3.3 3.3 0 0 0 0 1l-2-2.8c.3-.3.3-.4.2-.9l2.1.9-.2.4a.7.7 0 0 0 .5.6l.5-.8.6.3 2.6 2.7c.1.2.1.2.3.2.1-.2.2-.3-2.2-2.6l1 .3 2.6 2.8c.1.2.1.2.3.2 0-.3 0-.4-2.2-2.7l1.6.7c0-.5 0-.5-2-1.3l.2-1.1a1 1 0 0 0-.5-.6l-.3 1.4-1-.3.2-1.1a1 1 0 0 0-.5-.6l-.4 1.4-.6-.3-1.5-1.4a.6.6 0 0 0-.3-.2v.1c0 .2 0 .2 1.1 1.2l-2.1-.8c-.3-.6-1-.9-1.3-1.5a7.7 7.7 0 0 1-.3-1.4l.8.8a1 1 0 0 0 .4.3v-.1a11.1 11.1 0 0 0-1.4-1.5l-.2-.4 1.6.1c0-.5-.2-.5-1.8-.6l-.4-.7 1.4.1-.1-.2M85.3 54a4 4 0 0 1 0 2.2c-.5.4-1-1.7-1-3 0-.7.3-1 .5-.7a3.5 3.5 0 0 1 .5 1.5m.2-4.3-.4-1.5c.1.4.5 1.7.8 3.6a2.5 2.5 0 0 1 0 .2l-.4-1c-.1.3 0 .4.3 1.4a3 3 0 0 1-.4 1l-1-4.9.3 1v.1c.2-.2.2-.2-.6-2.3l-.3-.9-.2-1.8a2.7 2.7 0 0 0-.3-.7l.1 1.4-.5-1.5-.4-1.8a3.7 3.7 0 0 0-.3-.6l.3 1.3-1.2-2.4a2.8 2.8 0 0 0-.3-.4c0 1 .8 1.7 1.2 2.6l-1.5-2.2-.1-.1c-.6 1.8 1.4 2.2 2 3.4l.6 1.5-1.4-2.4v-.1l-.1.2c.5 1.2 1.3 2.2 1.8 3.4l.3.9-.1 1c0 .6.2.7.3.8v-.7c.3 1 .5 2.3.6 3.3h-.1c-.3 0-.3 0-.4.3L83 49.5h.4c0-.1.1-.3-.2-.8h-.8L82 48c-.4-1.1-.8-2.6-1.3-3.6a.8.8 0 0 0-.2-.4l-.2.1 1.1 3-.9-1.1-1.4-3.5a.8.8 0 0 0-.3-.4c0 1.2.7 2 1 3l-1.5-1.8-.2-.1h-.1c0 .2 0 .2 1.8 2.5h-1.5c0 .7 0 .7 2.1.8l1 1.2h-1.4c-.3.2 0 .6 0 .8h1.9l.4.8.5 2a.7.7 0 0 0 .2.4l.1-.1a6.6 6.6 0 0 0-.2-1.6l1.2 2.4a9.6 9.6 0 0 0 0 2 12 12 0 0 1-1 .9v-1.1a.8.8 0 0 0 0-.6h-.2a14.9 14.9 0 0 0-.3 2l-.5.2c-.5-.6-1.2-1.5-1.8-2l-.1-.1c-.4.3-.4.3 1.4 2.4l-.8.4-2-2.1h-.2c-.5.2-.5.2 1.5 2.4l-1.6.6a.6.6 0 0 0 0 .9 16.8 16.8 0 0 0 1.8-.7l-1 2.7a.7.7 0 0 0 0 .6h.2a26.8 26.8 0 0 0 1.3-3.6l.9-.4-.8 2.7a.7.7 0 0 0 0 .6h.2a25.1 25.1 0 0 0 1.1-3.6l.4-.2.8 1.1h.2c.2-.4.2-.4-.5-1.5a10.5 10.5 0 0 0 1.1-.8 9.6 9.6 0 0 1 .3 5l-.1-1.1v-.2H84c-.1.4-.1.4.2 2.6l-.2 1-1.5 2c-.3.5-.1.7 0 .8.4-.5 1-1 1.3-1.6l-.4 1.7-1.8 2c-.3.5-.1.7 0 .8l1.4-1.6c-.3.9-.6 2-1 2.8a.8.8 0 0 0 0 .5h.1l1.1-3c0 .7 0 1.8-.2 2.6v.1c.2 0 .5-.2.6-4L84 64V66.8h.2a18.5 18.5 0 0 0 .1-4l.2-1 .6-1a1.3 1.3 0 0 0 0-.8l-.4.6.3-3.5c.2 0 .2 0 .4-.4l.5 2.5h-.2a1.4 1.4 0 0 0 0 1h.3v.6c0 1.2-.3 2.9-.5 4v.4a24.6 24.6 0 0 0 .6-3.5V63a74 74 0 0 1-.8 3.9v.3l.7-3.4-.2 1.2v-.3l.2-.9v-.6l.2-.9v-1.2h.1v-1h-.1V57c-.2.1-.2.1-.1 1.7l-.6-2.7a9.3 9.3 0 0 0 0-1.8 3.5 3.5 0 0 0 .4-1v1.1a2.6 2.6 0 0 0 .1.7 7.8 7.8 0 0 0-.1-2.1v-.3l.2 1-.2-1v-.3a1 1 0 0 0 0-.2l-.2-1a2.3 2.3 0 0 1 0 .3l-.3-1.7M14.8 53.4c-.2.8-.4 1.3-.5 1.2-.2-.9.4-4 .7-3.8a6.7 6.7 0 0 1-.2 2.6m0-3.6.2-.7-.2 1v-.4m4.7 7.5a.6.6 0 0 0-.1-.6L18 56l-.1-.1 1.4-1.6a.7.7 0 0 0 0-.8 9.5 9.5 0 0 0-2 2l-.6-.5 1.3-1.5a.8.8 0 0 0 0-.8 11.4 11.4 0 0 0-1.8 2l-.3-.3V52.5h-.2V54a5.3 5.3 0 0 1-.8-1 10 10 0 0 1 1.4-4.3l-.3 1.2a2.3 2.3 0 0 0 0 .3h.2l.6-2.3.4-.7h1.3a.8.8 0 0 0 .4-.8h-1.2l.8-1.1h1.5a.7.7 0 0 0 .4-.8h-1.3l1.6-1.8a1 1 0 0 0 .2-.6H21L19.3 44l1.2-2.7a2.2 2.2 0 0 0 .1-.4c-.1 0-.4 0-2 3.9l-.8 1.1 1.1-2.8a1.4 1.4 0 0 0 .1-.3 14 14 0 0 0-1.8 4l-.4.6-.4-.1a1.2 1.2 0 0 0-.3.8h.3l-1.1 2.4a9.2 9.2 0 0 1 .6-3.9v.6c.2-.3.2-.3.4-1.7l.3-.9a58 58 0 0 1 1.7-3 3.6 3.6 0 0 0 .2-.5 15.4 15.4 0 0 0-1.4 2.4l.6-1.5 1.9-2.8a2.2 2.2 0 0 0 .3-.6l-1.6 2.4 1.3-2.4.1-.1a33 33 0 0 0-1.6 2.7l.6-1.2-.4.8-.1.1-.6 1.3-.7 1.5.6-1.4-.4.9-.6 1.6-.3.9-.7 1.7a5 5 0 0 0-.2.6l.5-1.2L15 50a6.1 6.1 0 0 0-.5 1.5 2.4 2.4 0 0 1 .1-.7l-.2 1a2.9 2.9 0 0 0 0 .5l-.6 4.6.1-1.3v-.1 3-1c0-.8 0-1.8.2-2.5l.2 4.2-.2-.7c-.1.4-.1.4.3 1.9l.1 1c0 1 0 2.4.2 3.5a2.7 2.7 0 0 0 .1.6 12.4 12.4 0 0 0-.1-2.8l.3 1.7.4 3.3a2 2 0 0 0 .2.6 10 10 0 0 0-.3-2.7l.8 2.8a1.6 1.6 0 0 0 .1.3l-.8-3.3 1 1.5h.2a17 17 0 0 0-1.5-2.7l-.3-1.7.8 1.6.2-.1-1.2-2.8-.1-1 .2-1.9a1.5 1.5 0 0 0 0-.6c-.3.3-.2.9-.3 1.3v-3.6a6.7 6.7 0 0 0 .4-1.3 5.2 5.2 0 0 0 .8 1l-.4.6a1 1 0 0 0 0 .8l.7-1.1.4.3.6 3.5.1.1h.2l-.5-3.3.6.4 1 3.5a.5.5 0 0 0 .2.3c.2-.2.2-.2-.6-3.4h.1l1.3.7h.2a1.7 1.7 0 0 0 0-.2M33.6 33.6c-.1.1-1.1 1.1-1.8 1-.7-.4.9-2.2 2-2.6.7-.2.8.1.5.7a4.2 4.2 0 0 1-.7 1m7.5-2a.5.5 0 0 0 .1-.3l-.7-.7 1.6-.8c.4-.2.4-.3.4-.4l-1.7.7 1.8-1.7a.6.6 0 0 0 .2-.3c-.1 0-.2 0-2.7 2.3l-1 .4 2-1.7.2-.3c-.2 0-.3 0-3 2.3l-.6.2-.3-.6c-.3 0-.6.4-.6.5l.2.4-2 .8c.3-.6.2-.7.2-1a18.4 18.4 0 0 1 2.3-2l-.4.6c.4 0 .4 0 1.3-1.3l.7-.5 2.6-1.2a1.8 1.8 0 0 0 .5-.3l-2.2.9 1.3-.9 2.6-1a2.1 2.1 0 0 0 .5-.2l-2.1.7 2.3-1.1.3-.2a2.2 2.2 0 0 0-.4.2l-2.3 1 1.4-.9c-.5 0-2.3 1.4-2.4 1.5l-1.4.8 1.4-1.1c-.2 0-.6-.1-2.3 1.7l-.7.5-1.5.7c-.5.2-.5.3-.5.4a5.8 5.8 0 0 0 1-.4l-2.3 2a2.5 2.5 0 0 0-1.3.4c0-.4.3-1 .4-1.4h.6a1.3 1.3 0 0 0 .6-.4h-1l.2-.4c.9-.6 2-1.5 3-2a1.5 1.5 0 0 0 .2-.2 12.6 12.6 0 0 0-2.9 1.6l.5-.6 3.1-1.9a1 1 0 0 0 .3 0 16.3 16.3 0 0 0-3 1.5l1-1c-.3 0-.7 0-1.7 1.3h-1a1.7 1.7 0 0 0-.7.4h1.3l-.4.6H33a1.3 1.3 0 0 0-.7.5h1.5l-.2.4-1.4 1.3a1 1 0 0 0-.2.2h.1c.2 0 .2 0 1.3-1l-.5 1.5c-.5.4-.8 1-1.3 1.2a13.3 13.3 0 0 1-2.2.9l.9-.8a1.2 1.2 0 0 0 .3-.3V33c-.2 0-.2 0-2 1.5l-.5.2a12.8 12.8 0 0 1-.2-1.4c-.4 0-.8.2-.5 1.7l-1 .3a13.5 13.5 0 0 1 0-1.4c-.2 0-.7 0-.6 1.6l-1.4.6s-.5.3-.5.6l1.5-.5-2 2-.2.5c1.9.1 2-1.9 3-2.8l.9-.3-2.1 2c-.3.3-.3.3-.3.5s0 0 3-2.8l.6-.2.3.8s.8.1.4-1l2.2-.8c-.2.6-.2.7 0 1a41 41 0 0 0-2.2 2.7V37c-.5-.2-.6.1-.8 1.9l-.5.8-2.7 1.7a.7.7 0 0 0-.3.7h.1l2.2-1.4-.9 1.4-2.5 1.9c-.2.1-.5.5-.2.7a21.2 21.2 0 0 0 2.2-1.5c-.5.8-1 1.7-1.3 2.6v.5l.4-.3 1.3-2.6.2 2.3c.1.4.5 0 .5 0 .7-1.2-.1-2.3-.1-3.4l.8-1.4V43c.1.4.5 0 .5 0 .7-1 0-2.2.1-3.3l.5-.8 1.6-.9.3-.6-1.1.5a46 46 0 0 1 2-2.7 1.9 1.9 0 0 0 1.3-.3c0 .5.1 1.2.3 1.7l-.8.1a.7.7 0 0 0-.4.6v.1l1.3-.2.2.5L32 41c0 .4.2.3.4.2.9-.7.7-1.9 1-2.8l.5.8-1 3.4c0 .4.3.3.4.2l.9-3 .9 1.6c.4.3.6-.4.6-.5a11.6 11.6 0 0 0-1-1.6l2-.3c.6-.1.5-.7.3-.7a8.6 8.6 0 0 0-2.6.4l-.4-.9 1.9-.3a.6.6 0 0 0 .4-.6l-2.5.3-.2-.5.9-1.6a.8.8 0 0 0 0-.2h-.1c-.3 0-.3 0-1 1.2l-.3-1.6c.5-.5.8-1.1 1.4-1.5a12.7 12.7 0 0 1 2-.8l-.8.8-.2.4h.1l1.7-1.5.6-.3 1 1c.3 0 .5-.4.5-.5l-.7-.8 1-.4 1 1a.4.4 0 0 0 .3-.2M74.7 82.1a4.3 4.3 0 0 1-1.7 1.6c-.8.2-.5-.6-.3-1 .7-1.2 2.2-2.2 2.4-1.6a1.6 1.6 0 0 1-.4 1m6.8-6.1.2-.3a3 3 0 0 0-.6 0l1.3-1.9c.4-.6.2-.5.2-.6a14.4 14.4 0 0 0-1.4 2l1.2-2.8V72c-1.6.8-1.2 2.6-1.8 4l-1 1 1.4-2.7v-.4c-1.4.8-1.4 2.5-2 3.8l-.6.5h-.7c-.2.1-.6.5-.4.7h.4l-2 1.9c0-.5-.2-.6-.5-.6l1-2.6.3.5h.1c.6-.3.6-.3 0-1.6l.3-.8 2.2-3a.7.7 0 0 0 .1-.6c-1.2.5-1.4 1.7-2 2.6l.3-1.6 2-3.1c.3-.5.1-.6 0-.7-1 .6-1.2 1.8-1.8 2.7l.4-2.7-.1-.4h-.2a.8.8 0 0 0-.2.4l-.4 2.8-1.1-1.5c-.4-.3-.6.4-.6.6.2.9 1 1.4 1.5 2l-.4 1.6-1-1.5c-.4-.2-.6.4-.6.6.2.8.9 1.3 1.3 2l-.3.8-1.3 1.5c-.3.3-.2.4-.2.5.2 0 .2 0 1.2-1l-1.1 2.6a5 5 0 0 0-1.5 1.1l-1.3-.7.9-.5a.6.6 0 0 0 .3-.6l-1.8.8-.4-.3.1-2.9c-.1-.5-.6 0-.6.1-.5.9 0 1.7-.1 2.5l-1-.4v-3c-.3-.5-.7 0-.8 0-.4 1 0 1.8.1 2.6l-1.8-.8c-.6-.1-.8.5-.6.6a8.8 8.8 0 0 0 1.9.9l-2.6 1c-.5.3-.4.6-.2.6l3.5-1.3 1 .5-2.5 1c-.5.2-.4.5-.2.6s2.7-1 3.3-1.3l.4.2-.2 1.4v.1c.4.2.6-.3.8-1.2l1.3.7a8.1 8.1 0 0 1-3.3 3.1l.6-.8a.6.6 0 0 0 0-.3h.1c-.3 0-.3 0-1.5 1.7l-.8.4-2.2-.1a.6.6 0 0 0-.5.5l1.8.2-1.3.6-2.3-.1a.5.5 0 0 0-.5.4l2 .2-2.2 1a.5.5 0 0 0-.3.3v.1l2.4-1-1.6 1.5V90c.2 0 .5 0 2.5-2.3l1.3-.7-1.6 1.7a.6.6 0 0 0-.1.2c.2 0 .4 0 2.6-2.4l.7-.4h1a.7.7 0 0 0 .6-.5h-.7l2.6-1.7c0 .4.1.4.4.4a25.7 25.7 0 0 1-1.7 2.3v-.4c-.6-.1-.6.7-.6 1l-.5.6-2.8 1.8a1 1 0 0 0-.3.2c.1 0 .3 0 2.4-1.4l-1 .9-2.7 1.5a1.2 1.2 0 0 0-.3.2 12.3 12.3 0 0 0 2.3-1.2 19.9 19.9 0 0 1-1.7 1.2l-.2.1a.8.8 0 0 0 .4-.1 22 22 0 0 0 1.9-1.3 7 7 0 0 1-.6.7c.2 0 .7-.2 1.3-1.2l1-.9a7.8 7.8 0 0 1-.4.8c.2 0 .7-.2 1-1.4l.6-.6 1.4-1a1.4 1.4 0 0 0 .3-.4H72l-1 .8a25 25 0 0 0 1.7-2.3 4.7 4.7 0 0 0 1.3-.8 7.5 7.5 0 0 1 .5.6l-.7.4a1.4 1.4 0 0 0-.4.5c.4 0 .8-.5 1.2-.7v.2l-1.9 2v.2a12.8 12.8 0 0 0 2-2v.2c-.7.7-1.5 1.5-2.2 2v.2a24.4 24.4 0 0 0 2-2 3.8 3.8 0 0 1-.2.4 2.4 2.4 0 0 0 .9-1l1.2-1a6 6 0 0 0 .5-.6l-1.7 1.4V84l1.4-1.1a3.7 3.7 0 0 0 .5-.5l-1.9 1.4v-.2l.8-1.3c-.3 0-.4 0-1 1.1l-.5-.6 1-1.5c.4-.5 1.5-1.3 2.1-1.9l-.6 1a1.8 1.8 0 0 0-.1.2v.1c.2-.1.2-.1 1.4-2l.6-.6h1a1.4 1.4 0 0 0 .4-.6h-.7l.9-1h.8a1.1 1.1 0 0 0 .2-.4M26.2 82.3c.3.6.2 1-.2.8-1.3-.5-2.6-2.6-2-2.7s1.6.9 2.1 2M33 81c0-.3 0-.3-2.8-1.5l1.6-.8c.4-.4-.3-.7-.4-.7a6.6 6.6 0 0 0-1.7.8v-2.3c0-.5-.4-.6-.6-.5a19.7 19.7 0 0 0 0 3.2l-.8.4-.1-2.3c-.1-.3-.4-.5-.6-.5a19.8 19.8 0 0 0 .2 3.1l-.4.2-1.5-.8h-.2c0 .4 0 .4 1.2 1.1l-1.1.7a6 6 0 0 0-1.5-1.3l-1.1-2.6.7.9.4.2c0-.3 0-.3-1.5-2.1l-.3-.9 1.1-1.8a.6.6 0 0 0-.4-.7l-1 1.5-.3-1.6 1.2-2a.6.6 0 0 0-.4-.7c-.3.4-.8 1-1 1.6l-.5-2.8c0-.2-.1-.4-.3-.5s-.2 0-.2.3l.4 2.8-1.5-2.6-.3-.2c-.2.3-.2.4 2 3.9l.4 1.5-1.7-2.4c0-.2 0-.2-.2-.2-.1.3-.2.4 2.2 3.7l.3.8-.4 1a.8.8 0 0 0 .5.6l.2-.5 1.2 2.6c-.4 0-.5 0-.5.4l-2-2h.3c.2-.7-.5-.7-1-.7l-.6-.6-1.7-3.5a1.2 1.2 0 0 0-.2-.4c0 .5 1.3 3 1.3 3l-.8-1-1.6-3.6a2.2 2.2 0 0 0-.1-.4c-.2.3.6 2.1 1.1 3.2l-1.1-2a8.7 8.7 0 0 0 1.3 2.5h-.4c.2.7.2.7 1 .8l.7 1.1h-.6c.2.7.3.7 1.2.8l.6.6 1 1.7a1.5 1.5 0 0 0 .3.3l.1-.1-.8-1.2 2 2a5.7 5.7 0 0 0 1 1.5 3.6 3.6 0 0 0-.4.6l-.6-.8-.4-.5a8.5 8.5 0 0 0 .9 1.5v.1l-1.6-1.5a11.6 11.6 0 0 0 1.6 1.7l.1.3-1.2-1.3.7.8.6.6.2.2.5.6-.1-.2 1 1 .9.8c-.6-.6-1.5-1.3-2-2l-.2-.2 1.6 1.7.5.4-2-2.3v-.1l1 .8c0-.3 0-.3-1-1a5.8 5.8 0 0 1 .4-.6 6.6 6.6 0 0 0 1.2 1 26 26 0 0 0 1.9 2.3l-.9-.7a1 1 0 0 0-.2-.1c0 .2 0 .2 1.7 1.5l.6.6a9.8 9.8 0 0 0 .7 1 3.4 3.4 0 0 0 .5.3l-.5-.7 1 .9a9.1 9.1 0 0 0 1 .9 5.5 5.5 0 0 0 .5.3 8.4 8.4 0 0 1-.7-.6l2 1.2a3.5 3.5 0 0 0 .4.2h-.2l-1.9-1.3 2.2 1.2.2.1c-.9-1-2.1-1.2-3.1-1.9q-.6-.4-1-.9l2.1 1.4a1.2 1.2 0 0 0 .2.1c-.4-1.2-1.9-1.4-2.9-2.1l-.6-.6v-.6a1 1 0 0 0-.6-.5v.4a28.5 28.5 0 0 1-1.8-2.3c.3.1.4 0 .5-.1l2.4 1.6H29v.1c.3.4.3.4 1.4.4l.7.4 2.2 2.3a.8.8 0 0 0 .5.2c-.2-1-1.2-1.3-1.8-2l1.1.8c.7.6 1.5 1.5 2.2 2a.7.7 0 0 0 .4.3c-.1-1-1.1-1.2-1.7-1.8l2 1a.6.6 0 0 0 .2 0c0-.2 0-.2-2.3-1.4l1.5-.1.1-.1c-.1-.4-.1-.4-2.5-.3l-1.2-.7 1.5-.1V86c0-.4 0-.4-2.4-.4l-.7-.4-1-1.3a.8.8 0 0 0-.4-.3h-.1c0 .2 0 .2.7 1.1L27 83.2a4.7 4.7 0 0 0-.8-1.5l1.1-.7.3.8s.2.6.6.5a7.6 7.6 0 0 0-.4-1.6l.4-.2 2.9 1.4a.5.5 0 0 0 .2 0c.2-.4.2-.4-2.6-1.7l.9-.4c.9.4 2 1 3 1.3 0 0 .3 0 .3-.2M50.9 94.2s-.2.2-.8.2-1-.2-.8-.4 1.6-.2 1.6.1m3.5.3-1.2.1 1.1-.1m3.4-1.6-1.4-.2 1.8-.7c.3 0 .3-.1.3-.2l-2.1.6 1.1-1.1a.3.3 0 0 0 0-.2c-.2 0-.2 0-2 1.6l-1 .3 1-1c0-.3 0-.3-1.6 1.2l-.6.2-1-.1-.3.1a1.7 1.7 0 0 0 .7.2l-1.5.4a1.7 1.7 0 0 0-.9-.3v-.9l.5.3.5-.1c-.2-.3-.7-.5-1-.6v-.4l2-1.1a.4.4 0 0 0 0-.2c-.1-.3-.1-.3-2 .9v-.8l2-1.3c.4-.3 0-.4 0-.4-.2 0-.2 0-2 1.2v-1.5c0-.1-.1-.3-.4-.2l-.2.1v1.6L48 89c-.4-.2-.6 0-.6.1l2.2 1.5v.8l-1.5-1c-.3-.2-.5 0-.5.1a13.5 13.5 0 0 0 2 1.3v.3l-.8.5h-.1c.1.4.3.3 1 0v.9a1.9 1.9 0 0 0-1 .2l-1.5-.5h.6v-.1h-1.3l-.2-.2-1.2-1.3c-.3-.2-.4-.2-.5 0a10 10 0 0 0 1 1.1l-1-.3-1.4-1.4c0-.1-.3-.3-.5-.1a7.9 7.9 0 0 0 1.3 1.2l-1.8-.6a.3.3 0 0 0-.3 0c0 .2 0 .2 2 .9h-1.3v.1c.2.3.2.3 2 .1l1 .3-1.3.1c.1.2.1.2 2 0l.5.2.5.5a.5.5 0 0 0 .3 0l-.3-.3 1.6.4.1.3-1 .2a.4.4 0 0 0-.3-.2l.1.3h-.2l-1.4-.2H46a4.8 4.8 0 0 0 1.4.2h-.2l-1.4-.1h.9l1 .1h.3-.1H48.8a2 2 0 0 0-.5 0l1-.2a2.4 2.4 0 0 0 .6.1v.2h.3a.6.6 0 0 0 0-.2 8.9 8.9 0 0 1 1.6 0h-.5H52.9h-.2H54 52.3v-.1c-.1-.1-.2 0-.3.1l-1-.1c.3-.1.3-.2.3-.3l1.5-.4-.3.2v.2l.9-.5.5-.2 1.7.2a.7.7 0 0 0 .4-.2h-.1l-1.3-.2 1-.3 1.7.1a.7.7 0 0 0 .4 0M50.5 24.8c0 .4 0 .7-.3.7-.4 0-.1-1.4 0-1.5s.2.6.3.8m3.3 2-.3-.2-.6.6-.6-.4.5-.4a.5.5 0 0 0-.3-.4l-.6.6-.3-.3-.4-1H51c-.2 0 0 0 .3.7l-.7-.7-.1-1.5.1.4.2.2a2.6 2.6 0 0 0-.4-.8v-.1l.3.3-.5-.4a2.3 2.3 0 0 0 .1.2 2.5 2.5 0 0 1 0 .5 2.8 2.8 0 0 0 0-.4v-.3.3l-.2.4a2.2 2.2 0 0 1 0-.6l.1-.1-.3.3a1.8 1.8 0 0 0 .3-.3l-.1.1-.4.7v.1h.1l.2-.5a4 4 0 0 0 0 .6c-.2 1-.2 1-.8 1.5l.2-.5a.8.8 0 0 0 0-.2 5.4 5.4 0 0 0-.5 1l-.3.2-.5-.5c-.5 0-.4.3.1.8l-.6.4a7.7 7.7 0 0 1-.5-.6c-.2 0-.4.3-.4.4l.5.5-1.2.7c0 .1-.3.3-.2.5l1.3-.8-1.1 1.7v.3l1.6-2.3.6-.4-1 1.6c0 .3 0 .4.1.3l1.3-2.2.2-.2.4.3c.2 0 .2-.4.2-.4a.8.8 0 0 0-.2-.2l.7-.8a.6.6 0 0 0 .3.4v1.9l-.3-.5c-.3.1-.3.1.2 1.2v.6l-1.2 1.7c-.2.3 0 .5 0 .5a9.9 9.9 0 0 0 1.1-1.5V31l-1.4 1.9c-.2.2 0 .5.1.5a10.2 10.2 0 0 0 1.3-1.6v2c0 .4.2.4.4.3a.4.4 0 0 0 0-.2v-2l1.1 1.5c.2.2.4 0 .4-.2 0-1-1-1.4-1.5-2.1v-1.2l1 1.4c.2.2.3 0 .3-.2 0-1-.9-1.3-1.3-2v-.5l.5-.9c0-.1 0-.3-.2-.4s-.2.4-.3.6V26c.1 0 .2-.1.3-.4l.8.8-.3.2a.3.3 0 0 0 .2.4l.4-.3.3.2.9 2.1c.2.3.3 0 .3 0l-1-1.8.7.5 1.3 2.1c.2.4.3.1.3.1l-1.2-2 1.3.8c.2-.2.2-.2-1.3-1.2l.5-.5a.2.2 0 0 0 0-.2" class="cls-5"/><path d="M50.5 5.7a6 6 0 0 0-6 6v3.2H47v-3.2a3.6 3.6 0 1 1 7.3 0v3.2h2.3v-3.2a6 6 0 0 0-6-6Z" class="cls-6"/><path fill="#353232" d="M44.5 14H56a6 6 0 0 1 6 6v3.7H38.5v-3.8a6 6 0 0 1 6-6Z"/><path fill="#f4c237" d="M44.5 14H56a6 6 0 0 1 6 6v3.7H38.5v-3.8a6 6 0 0 1 6-6Z"/><path d="M55.5 23.6h6.3v-5.8A3.9 3.9 0 0 0 58 14h-3.4a18 18 0 0 1 .9 9.7Z" class="cls-6"/></symbol><style>.cls-5{fill:#aae3f9}.cls-6{fill:#f2ab38}</style></defs><g id="Слой_2" data-name="Слой 2"><use xlink:href="#toy_4" id="Слой_15" width="100" height="100" data-name="Слой 15"/></g></svg>