<svg xmlns="http://www.w3.org/2000/svg" viewBox="0 0 300 300">
  <path d="M81.5,191l9,56,68,24-1-57Z" fill="#dcf7fa" />
  <path d="M158.5,271l54-29,5-54-60,26Z" fill="#a8e3eb" />
  <path d="M158.5,197l-1,17-78-23-2-18Z" fill="#c5edf2" />
  <path d="M157.5,197v17l65-28,2-17Z" fill="#b3e6ed" />
  <path d="M77.5,173l80-23,67,19-67,28Z" fill="#dcf9fc" />
  <path d="M115.5,256l-8-74,14,4,2,73Z" fill="#fc251c" />
  <path d="M177.5,156l-70,26,14,4,69-26Z" fill="#fc251c" />
  <path d="M182.5,187l-74-23,14-4,74,21Z" fill="#fc251c" />
  <path d="M183.5,257l-1-70,14-6-5,72Z" fill="#fc251c" />
  <path
    d="M150.63,167.86l2.21,5.08s33.44-4,33.46-19c0-11.33-15.64-18.75-19.5-15.8C161.63,142.11,158.49,156.58,150.63,167.86Z"
    fill="#ff3e3e" />
  <path d="M154.13,171.23s26.35-6.42,29-13.62-6-9.66-9.16-6.41S161.46,168.86,154.13,171.23Z"
    fill="#cc1515" />
  <path
    d="M143.47,167.86s4.57-3.8,8.3-1.69,4.58,5.66,3.24,7.08c-1.74,1.84-8.15,1.26-10.15-.31C143.83,172.13,143.47,167.86,143.47,167.86Z"
    fill="#cc1515" />
  <path
    d="M146.48,173.49l-1-5.63s-14.84-29.09-21.5-27.92-17.7,15.25-13.34,22.23S124.85,177.43,146.48,173.49Z"
    fill="#ff3e3e" />
  <path
    d="M144.86,172.94s-13.46-11.64-19.19-17.73c-6.54-6.94-15.55,0-12.2,6.56C115.78,166.29,122.59,174.13,144.86,172.94Z"
    fill="#cc1515" />
  <rect width="300" height="300" fill="none" />
</svg>