<svg xmlns="http://www.w3.org/2000/svg" viewBox="0 0 300 300">
  <path d="M85,153v95l65,28V177Z" fill="#bce36b" />
  <path d="M150,177l66-23v94l-66,28Z" fill="#a2cc3b" />
  <path d="M216,154v34c-1-5-4-10-11-13-12-5-52,12-55,13-14-11-55-26-65-29v-6l65,24Z" fill="#485900"
    opacity="0.1" style="isolation: isolate" />
  <path d="M82,153l68,24V146L82,124Z" fill="#b0d654" />
  <path d="M150,146l69-21v29l-69,23Z" fill="#8daf22" />
  <path d="M104,131l-1,125,16,7-3-128Zm76,6,1,126,15-7-3-123Z" fill="#f9241b" />
  <path d="M82,124l68-17,69,18-69,21Z" fill="#bce36b" />
  <path d="M116,135l73-18-14-3-71,17Z" fill="#ff532f" />
  <path d="M180,137l-63-22,12-3,64,21Z" fill="#ff532f" />
  <path
    d="M152.66,118.86l2.21,5.08s33.45-4,33.46-19c0-11.33-15.64-18.75-19.5-15.8C163.66,93.11,160.53,107.58,152.66,118.86Z"
    fill="#ff3e3e" />
  <path d="M156.16,122.23s26.35-6.42,29-13.62-6-9.66-9.16-6.41S163.49,119.86,156.16,122.23Z"
    fill="#cc1515" />
  <path
    d="M145.5,118.86s4.57-3.8,8.3-1.69,4.58,5.66,3.24,7.08c-1.74,1.84-8.15,1.26-10.15-.31C145.86,123.13,145.5,118.86,145.5,118.86Z"
    fill="#cc1515" />
  <path
    d="M148.51,124.49l-1-5.63S132.66,89.77,126,90.94s-17.7,15.25-13.34,22.23S126.88,128.43,148.51,124.49Z"
    fill="#ff3e3e" />
  <path
    d="M146.89,123.94s-13.46-11.64-19.19-17.73c-6.54-6.94-15.55,0-12.2,6.56C117.81,117.29,124.62,125.13,146.89,123.94Z"
    fill="#cc1515" />
  <rect width="300" height="300" fill="none" />
</svg>