<svg xmlns="http://www.w3.org/2000/svg" viewBox="0 0 300 300">
  <path d="M0,0H300V300H0Z" fill="none" />
  <path d="M79,104,78,235l68,35V129Z" fill="#df48ff" />
  <path d="M145,128l70-21-4,131-65,32Z" fill="#ca44ea" />
  <path d="M215,107l-1,41c-2-5-4-17-11-20-13-5-54,13-57,14-14-11-56-27-68-31v-5l68,24Z"
    fill="#485900" opacity="0.1" style="isolation: isolate" />
  <path d="M76,105l70,25V99L76,75Z" fill="#de57ff" />
  <path d="M146,99l71-22v30l-71,23Z" fill="#df48ff" />
  <path d="M99,83l1,164,10,5,1-165Zm79,6,2,164,9-4,1-164Z" fill="#f9241b" />
  <path d="M76,75l70-17,71,19L146,99Z" fill="#e888ff" />
  <path d="M111,87l76-18-15-4L99,83Z" fill="#ff532f" />
  <path d="M178,89,112,66l12-3,66,22Z" fill="#ff532f" />
  <path
    d="M149.16,70.36l2.21,5.07s33.45-4,33.46-19c0-11.33-15.64-18.75-19.5-15.8C160.16,44.6,157,59.07,149.16,70.36Z"
    fill="#ff3e3e" />
  <path d="M152.66,73.72s26.35-6.42,29-13.62-6-9.66-9.16-6.41S160,71.35,152.66,73.72Z"
    fill="#cc1515" />
  <path
    d="M142,70.36s4.57-3.81,8.3-1.69,4.58,5.65,3.24,7.07c-1.74,1.85-8.15,1.26-10.15-.31C142.36,74.62,142,70.36,142,70.36Z"
    fill="#cc1515" />
  <path d="M145,76l-1-5.62s-14.84-29.1-21.5-27.93-17.7,15.25-13.34,22.23S123.38,79.92,145,76Z"
    fill="#ff3e3e" />
  <path
    d="M143.39,75.43S129.93,63.79,124.2,57.71c-6.54-7-15.55,0-12.2,6.55C114.31,68.79,121.12,76.63,143.39,75.43Z"
    fill="#cc1515" />
  <rect width="300" height="300" fill="none" />
</svg>