<svg xmlns="http://www.w3.org/2000/svg" xmlns:xlink="http://www.w3.org/1999/xlink" viewBox="0 0 100 100">
<symbol  id="garland_blue" viewBox="-9.2 -14.7 18.4 29.5">
	<ellipse transform="matrix(0.4431 -0.8965 0.8965 0.4431 -0.2156 0.4196)" fill="#0026CC" cx="0.2" cy="0.4" rx="15.7" ry="6.3"/>
	<ellipse transform="matrix(0.4431 -0.8965 0.8965 0.4431 0.572 -1.832)" fill="#FFFFFF" opacity=".1" cx="-1.2" cy="-1.4" rx="12.9" ry="5.2"/>
	<ellipse transform="matrix(0.4431 -0.8965 0.8965 0.4431 0.9974 -4.2915)" fill="#FFFFFF" opacity=".1" cx="-3" cy="-2.9" rx="7.5" ry="3"/>
	<path fill="#DAD4D4" d="M-2.2-12.4l-6.3,3.1c-0.1,0.1-0.3,0-0.4-0.1l0,0c-0.8-1.8-0.1-3.9,1.6-4.7l0.4-0.2c1.8-0.8,3.9-0.1,4.7,1.6 l0,0C-2-12.6-2.1-12.5-2.2-12.4z"/>
	<path fill="#FFFFFF" d="M-5.2-11.6l-3,1.5c-0.1,0.1-0.2,0-0.3-0.1c0,0,0,0,0,0l0,0c-0.4-0.8-0.1-1.8,0.8-2.2l0.4-0.2 c0.8-0.4,1.8-0.1,2.2,0.8l0,0C-5.1-11.8-5.1-11.7-5.2-11.6z"/>
</symbol>
<use xlink:href="#garland_blue"  width="18.4" height="29.5" x="-9.2" y="-14.7" transform="matrix(-0.9377 0.3474 -0.3474 -0.9377 49.9021 49.9776)" style="overflow:visible;"/>
</svg>
