<svg xmlns="http://www.w3.org/2000/svg" width="100%" viewBox="0 0 100 100">
  <path fill="#92e0ff" d="M68.51,59.81l-3-1.69,1.5-.43a1.28,1.28,0,0,0-.69-2.46l-4,1.12-1-.59,4.79-1.35a1.28,1.28,0,0,0-.7-2.47L58.12,54l-1.36-.76a7.92,7.92,0,0,0,.29-1.06c.67-.26,2.26-.33,2.19-1.37S57.71,49.7,57,49.45a7,7,0,0,0-.26-1l1.34-.74,7.25,2a1.28,1.28,0,0,0,.69-2.47l-4.78-1.35,1-.59,4,1.13A1.28,1.28,0,0,0,67,44l-1.5-.43,3-1.69a1.28,1.28,0,0,0-1.25-2.23l-3,1.69.42-1.5a1.28,1.28,0,0,0-2.46-.7l-1.12,4-1,.58,1.35-4.78a1.28,1.28,0,0,0-2.46-.7l-2.05,7.25-1.33.74a6.62,6.62,0,0,0-.77-.82c.1-.78,1.22-2.72.16-3.25s-2.14,1.26-2.77,1.73a7.13,7.13,0,0,0-1-.26V42.12l5.32-5.33c1.2-1.16-.65-3-1.81-1.81l-3.51,3.51v-1.2l2.91-2.91c1.19-1.16-.65-3-1.81-1.81l-1.1,1.1V30.21a1.29,1.29,0,0,0-2.57,0v3.46l-1.1-1.1c-1.16-1.2-3,.65-1.81,1.81l2.91,2.91v1.2L45.07,35c-1.16-1.19-3,.65-1.81,1.81l5.32,5.33v1.49a8.19,8.19,0,0,0-1.06.26c-.63-.47-1.79-2.4-2.77-1.73-1.06.52.06,2.49.16,3.27a7,7,0,0,0-.75.79l-1.3-.72-2-7.25a1.28,1.28,0,0,0-2.47.69l1.36,4.79-1.05-.59-1.12-4a1.28,1.28,0,0,0-2.47.69l.43,1.51-3-1.69a1.28,1.28,0,1,0-1.24,2.23l3,1.69-1.5.43a1.28,1.28,0,0,0,.69,2.46l4-1.12,1.05.58L33.67,47.3a1.28,1.28,0,0,0,.69,2.46l7.25-2,1.31.73a9.27,9.27,0,0,0-.27,1c-.67.26-2.28.33-2.21,1.37s1.54,1.12,2.21,1.37a7.8,7.8,0,0,0,.29,1.08L41.61,54l-7.25-2a1.28,1.28,0,0,0-.69,2.47l4.78,1.35-1.05.59-4-1.13a1.28,1.28,0,0,0-.7,2.47l1.5.42-3,1.7a1.28,1.28,0,1,0,1.25,2.23l3-1.69-.42,1.5a1.28,1.28,0,0,0,2.46.7l1.13-4,1-.58-1.35,4.78a1.28,1.28,0,0,0,2.47.7l2-7.25,1.35-.75a7,7,0,0,0,.7.74c-.1.78-1.22,2.73-.16,3.26s2.14-1.26,2.77-1.73a6.59,6.59,0,0,0,1.06.27v1.56l-5.32,5.33c-1.2,1.16.65,3,1.81,1.81l3.51-3.51v1.2l-2.91,2.91c-1.19,1.16.65,3,1.81,1.81l1.1-1.1V71.5a1.29,1.29,0,0,0,2.57,0V68l1.1,1.1c1.16,1.2,3-.65,1.81-1.81l-2.91-2.91v-1.2l3.51,3.51c1.16,1.19,3-.65,1.81-1.81l-5.32-5.33V58a7.58,7.58,0,0,0,1-.25c.63.47,1.78,2.39,2.76,1.72s-.06-2.47-.16-3.25a7.56,7.56,0,0,0,.73-.77l1.37.76,2.05,7.25a1.28,1.28,0,0,0,2.47-.69L60,58l1,.59,1.12,4a1.28,1.28,0,0,0,2.47-.69l-.43-1.51,3,1.69A1.28,1.28,0,0,0,68.51,59.81Z" />
</svg>