<svg xmlns="http://www.w3.org/2000/svg" width="100%" viewBox="0 0 98.62 93.79">
  <g>
    <path
      d="M79.79,93.79l-30.48-16-30.48,16,5.83-33.94L0,35.83l34-5L49.27,0,64.59,30.87l34,5L74,59.85ZM49.31,64.36,64,72.1,61.21,55.7,73.12,44.11,56.67,41.68,49.31,26.77,42,41.68,25.5,44.11,37.41,55.7,34.6,72.1Z"
      fill="#ffa630" />
    <polygon points="18.83 93.79 34.59 72.1 37.41 55.71 24.66 59.85 18.83 93.79" fill="#ffba31"
      opacity="0.7" style="isolation: isolate" />
    <polygon points="25.5 44.11 0 35.83 34.08 30.87 41.95 41.72 25.5 44.11" fill="#ffba31"
      opacity="0.7" style="isolation: isolate" />
    <polygon points="49.31 0 49.31 26.82 56.67 41.72 64.55 30.87 49.31 0" fill="#ffba31"
      opacity="0.7" style="isolation: isolate" />
    <polygon points="73.12 44.11 98.62 35.83 73.97 59.85 61.21 55.71 73.12 44.11" fill="#ffba31"
      opacity="0.7" style="isolation: isolate" />
    <polygon points="64.03 72.1 79.79 93.79 49.31 77.77 49.31 64.37 64.03 72.1" fill="#ffba31"
      opacity="0.7" style="isolation: isolate" />
  </g>
</svg>