<svg xmlns="http://www.w3.org/2000/svg" xmlns:xlink="http://www.w3.org/1999/xlink" width="100%" viewBox="0 0 100 100">
  <g transform="scale(.8)">
    <polygon points="91.28 73.88 98.46 115.76 60.86 95.97 23.25 115.76 30.43 73.88 0 44.23 42.06 38.1 60.86 0 79.67 38.1 121.71 44.23 91.28 73.88" fill="#fbaa34"/>
    <polygon points="60.86 57.88 60.86 0.01 79.66 38.11 60.86 57.88" fill="#ffcb46"/>
    <polygon points="121.71 44.22 60.86 57.88 91.28 73.88 121.71 44.22" fill="#ffcb46"/>
    <polygon points="60.86 57.88 98.47 115.75 60.86 95.98 60.86 57.88" fill="#ffcb46"/>
    <polygon points="60.86 57.89 53.41 69.36 23.25 115.76 30.43 73.88 54.84 61.06 60.86 57.89" fill="#ffcb46"/>
    <polygon points="60.86 57.89 48.83 55.19 0 44.23 42.06 38.1 57.13 53.95 60.86 57.89" fill="#ffcb46"/>
    <polygon points="60.86 46.41 64.58 53.96 72.92 55.17 66.89 61.05 68.31 69.35 60.86 65.43 53.41 69.35 54.83 61.05 48.8 55.17 57.13 53.96 60.86 46.41" fill="#f28e26"/>
  </g>
</svg>
