<svg xmlns="http://www.w3.org/2000/svg" xmlns:xlink="http://www.w3.org/1999/xlink"  width="100%" viewBox="0 0 100 100">

      <g>
        <circle cx="49.3" cy="58.54" r="36.38" fill="#f42f2f"/>
        <path d="M49.7,22.17A29.53,29.53,0,0,1,13.83,66.69,36.39,36.39,0,1,0,49.7,22.17Z" fill="#e21b1b"/>
        <path d="M59.63,23.65A36.39,36.39,0,0,1,22.15,82.76,36.38,36.38,0,1,0,59.63,23.65Z" fill="#c61010"/>
        <g>
          <path d="M21.79,34.8a5.2,5.2,0,0,0,.47-.54l-.53.47L23,33.35c.24-.24.42-.42.49-.51s-.06,0-1,1c-.58.68-1.37,1.56-1.92,2.25l-.14.19-.51.71,0,0a14.28,14.28,0,0,0,1.23-1.6l.5-.48.16-.17" fill="#ff9797"/>
          <path d="M36.88,59.13a4,4,0,0,1-2.71-2.48l3.15-1.6c-.17,1.35-.32,2.71-.44,4.08m4.27-1.54a4.2,4.2,0,0,1-3.36,1.67c.11-1.39.24-2.76.4-4.12.91.71,2.12,1.66,3,2.35l-.08.1M33.91,55.7A5.42,5.42,0,0,1,34.62,52c.71.66,1.66,1.54,2.38,2.17L33.91,55.7M42.24,55a6.11,6.11,0,0,1-.49,1.66c-.91-.69-2.12-1.61-3-2.32L42,52.57A5.57,5.57,0,0,1,42.24,55m-4.69-1.65c-.71-.64-1.66-1.48-2.35-2.14a4.3,4.3,0,0,1,2.95-1.54c-.22,1.21-.42,2.44-.6,3.68m.86.09c.17-1.26.35-2.5.56-3.72a4,4,0,0,1,2.65,2l-3.21,1.71M55.56,43.5a.54.54,0,0,0-.45-.54l-1.88,1.42.24-2c-.12-.83-.63-.45-.63-.45a31.43,31.43,0,0,0-.53,3.12c-.59.42-1.38,1-2,1.4.2-1,.48-2.32.66-3.32-.06-.82-.6-.47-.61-.46s0,0-1,4.45c-.8.51-1.88,1.2-2.69,1.7.91-3.24,1-3.58,1.47-5.38,0-.83-.56-.49-.57-.48s0,0-2,6.51c-.94.54-2.18,1.26-3.13,1.79a4.63,4.63,0,0,0-3.29-2.52c.23-1.32.49-2.62.76-3.89,2.23-2,2.69-2.45,4.41-4.14a.54.54,0,0,0,.05-.66L44.11,40l-3.93,3.6c.25-1.1.52-2.17.8-3.21.86-.77,2-1.81,2.83-2.61.21-.33.18-.39.07-.64l-.24,0-2.33,2.1c.24-.81.48-1.61.73-2.38.55-.51,1.3-1.17,1.84-1.68a1.22,1.22,0,0,0,.17-.47l-.14-.18c-.56.17-1.07.84-1.51,1.23.25-.72.5-1.41.76-2.07l0-.26L43,33.24a1.19,1.19,0,0,0-.34.33c-.28.66-.55,1.35-.81,2.06l-.35-1.3-.2-.12c-.51.32-.57.36.16,2.52-.27.77-.54,1.56-.79,2.38-.25-.7-.59-1.62-.8-2.33l-.17-.14c-.62.26-.75.31.62,3.66-.31,1-.6,2.1-.87,3.19a24.55,24.55,0,0,1-1.65-4l-.17-.15c-.47.13-1.11.31,1.51,5.46-.29,1.28-.57,2.58-.82,3.92a5.12,5.12,0,0,0-3.72,1.92c-.7-.74-1.62-1.72-2.28-2.48a43,43,0,0,1,1-6.36v-.25l-.18-.13c-.74.3-1.28,4.24-1.48,5.91-.46-.63-1.09-1.47-1.52-2.13.29-1.26.72-3,1.09-4.19v-.26l-.18-.13c-.37.16-.55.24-1.43,3.76-.26-.5-.64-1.17-.89-1.69.3-.85.68-2,1-2.82l0-.25-.24-.12c-.32.21-.32.21-1.17,2.38l-.55-1.57-.24-.09c-.54.41-.54.41.13,2.33l-1.43.12c-.49.28-.53.51-.42.86.66,0,1.55-.1,2.21-.16.27.51.61,1.21.91,1.71-.76.09-1.77.2-2.53.27a.66.66,0,0,0-.43.82c1,0,2.43-.13,3.47-.25.46.65,1.06,1.53,1.54,2.16-2.74.36-2.84.38-4.39.54a.64.64,0,0,0-.37.86c.19.09.34.17,5.44-.57.68.76,1.59,1.77,2.3,2.51a6.5,6.5,0,0,0-.93,4.71l-3.25,1.59a49.43,49.43,0,0,1-4.75-3l-.26,0c-.67.63-.83.78,3.94,3.5l-2.7,1.32c-.94-.62-2.17-1.46-3.08-2.12l-.25,0c-.65.66-.59.7,2.33,2.64-.59.3-1.38.69-2,1-.61-.46-1.43-1.06-2-1.54l-.23,0c-.52.58-.48.61,1.35,2l-1.67.89c-.46.73.16,1,.25,1a6.6,6.6,0,0,0,1.69-.91L22,64.6a.8.8,0,0,0,.28.73l.25,0A14.67,14.67,0,0,0,23.38,62c.6-.3,1.38-.71,2-1-.3,1-.7,2.44-1,3.5,0,.61.18.72.52.73,1.18-1.37,1-3.16,1.44-4.73l2.7-1.33c-1.12,3.38-1.21,3.66-1.72,5.67,0,.71.28.71.56.71,1.78-2,1.44-4.63,2.24-6.91L33.37,57a4.93,4.93,0,0,0,3.43,3.12c-.11,1.33-.18,2.67-.24,4-2.42,2.35-2.62,2.55-4.55,4.51-.26.55.06.87.49.89l4-3.95c0,.79,0,1.58,0,2.36,0,.47,0,.93,0,1.38l-2.93,2.92a.55.55,0,0,0,.53.84c.73-.7,1.71-1.64,2.43-2.35,0,1,.07,1.9.12,2.82l-1.91,1.89c-.32.69.51.8.55.78.56-.21,1-1,1.45-1.37.07.85.15,1.68.24,2.48.32.77.86.36.89.18-.08-.89-.15-1.72-.21-2.56l1.59,1.58c.65.41.77-.15.77-.25s0-.09-2.45-2.64c-.05-.91-.09-1.85-.11-2.82.77.83,1.79,2,2.58,2.76.7.46.84-.27.75-.45-.63-1.36-2.36-2.59-3.36-3.71,0-.46,0-.92,0-1.38,0-.79,0-1.58,0-2.37,2.34,2.8,2.59,3.1,4,4.66.64.43.86-.17.82-.4-.18-.93-1.43-1.71-2.07-2.42-.85-1-1.93-2.29-2.74-3.29,0-1.33.12-2.66.22-4A5.08,5.08,0,0,0,42,58.05c.91.63,2.13,1.48,3,2.1.84,3.65.89,3.86,1.68,7,.37.69.87.27,1,0,0,0,0,0-1.46-6.3.92.58,2.15,1.35,3.09,1.92.36,1.41.85,3.29,1.22,4.7.38.69.89.25,1,0s0-.14-1-4c.77.44,1.78,1,2.55,1.46.26,1,.61,2.26.86,3.24a.5.5,0,0,0,1,0c.25-.74-.39-1.79-.59-2.54L56.73,67a.53.53,0,0,0,.69-.71c-.41-.82-1.83-1.09-2.63-1.52L57,64.07c.79-.56,0-1-.07-1-1,0-2.34.73-3.34,1-.77-.44-1.79-1-2.55-1.46,1.07-.32,2.5-.74,3.56-1.08a.53.53,0,0,0-.07-1c-1.47-.07-3.29,1-4.7,1.37-.93-.57-2.16-1.32-3.08-1.91,3.42-.92,3.63-1,5.62-1.58a.52.52,0,0,0-.07-1c-2.45-.17-4.46,1.24-6.71,1.82-.92-.62-2.14-1.45-3.05-2.09a6.51,6.51,0,0,0,.29-5.07c.94-.53,2.2-1.25,3.13-1.8,2.91.94,3.36,1.08,6,1.81.8-.05.48-.8.28-.92-1.61-.93-3.47-1-5.18-1.54.82-.52,1.91-1.2,2.72-1.73,1.18.34,2.76.78,3.95,1.09.77-.05.43-.78.23-.9a16,16,0,0,0-3.17-.87c.61-.42,1.42-1,2-1.42.8.21,1.86.49,2.66.68.76-.07.33-.8.17-.88a9.3,9.3,0,0,0-1.9-.49l1.73-1.36a1,1,0,0,0,.13-.29" fill="#ff9797"/>
          <path d="M84.54,49.93l0,0s-.15,0-.67-1.14c-.15-.8-.33-1.87-.53-2.66a31.74,31.74,0,0,1,1.22,3.76m-.9-3.3.74,2.44a5.32,5.32,0,0,1,.15.62,34.75,34.75,0,0,0-1.23-3.78l.28.55.06.17m-.11,1.5c-.31-.71-.75-1.74-1.4-3.45a11.55,11.55,0,0,1,.88.84c.17.78.4,1.82.52,2.61m-.31-2.63L83,45c-.27-.67-.61-1.57-.91-2.22.35.81.85,1.89,1.17,2.72m-.55-.88c-.26-.26-.71-.5-.88-.82,0,0-.6-1.59-.79-2.43a34.3,34.3,0,0,1,1.67,3.25m0-.26A35.9,35.9,0,0,0,81,41.1s0-.17.14,0a4.49,4.49,0,0,1,.44.7c.35.77.82,1.8,1.11,2.59m2.63,19.21.24-2.19c-.1.83-.21,1.95-.35,2.78-.07.36-.11.68-.12.76,0-.08.23-1.34.23-1.35m-11-31.23-.3-.25A32.68,32.68,0,0,1,77.27,36c-.77-.88-1.59-1.73-2.44-2.54s-1.82-1.92-2.64-2.7a5.66,5.66,0,0,0-.49-.37c.64.64,1.49,1.5,2.11,2.16-.71-.62-1.45-1.22-2.21-1.78-.58-.5-1.35-1.18-1.95-1.65a3.06,3.06,0,0,0-.61-.37l1.44,1.22c-.75-.51-1.52-1-2.31-1.45-.32-.17-.33-.17-.41-.15l.34.25c.87.51,1.64,1,2.39,1.51l-1.33-.62c.1.19.1.19,2.45,1.43.77.57,1.51,1.17,2.22,1.79-.61-.35-1.42-.83-2-1.17,0,.14,0,.14,3,2.1a34.8,34.8,0,0,1,2.45,2.56,27.23,27.23,0,0,0-3-2.14c0,.32,0,.32,1.94,1.63.61.42,1.37,1.07,1.94,1.56a36.41,36.41,0,0,1,2.34,3.3,22.17,22.17,0,0,0,1,3c-.44-.29-1-.68-1.49-1a42.55,42.55,0,0,0-4.15-5.09,1,1,0,0,0-.33-.18.93.93,0,0,0,.3.58,40.8,40.8,0,0,1,3.6,4.37c-.51-.25-1.17-.59-1.68-.83-.86-1.06-2-2.44-3-3.45a1.07,1.07,0,0,0-.32-.2c0,.13,0,.13,2.56,3.32-.47-.21-1.09-.5-1.57-.7-.63-.72-1.45-1.68-2.11-2.38a1.2,1.2,0,0,0-.34-.21c-.07.3-.07.3,1.66,2.25L73,39.42l-.18,0c.06.54.06.54,2.12,1.44l-.53.92a.81.81,0,0,0,.51.83c.26-.42.62-1,.83-1.4l1.58.71c-.21.48-.48,1.13-.73,1.59a.79.79,0,0,0,.47.84,16,16,0,0,0,1-2.1c.51.26,1.18.59,1.68.86a9.57,9.57,0,0,1-.91,2.69.93.93,0,0,0,.31.84h.17a9.91,9.91,0,0,0,1-3.19c.46.28,1.06.65,1.5,1,1.9,4.95,1.9,4.95,1.79,7.27-1,0-1.25,0-2.44,0-.3.31-.05.77.07,1,1.38.09,1.38.09,2.27.09-.14.79-.32,1.84-.51,2.61l-2-.08c-.37.31-.14.79,0,1,.51,0,1.18.09,1.69.11-.24.64-.52,1.49-.78,2.11l-1.55-.09a.73.73,0,0,0-.11,1l1.2.11-1,2a.81.81,0,0,0,0,.88l.17,0,1.13-2.1-.17,2.39a2.22,2.22,0,0,0,0,.45l.16.09c.14-.19.34-.44.42-3.95.23-.64.57-1.47.78-2.12,0,1.17,0,2.74,0,3.91a3.32,3.32,0,0,0,.06.44l.17,0a24.11,24.11,0,0,0,.1-5.42c.17-.78.4-1.83.51-2.62a35.77,35.77,0,0,1,.37,6.21,2.2,2.2,0,0,0,0,.44l.18-.11a31,31,0,0,0-.49-7.55c0-.87,0-2,0-2.9a5.58,5.58,0,0,0,.77,1.41,20.5,20.5,0,0,1,.74,3.79,30.48,30.48,0,0,1-.12,6.4,3.4,3.4,0,0,0,0,.76,24.52,24.52,0,0,0,.26-5.74c0,.33,0,.66,0,1-.08-1.08-.17-2.52-.31-3.6s-.31-1.94-.53-2.89c0,0-.48-2.09-1.12-4a35.38,35.38,0,0,0-2.4-5.43L81.11,41l-.06-.11a2.14,2.14,0,0,0-.51-.69c-.79-1-1.56-2.1-2.4-3.14a30.17,30.17,0,0,0-3.61-4.49l-.2-.19" fill="#ff9797"/>
          <path d="M24.72,85.42l-.58-.55-.07-.06c.21.21.43.41.65.61m2,1.55.51.5h0l-1-.81c-.65-.53-1.27-1.08-1.87-1.66.69.58,1.61,1.36,2.33,1.92l.05,0m-3.22-2.75-.5-.51.44.44.06.07m1.85,1.37.91.93c-.71-.58-1.66-1.35-2.35-2a2.18,2.18,0,0,1-.14-.6l1.58,1.63M23,83.68l-1.23-1.31-.82-1a1.47,1.47,0,0,1-.26-.38h0l.08,0A28.08,28.08,0,0,0,23,83.68m.24.21A29.44,29.44,0,0,1,21,81.24c.53.48,1.34,1.3,2.06,2a2.09,2.09,0,0,0,.14.61m5.47-3.79c-.09-.82-.13-.8-1.95.12l-.2-1.65s-.22-.77-.7-.55a21.51,21.51,0,0,0,.32,2.54l-1.06.64c-.19-.79-.45-1.84-.59-2.64a.88.88,0,0,0-.54-.62l-.13.07a14.12,14.12,0,0,0,.83,3.49c-.26.2-.63.47-.88.7a19.49,19.49,0,0,1-1.44-4.13c-.18-.51-.4-.59-.55-.64-.17.36.56,2.68,1.74,5a3.51,3.51,0,0,0-.42.66C21.78,81.75,21,81,20.48,80.5a28.17,28.17,0,0,1-2-3.25,6.26,6.26,0,0,1,.08-3,1.06,1.06,0,0,0-.46-.86,5.55,5.55,0,0,0-.21,2.65,32.64,32.64,0,0,1-1.29-3.16A17.54,17.54,0,0,1,17,70.75c0-.12,0-.7-.4-.91a14.17,14.17,0,0,0-.37,1.81c-.27-.89-.51-1.8-.7-2.73.13-.48.29-1.13.46-1.6,0-.12,0-.73-.32-.94l-.4,1.19c-.15-.89-.26-1.8-.34-2.72-.07-.47-.12-.53-.24-.66a.76.76,0,0,0-.09.28c.09,1,.21,1.94.36,2.83l-.68-2-.06-.16-.12.1a23.1,23.1,0,0,0,1.12,3.42c.19.93.43,1.84.7,2.73-.41-.94-1-2.2-1.33-3.17l-.06-.15c-.11.3.61,2.15,1.81,4.6a32.88,32.88,0,0,0,1.3,3.17A31.54,31.54,0,0,1,15.15,71l-.06-.14c0,.21.63,2.22,3.12,6.14a32.24,32.24,0,0,0,2,3.3l-.12-.08c.06.21.06.21,1.68,2.19a35.19,35.19,0,0,0,4.33,4.21L27.94,88h0l-.71-.67c.7.47,1.64,1.11,2.36,1.55a29.82,29.82,0,0,0,5.23,3l.34.15a31,31,0,0,1-4.68-2.64c.69.38,1.62.89,2.32,1.25,1,.56,2.36,1.28,3.4,1.76l.33.13c-.92-.53-1.91-.93-2.83-1.45.56.24,1.29.59,1.85.82s1.55.76,2.23,1l.32.12a14.17,14.17,0,0,0-1.67-.79l1.7.63.15,0c-.15-.14-.15-.14-2.15-.91h.58c-.24-.33-.24-.33-1.47-.39-.57-.26-1.32-.59-1.88-.86l1,0c-.23-.4-.23-.4-1.88-.49-.7-.38-1.65-.88-2.34-1.29a15.17,15.17,0,0,0,1.55.08c-.11-.37-.11-.37-2.45-.62-.72-.47-1.68-1.1-2.38-1.6-.75-.74-1-1-3.06-3.16a5.4,5.4,0,0,1,.4-.65,41.73,41.73,0,0,0,4.27,2.43l.16,0c0-.08,0-.08-4.18-2.71.25-.22.59-.5.86-.69.94.51,2.21,1.18,3.17,1.66l.17,0,.09-.13c-.11-.28-.11-.28-3-1.86l1-.64c.7.35,1.64.82,2.36,1.16a.49.49,0,0,0,.29,0c0-.45,0-.45-2.08-1.45l1.27-.68c0-.06.1-.14.09-.2" fill="#ff9797"/>
          <path d="M64,90.38c-.39,0-.91,0-.91-.61.83-.41,1.94-1,2.77-1.39a18.79,18.79,0,0,1-1.86,2m3.17-1.47a10.26,10.26,0,0,1-2.69,1.37,19.71,19.71,0,0,0,1.94-2,9.86,9.86,0,0,1,.84.6l-.09.06m-4,.48a5,5,0,0,1,1.45-2.08c.4.2.93.45,1.33.66-.83.43-1.94,1-2.78,1.42m5.84-2a12.18,12.18,0,0,1-1.05,1c-.25-.2-.59-.45-.86-.63.85-.5,2-1.17,2.82-1.7A4.18,4.18,0,0,1,69,87.35m-2.41.07c-.4-.21-.94-.49-1.34-.68a9.47,9.47,0,0,1,2.81-1.65,25.63,25.63,0,0,1-1.47,2.33m.59-.14a24.57,24.57,0,0,0,1.54-2.36c.83-.14,1.27.08,1.28.64-.84.52-2,1.22-2.82,1.72M80.94,75.64c0-.09.1-.21.13-.3l-1.41,1.74,1-2a2.72,2.72,0,0,0,.13-.37s0,0-1.87,3.21c-.48.52-1.1,1.22-1.59,1.72.56-.94,1.31-2.17,1.82-3.13,0-.1.09-.25.12-.36h-.18a39.42,39.42,0,0,0-2.57,4.28c-.67.6-1.56,1.41-2.25,2a36.49,36.49,0,0,0,3.06-4.78,1.42,1.42,0,0,0,.11-.35l-.18,0c-1.83,1.61-2.48,4-3.9,5.9-.8.59-1.86,1.38-2.68,1.94,0-.32,0-1.09-1.61-.84a29.61,29.61,0,0,0,1.38-3,58.55,58.55,0,0,0,4.65-4.91c.24-.36.21-.45.15-.63-.24,0-.24,0-2.24,2.23-.61.7-1.49,1.57-2.16,2.22.34-1,.65-2,.91-3,.93-1.06,2.15-2.48,3-3.57.23-.38.18-.48.1-.67s-.16-.05-2.84,3c.19-.85.35-1.73.49-2.63.6-.79,1.42-1.82,2-2.62.35-.66,0-.82-.25-.72-.69.32-1.11,1.41-1.57,2,.11-.87.19-1.77.25-2.68,0-.27-.07-.46-.44-.37a.73.73,0,0,0-.32.45c-.07,1-.15,1.91-.26,2.78l-1.14-1.26c-.57-.3-.77.48-.72.66.27.89,1.13,1.27,1.69,1.92-.14.89-.3,1.77-.48,2.62-.5-.58-1.17-1.35-1.69-1.92-.6-.3-.79.53-.75.62.37.93,1.52,1.76,2.16,2.52-.26,1-.55,2-.88,3a28.84,28.84,0,0,0-2.39-2.81c-.59-.29-.82.48-.78.57.54,1.43,1.92,2.16,2.78,3.33a30.75,30.75,0,0,1-1.35,3,11.21,11.21,0,0,0-3.6,2.12l-2.13-.92A30.18,30.18,0,0,0,62.55,81c-.25-.54-.79,0-.85.07-.32.58.07,1.55.13,2.21s.06,1.44.05,2l-2.28-1c-.12-1-.28-2.31-.44-3.3-.29-.55-.82,0-.87,0s0,0,.37,2.85L56.6,83c-.14-.71-.33-1.67-.49-2.38-.33-.57-.84-.08-.88,0-.25.52.22,1.34.34,1.9l-2.11-1c-.59-.15-.78.29-.68.52.32.69,1.58.79,2.27,1.11l-2,.5c-.58.25-.29.61-.15.66s.2.09,3.18-.71l2,.88-3.21.86c-.56.24-.31.56-.18.61s.21.09,4.32-1.07l2.25.93c-3.08.92-3.14.94-5,1.41-.24.1-.24.1-.37.32l.06.18c.34.16,3.48-.77,6.06-1.58l2.11.89c-.72.73-.91,1.82-1.72,2.49a12.5,12.5,0,0,1-3,1.41c-1.86-.14-2.19-.16-4-.36-.45,0-.47.17-.51.35a21.36,21.36,0,0,0,3.52.4l-2.43.91c-.76-.07-1.78-.17-2.54-.26a.52.52,0,0,0-.45.19l.06.15,2,.23-1.73.56L51.79,93c-.3,0-.31,0-.4.21a3.62,3.62,0,0,0,1.28.21l-1.43.41-.14.08.08.13a7.59,7.59,0,0,0,1.61-.4l-.65.52.11.11a5.58,5.58,0,0,0,1.3-.85c.51-.17,1.2-.37,1.7-.54-.4.31-.94.73-1.37,1L54,94a8,8,0,0,0,2.14-1.43l2.39-.87a17.33,17.33,0,0,1-2.73,1.94l.14.1a14.79,14.79,0,0,0,3.56-2.42c.87-.36,2-.85,2.89-1.24,0,.62.34.8,1.14.72a16.48,16.48,0,0,1-2,1.47A35,35,0,0,1,57,94l-.32.12a26.28,26.28,0,0,0,4.06-1.34,14.61,14.61,0,0,1-2.07.91c-.58.15-1.35.37-1.93.51l1-.23.11,0-.05,0,.92-.24.28-.11a14.37,14.37,0,0,0,2.14-.92,5.32,5.32,0,0,1-1.05.63l.53-.16c.88-.42,1-.47,1.31-.91A17.06,17.06,0,0,0,64,90.72,12.09,12.09,0,0,0,67.4,89a2,2,0,0,1,.26.47,17.3,17.3,0,0,1-4,2.49l-.14.06.52-.23.07,0a17,17,0,0,0,3.53-2.13,1.87,1.87,0,0,1-.22.39l-1.51.87.72-.38.62-.35-.15.09.7-.41.2-.13,1.14-.7,1.13-.78h0c-.62.41-1.46.94-2.1,1.32a1.3,1.3,0,0,0,.2-.41,26.14,26.14,0,0,0,2.86-1.71c.26-.2.34-.26.59-.48-1.53,1-2,1.27-3.46,2a2.39,2.39,0,0,0-.28-.49,12,12,0,0,0,1.7-1.62c.33-.4.42-.94.8-1.3.72-.66,1.86-1.31,2.64-1.89,1.09,0,1.21,0,1.81-.06a2.23,2.23,0,0,0,.61-.65c-.38,0-.38,0-1.52,0,.68-.58,1.58-1.34,2.23-2l1,0a2.23,2.23,0,0,0,.56-.71l-.8,0c.47-.5,1.12-1.17,1.58-1.69l.59,0a2.35,2.35,0,0,0,.5-.76l-.38,0L80.75,76c.06-.1.14-.22.19-.32" fill="#ff9797"/>
          <path d="M42.19,24.92a5.18,5.18,0,0,1,1.93-.67l2-.25a35.71,35.71,0,0,0-4,.92m2.08-.3a8.13,8.13,0,0,1-2,.36,37.46,37.46,0,0,1,4-1c-.55.16-1.28.38-1.82.58l-.1,0m.74-.56a32,32,0,0,1,3.89-.44c-.56.06-1.32.13-1.88.23l-2,.21m1.79,0c-.62.13-1.2.27-1.59.37.55-.17,1.29-.39,1.85-.52l2-.26c-.32.05-1.08.15-2.28.41m1.11-.29,1.4-.15h0c-.47,0-.94.09-1.4.15m0,0,1.39-.16h0l-1.39.16m-7.34,5.62c.17-.16.17-.16.41-1.21l.92-.17a1.29,1.29,0,0,0,.58-.44c-.4.05-.94.1-1.33.17a8.92,8.92,0,0,1,.49-.85L43,26.62a1.73,1.73,0,0,0,.62-.38L42,26.48a12,12,0,0,1,1-.9c1.21-.18,1.26-.19,1.93-.32a3,3,0,0,0,.67-.3c-.72.1-1.43.22-2.15.31.42-.22,1-.53,1.41-.72a37.28,37.28,0,0,1,4.46-.95h-.14c-2.28.12-4.54.51-6.81.76a11.28,11.28,0,0,1,1.88-.6,5.44,5.44,0,0,0-2.6.68l-1.81.2c.4-.18.93-.4,1.34-.56a4.21,4.21,0,0,0-2,.64l-1.31.17c.3-.14.69-.34,1-.47-.45,0-.6.08-1.59.55l-1.09.17a4.57,4.57,0,0,0-.78.27l1-.14-2,.66a3.31,3.31,0,0,0-.58.27,19.5,19.5,0,0,0,3.14-1l1.3-.19c-1,.3-2.37.7-3.37,1.05a2.67,2.67,0,0,0-.58.27c1.66-.07,3.06-1,4.62-1.41l1.8-.23a39.87,39.87,0,0,0-5.6,1.66,1.76,1.76,0,0,0-.57.29,1.1,1.1,0,0,0,.26-.06,45.22,45.22,0,0,1,6.63-2l2.14-.26a7.32,7.32,0,0,0-2.31.84c-1.29.46-2.51.93-3.7,1.46-2.41.76-2.92.92-4.9,1.64a2.06,2.06,0,0,0-.7.44c.65.08,1.46-.49,2.07-.72s1.58-.55,2.25-.77c-1.08.53-2.15,1.11-3.18,1.74-1,.4-2.26.93-3.22,1.35a1.79,1.79,0,0,0-.65.51,21,21,0,0,0,2.69-1.1c-.81.53-1.6,1.1-2.36,1.69-.65.32-1.52.73-2.16,1.06a1.46,1.46,0,0,0-.59.56l.1.05,1.56-.79c-.71.59-1.39,1.2-2.06,1.83a.83.83,0,0,0-.26.42c.16,0,.16,0,.4-.17.73-.71,1.41-1.32,2.11-1.92l-.83,1.34,0,.12c.16,0,.16,0,2-2.34.76-.6,1.54-1.17,2.34-1.72-.48.58-1.13,1.34-1.56,1.94l0,.12a33,33,0,0,0,2.77-2.82q1.53-1,3.15-1.77a14.81,14.81,0,0,0-2.83,2.64l-.05.11a1.18,1.18,0,0,0,.72-.36,15,15,0,0,1,3.43-3,38.25,38.25,0,0,1,3.59-1.42A8.31,8.31,0,0,0,44,24.77c-.42.23-1,.52-1.37.78a26.32,26.32,0,0,0-5.16,3.14,1.54,1.54,0,0,0-.17.19c.1.05.17.08.53-.18a23,23,0,0,1,4.36-2.82c-.29.28-.69.64-.95.95-.94.69-2.18,1.63-3.06,2.39a1.49,1.49,0,0,0-.15.2c.21.07.21.07,2.32-1.74.17-.15.42-.31.6-.45-.14.27-.35.62-.46.9-.56.54-1.31,1.25-1.83,1.82a1.06,1.06,0,0,0-.12.2c.25.08.25.08,1.79-1.56l-.16.95.12,0a.82.82,0,0,0,.32-.21" fill="#ff9797"/>
          <path d="M54,25.93a5.59,5.59,0,0,1-1.76-.75,10.29,10.29,0,0,0-.87-.74A22.32,22.32,0,0,1,54,25.93m-.7-.87c.69.38,1,.73.88.84a22.68,22.68,0,0,0-2.74-1.47c1.84.61,1.84.61,1.86.63m-1.62-.2a23.41,23.41,0,0,0-2.17-1.17l1.26.49a10.25,10.25,0,0,1,.91.68m-.32-.65c.64.23,1,.41,1.27.51l-1.76-.56c-.42-.17-1-.39-1.4-.52.29.08,1.07.29,1.89.57m-1.15-.27-.92-.35h0c.31.11.62.22.92.35m0,0-1-.34,1,.34m12.51,3.55a8.37,8.37,0,0,0-2-.58l-.29-.43a2.8,2.8,0,0,0-.84-.36l.36.6-1.61-.41a7.05,7.05,0,0,0-.47-.61,3.5,3.5,0,0,0-.88-.32c.18.21.42.5.59.73l-1.94-.51a3.11,3.11,0,0,0-.83-.77,4,4,0,0,0-.91-.27,3.56,3.56,0,0,1,1,.84l-1.87-.53a20.45,20.45,0,0,0-3.77-1.26h0l.09.05c2.58,1.22,2.7,1.58,3,2.36a13.36,13.36,0,0,1-1.75-.67c-.08.27-.12.4,1.8,1a6.24,6.24,0,0,1-.08,1c-.43-.15-1-.36-1.43-.54l-.08,0c0,.4,0,.4,1.39.89-.12.26-.27.62-.41.87-.34-.13-.79-.3-1.12-.44h-.09c-.25.4-.09.46.94.86l-.68.87c-.12.24,0,.58.24.58l.76-.94.15,1.4c.1.47.36.43.42.33a14,14,0,0,0-.27-2.18c.13-.27.34-.62.45-.9.2.65.47,1.51.63,2.17.09.26.2.38.38.38.17-.18-.43-1.87-.87-3a8.75,8.75,0,0,0,.14-1A14.51,14.51,0,0,1,54.59,30c.13.26.26.37.44.36.17-.23-.76-2.14-2.2-4a5,5,0,0,0-.41-1,6.83,6.83,0,0,0,2.16,1,22.66,22.66,0,0,1,2.5,1.92,7.58,7.58,0,0,1,1,3.28c.08.32.35.57.58.53a6.3,6.3,0,0,0-.69-3c.72.68,1.43,1.42,2.11,2.19a20.1,20.1,0,0,1,.31,2.56c.11.53.6.68.66.5a5.35,5.35,0,0,0-.19-2.13c.54.65,1.06,1.32,1.57,2,0,.58,0,1.37,0,1.95s.55.7.65.58c.29-.35.06-1,.07-1.5.46.69.92,1.4,1.36,2.13.29.44.59.38.61.17a.67.67,0,0,0-.1-.29c-.45-.73-.92-1.44-1.4-2.12l1.59,1c.16.08.17.08.28,0,.19-.34.19-.34-2.62-2.1-.52-.7-1.06-1.37-1.62-2l2.57,1.53c.15.08.15.08.27,0,0-.32,0-.32-3.64-2.47-.71-.77-1.44-1.5-2.18-2.18l4,2.16a.6.6,0,0,0,.19.06l.05-.06c-.12-.3-.12-.3-5.12-2.93a28.89,28.89,0,0,0-2.48-1.88c.31-.28-.58-.85-1.13-1.16l1.89.56a49.36,49.36,0,0,1,5.65,3,1.74,1.74,0,0,0,.33.15l.07-.05a36.07,36.07,0,0,0-5.31-2.85l2,.54c1.21.59,2.81,1.38,4,2a1.74,1.74,0,0,0,.33.15l0-.09a36.66,36.66,0,0,0-3.59-1.87l1.62.43c.85.42,2,1,2.83,1.42a1.22,1.22,0,0,0,.34.14v-.09a12.75,12.75,0,0,0-2.39-1.26l1.52.4h.09c-.06-.09-.07-.11-.32-.25" fill="#ff9797"/>
        </g>
        <g>
          <path d="M49.67,6.1h0a6,6,0,0,0-6,6v3.21H46V12.11a3.65,3.65,0,0,1,7.3,0v3.21h2.36V12.11A6,6,0,0,0,49.67,6.1Z" fill="#f2ab38"/>
          <g>
            <path d="M43.64,14.34H55a6,6,0,0,1,6,6v3.75a0,0,0,0,1,0,0H37.64a0,0,0,0,1,0,0V20.34A6,6,0,0,1,43.64,14.34Z" fill="#353232"/>
            <path d="M43.64,14.34H55a6,6,0,0,1,6,6v3.75a0,0,0,0,1,0,0H37.64a0,0,0,0,1,0,0V20.34A6,6,0,0,1,43.64,14.34Z" fill="#f4c237"/>
            <path d="M54.6,24.09H61V18.24a3.9,3.9,0,0,0-3.9-3.9H53.7C54.51,16.78,55.53,20.88,54.6,24.09Z" fill="#f2ab38"/>
          </g>
        </g>
      </g>
</svg>
