<svg xmlns="http://www.w3.org/2000/svg" xmlns:xlink="http://www.w3.org/1999/xlink" width="100%" viewBox="0 0 71.84 87.56">
  <defs>
    <symbol id="toy_14" data-name="toy 14" viewBox="0 0 71.84 87.56">
      <circle cx="35.92" cy="35.94" r="35.92" fill="#7ace38"/>
      <path d="M36.33,71.85a29.16,29.16,0,0,0-35.42-44,35.92,35.92,0,1,1,35.42,44Z" fill="#64af22"/>
      <path d="M46.12,70.39A35.93,35.93,0,0,0,9.12,12a35.92,35.92,0,1,1,37,58.36Z" fill="#519113"/>
      <path d="M36.22,87.56h0a5.93,5.93,0,0,1-5.93-5.93h0V78.45h2.33v3.18a3.61,3.61,0,0,0,7.21,0V78.45h2.33v3.18a5.93,5.93,0,0,1-5.93,5.93Z" fill="#f2ab38"/>
      <path d="M30.35,79.43h11a6,6,0,0,0,6-6h0V69.79h-23v3.64a6,6,0,0,0,6,6Z" fill="#f4c237"/>
      <path d="M41.1,69.79h6.3v5.79a3.85,3.85,0,0,1-3.85,3.85H40.2C41,77,42,73,41.1,69.79Z" fill="#f2ab38"/>
    </symbol>
  </defs>
  <g id="Слой_2" data-name="Слой 2">
    <g id="Слой_15" data-name="Слой 15">
      <use id="toy_14-3" data-name="toy_14" width="71.84" height="87.56" transform="matrix(1, 0, 0, -1, 0, 87.56)" xlink:href="#toy_14"/>
    </g>
  </g>
</svg>
