<svg xmlns="http://www.w3.org/2000/svg" xmlns:xlink="http://www.w3.org/1999/xlink" width="100%" viewBox="0 0 100 100">

      <g>
        <circle cx="50.23" cy="58.27" r="36.35" fill="#62c3f4"/>
        <path d="M50.64,21.93A29.51,29.51,0,0,1,14.8,66.41,36.35,36.35,0,1,0,50.64,21.93Z" fill="#29a3d3"/>
        <path d="M60.55,23.41A36.36,36.36,0,0,1,23.11,82.47,36.35,36.35,0,1,0,60.55,23.41Z" fill="#1489ad"/>
        <g>
          <path d="M52,62.45a2.6,2.6,0,0,1-2.53,2.37,2.65,2.65,0,0,1-1.56-4.69A2.53,2.53,0,0,1,52,62.45m15.57-7.56c0-.54,0-.54-4.16-1.23.79-.69,1.84-1.6,2.61-2.31a.63.63,0,0,0-.41-1,31.79,31.79,0,0,0-2.88,2.39c.08-1.19.18-2.77.22-4-.12-.8-.71-.71-.89-.51-.59.7-.22,2.12-.28,3,0,.72-.16,1.68-.23,2.4L59.81,55c.16-1.2.36-2.8.49-4-.08-.81-.7-.74-.9-.53,0,0,0,0-.86,5.47l-1,.73L54.88,56a.59.59,0,0,0-.53,1c.38.44,1.28.44,1.84.59-1.09.72-2.54,1.67-3.65,2.37a3.81,3.81,0,0,0-2.43-1.62c0-1.51,0-3,0-4.5L51.25,55a.54.54,0,0,0,.92-.42c0-.19,0-.19-2-2.37v-1.3c.95-1.07,2.2-2.52,3.12-3.63.36-.68-.23-1-.49-.92,0,0,0,0-2.63,2.94,0-.74,0-1.48,0-2.21.88-1,2-2.42,2.88-3.48.33-.9-.44-.9-.5-.87-1.31.49-1.58,1.87-2.38,2.8,0-1.21,0-2.39,0-3.54-.1-.39-.18-.47-.51-.51a1,1,0,0,0-.34.4c-.05,1.25-.08,2.43-.11,3.64-.63-.8-1.48-1.87-2.1-2.7-.54-.43-.8.22-.78.45a24.54,24.54,0,0,0,2.85,3.81c0,.72,0,1.46-.05,2.2-.7-.84-1.63-2-2.3-2.81-.67-.52-.89.34-.82.57a32.49,32.49,0,0,0,3.09,3.85c0,.43,0,.86,0,1.3-.57.58-1.33,1.36-1.91,1.93s.22,1.12.56,1c.51-.21.93-.88,1.32-1.27,0,1.48,0,3-.06,4.48a3.74,3.74,0,0,0-2.44,1.4c-1.11-.74-2.58-1.75-3.67-2.52l1.52-.39a.61.61,0,0,0,.1-1.13c-.11,0-.11,0-2.87.59l-1-.74c-.19-1.54-.41-3.59-.55-5.14-.27-.86-.86-.23-.87-.22-.14.21-.21.3.24,4.42L37.9,53.22c-.09-1.52-.18-3.55-.21-5.07-.2-.87-.8-.25-.8-.24-.13.17-.24.31-.07,4.35-.7-.67-1.64-1.57-2.31-2.27-.71-.42-.85.6-.78.74a10.54,10.54,0,0,0,2.43,2.47l-3.41.58c-.71.37-.47.9-.16,1.14,1.4-.2,3.27-.49,4.66-.74l1.58,1.34-3.56.66a.63.63,0,0,0-.18,1.13c.14.08.19.11,4.94-.84l1,.75c.14.86.31,2,.45,2.85.4.89,1,.32,1.06.12.21-.58-.15-1.43-.25-2,1.1.77,2.58,1.8,3.7,2.55a4.06,4.06,0,0,0-.07,2.77l-4.1,2.26.42-1.64c.07-.89-.66-.85-.87-.7s-.2.14-.94,3.09l-1.09.59c-1.41-.56-3.27-1.32-4.67-1.92-.76-.15-.73.64-.55.91.07.1.17.25,3.87,1.74l-1.84,1c-1.37-.59-3.18-1.4-4.52-2-.74-.17-.69.61-.5.89,0,.08.17.26,3.73,1.81L32,70.93c-.6.69.31,1.11.42,1.09,1-.13,2.12-1,3-1.5-.22,1.09-.51,2.54-.7,3.64,0,.74.66.81.86.67,0,0,0,0,1.12-5l1.84-1c-.27,1.13-.62,2.64-.87,3.78,0,.77.66.82.88.67s.08-.06,1.34-5.18L41,67.58c.79.29,1.85.69,2.65,1a.58.58,0,0,0,.58-1c-.37-.47-1.28-.56-1.84-.77l4.09-2.28A3.76,3.76,0,0,0,48.58,66c0,.77,0,1.55,0,2.33V71l-1.2-1.18a.58.58,0,0,0-1,.39c0,.31,0,.31,2.19,2.4,0,.42,0,.83,0,1.24L45.05,77.1c-.45.81.51.89.63.85s.15,0,2.91-2.58c0,.69,0,1.37,0,2-1,.9-2.37,2.11-3.39,3-.42.77.55.84.72.75a17,17,0,0,0,2.69-2.33c0,1.08,0,2.12.06,3.11a.58.58,0,0,0,1,.26,1.25,1.25,0,0,0,.09-.25c0-1,0-2,0-3.11.8.7,1.87,1.63,2.68,2.32.78.39,1-.34.87-.6-.78-1.19-2.49-2.19-3.56-3.14v-2c.84.76,1.95,1.78,2.79,2.53.66.38,1-.19,1-.47,0-.09,0-.09-3.76-3.6V72.6l2-1.94c.48-.72-.24-1.11-.63-1s-1,.89-1.41,1.28c0-.86,0-1.73,0-2.62V66.12A3.69,3.69,0,0,0,52.16,65l4.11,2.31-1.61.54c-.73.39-.39,1,0,1.15.13,0,.22.08,3.08-.92l1.14.61c.37,1.46.86,3.41,1.22,4.88.43.78,1,.09,1.09,0s.09-.23-.89-4.1l1.95,1c.32,1.4.75,3.28,1,4.69.39.73,1,0,1.06-.09s.11-.25-.72-3.93l3.11,1.47a.66.66,0,0,0,.77-.93c-1-.49-2.29-1.13-3.28-1.6,1.14-.47,2.67-1.08,3.8-1.57.71-.5.33-1.08,0-1.15-.9-.23-2,.77-2.9,1.13-.69.29-1.63.64-2.32.91l-2-1c1.17-.44,2.72-1,3.88-1.48.74-.48.32-1.08,0-1.16,0,0,0,0-5.33,1.9L58.3,67c-.22-.84-.51-2-.74-2.79a.59.59,0,0,0-1.12,0c-.18.58.27,1.4.42,2-1.21-.66-2.82-1.55-4-2.23A4,4,0,0,0,53.06,61c1.13-.72,2.63-1.7,3.75-2.45l-.32,1.68c0,.85.69.8.93.59s.2-.18.72-3.19l1-.73c1.47.29,3.44.66,4.92.92a.6.6,0,0,0,.45-1c-.07-.07-.07-.07-4.09-.84l1.72-1.33c1.43.24,3.35.56,4.79.78a.54.54,0,0,0,.56-.52" fill="#aae3f9"/>
          <path d="M67.25,33.53c.35.4.86,1.22.35,1.46-1,.21-2.79-1.92-2.49-2.53.21-.41,1.37.17,2.14,1.07m-.36-4.42c-.32-.22-.32-.22-1.6-.31-.25-.3-.57-.72-.84-1a1.85,1.85,0,0,0-.66-.35c.24.3.57.7.81,1C63.89,28,63,27.39,62.22,27a1.73,1.73,0,0,0-.52-.21c.83,1.07,2.17,1.38,3.22,2.13l.39.63c-.67-.49-1.53-1.17-2.22-1.63a1.52,1.52,0,0,0-.51-.23c.6,1.28,2,1.52,3,2.33l.17.38-.94-.11,0,.12c.31.36.31.36,1.14.48.1.42.26,1,.32,1.38a3,3,0,0,0-1.39-.55c-.72-.71-1.47-1.39-2.24-2l.85.42.1,0,.08-.08c-.2-.26-.2-.26-1.89-1.07L61,28.45c-.44-.48-1-1.13-1.51-1.57a1.85,1.85,0,0,0-.61-.31c.37.37.88.85,1.22,1.24-.41-.28-.83-.56-1.26-.83s-1.17-1-1.71-1.34a2.93,2.93,0,0,0-.62-.26c.42.31,1,.71,1.4,1.05-.72-.42-1.47-.81-2.22-1.17-.22-.1-.35-.15-.39-.13l.22.14c.8.39,1.53.78,2.24,1.21l-1.92-.8-.11,0c.15.18.15.18,2.94,1.4.42.27.83.55,1.24.84L58,27l-.11,0c0,.19,0,.19,3,1.59l.68.54.57,1a1.05,1.05,0,0,0,.51.42l.1-.05-.33-.64c.75.63,1.48,1.31,2.18,2-.16.23-.18.38,0,.9l-2.13-.84.24-.34a.72.72,0,0,0-.53-.53l-.46.57-.59-.25c-.72-.67-1.69-1.57-2.44-2.22-.18-.14-.19-.14-.33-.15,0,.11,0,.11,2,2.07l-1-.43c-.68-.66-1.59-1.53-2.28-2.17-.17-.13-.17-.13-.31-.14s0,.1,1.88,2l-1.58-.73-.13,0c-.1.34-.1.34,1.91,1.25-.25.21-.59.5-.86.7-.09.24.14.51.4.56.36-.27.84-.64,1.18-.94l1,.44c-.26.22-.59.54-.85.75a.51.51,0,0,0,.4.58c.36-.3.86-.68,1.19-1l.6.25,1.31,1.35a.61.61,0,0,0,.32.19l.1-.1c-.06-.21-.06-.21-1-1.13l2.16.87A6.43,6.43,0,0,0,66,34.66c-.13.52-.29,1.2-.47,1.7l-.46-.94c-.27-.41-.44-.36-.54-.33s0,.17.77,1.87l-.22.48c-.76-.11-1.77-.27-2.52-.4l-.14,0c-.32.58-.22.6,2.34,1l-.5.86c-.81-.14-1.88-.31-2.69-.46-.42,0-.21.49,0,.63s.12.09,2.33.45c-.35.44-.78,1.05-1.14,1.48a.47.47,0,0,0,.44.67,16.48,16.48,0,0,0,1.25-1.57c.15.79.38,1.83.5,2.62.18.55.54.48.62.33a26.9,26.9,0,0,0-.7-3.58l.51-.87c.22.76.53,1.77.72,2.54.21.53.54.45.6.31a24.65,24.65,0,0,0-1-3.48l.23-.49,1.31.2.12,0c.16-.56-.35-.64-1.19-.78.16-.51.38-1.2.49-1.72a2.67,2.67,0,0,0,1.26.55q1,1.35,2,2.79L69,38a.59.59,0,0,0-.23-.05c-.19.34-.19.34,1.73,1.6l.48.8c0,.84-.11,2-.22,2.8,0,.53.41.65.51.6a11.77,11.77,0,0,0,.31-2.36q.4.72.78,1.47c-.11.88-.26,2-.44,2.92,0,.6.46.73.57.55a6.32,6.32,0,0,0,.4-2.39c.41.85.8,1.72,1.16,2.6.19.34.27.32.46.29s.09-.16.06-.37c-.4-1-.8-1.82-1.21-2.67.6.45,1.41,1,2,1.52a.41.41,0,0,0,.22,0c.28-.41.28-.41-2.78-2.64-.26-.49-.52-1-.8-1.46L74,42.67a.54.54,0,0,0,.22,0c.25-.4.25-.4-2.88-2.55-.17-.26-.33-.53-.5-.8L70.76,38c-.09-.28-.3-.56-.58-.52a3.3,3.3,0,0,0,0,.94q-.95-1.41-2-2.73c.27-.24.3-.41.19-.87l2.18.84-.21.44a.73.73,0,0,0,.49.63l.46-.79.59.23c.79.81,1.85,1.9,2.61,2.74.15.15.15.15.3.19.12-.24.16-.33-2.18-2.65l1,.39c.77.82,1.81,1.92,2.56,2.77.18.18.18.18.32.16,0-.24,0-.38-2.19-2.65l1.56.63.1,0c-.09-.49-.09-.49-2-1.25.06-.33.16-.77.19-1.1a1,1,0,0,0-.56-.6c-.09.43-.2,1-.32,1.43l-1-.38c.09-.32.22-.74.28-1.06a1,1,0,0,0-.57-.59c-.12.42-.29,1-.43,1.37L71,35.28l-1.51-1.37a.63.63,0,0,0-.32-.17l0,.11c.09.19.09.19,1.14,1.15l-2.11-.79c-.35-.57-1-.89-1.31-1.48a7.69,7.69,0,0,1-.31-1.44l.78.8a.94.94,0,0,0,.47.3l0-.09a11.11,11.11,0,0,0-1.47-1.52l-.17-.39,1.59.12c0-.46-.22-.48-1.82-.61l-.39-.65,1.46.09c0-.13,0-.13-.17-.23" fill="#aae3f9"/>
          <path d="M85.34,54a4,4,0,0,1-.13,2.19c-.46.41-1-1.64-.88-3,0-.69.25-1,.5-.7A3.5,3.5,0,0,1,85.34,54m.18-4.26-.41-1.55h0c.1.36.46,1.71.78,3.58a2.46,2.46,0,0,1,0,.26L85.48,51c-.09.29,0,.44.33,1.39a3.08,3.08,0,0,1-.39.95c-.36-1.61-.75-3.22-1.1-4.84l.41,1,.06.14c.1-.24.1-.24-.74-2.31l-.25-.89c0-.56-.1-1.31-.2-1.87a2.73,2.73,0,0,0-.27-.65c0,.42.09,1,.11,1.4l-.54-1.52c-.11-.54-.24-1.27-.4-1.8a3.7,3.7,0,0,0-.32-.62c.08.4.2.94.27,1.35-.35-.73-.79-1.72-1.17-2.44a2.81,2.81,0,0,0-.29-.42c0,1.08.83,1.77,1.22,2.67-.45-.68-1-1.6-1.52-2.26l-.1-.13C80,42,82,42.44,82.65,43.59l.55,1.51c-.41-.71-.93-1.67-1.37-2.37l-.1-.13-.07.16C82.15,44,83,45,83.55,46.21l.25.89-.14,1c0,.57.23.71.31.76l.11-.62c.18,1,.43,2.26.56,3.23l-.18-.06c-.21.12-.21.12-.33.43-.37-.71-.86-1.65-1.27-2.34l.42,0c0-.12.15-.35-.16-.81h-.78L81.89,48c-.36-1.1-.83-2.57-1.25-3.64a.76.76,0,0,0-.29-.39l-.1.14c.23,1.06.74,2,1.06,3L80.44,46c-.4-1.07-1-2.5-1.41-3.54a.76.76,0,0,0-.32-.38l-.1,0c0,1.2.8,2,1.18,3.08-.49-.57-1.13-1.34-1.63-1.89L78,43.2l-.15,0c0,.22,0,.22,1.85,2.5l-1.45-.07-.11.09c0,.71,0,.71,2.21.8l.86,1.16-1.35,0c-.27.25,0,.64.13.79.54,0,1.26.09,1.8.1l.44.68.44,2a.7.7,0,0,0,.21.43l.13-.1a6.61,6.61,0,0,0-.25-1.53c.38.69.9,1.6,1.24,2.31a9.61,9.61,0,0,0,.06,2.11,12.08,12.08,0,0,1-1.12.83l.14-1.1a.84.84,0,0,0-.15-.62l-.16,0a14.86,14.86,0,0,0-.31,2l-.42.23c-.54-.63-1.27-1.47-1.84-2.07l-.14-.07c-.37.3-.37.3,1.43,2.44l-.82.39c-.6-.64-1.39-1.49-2-2.11l-.15-.07c-.47.27-.47.27,1.52,2.46-.51.22-1,.43-1.62.64a.55.55,0,0,0,0,.87,16.78,16.78,0,0,0,1.74-.64c-.28.8-.64,1.86-1,2.65a.66.66,0,0,0,.07.64l.17,0a26.82,26.82,0,0,0,1.35-3.61l.83-.4c-.24.8-.53,1.87-.79,2.66a.73.73,0,0,0,.07.65l.15,0a25.12,25.12,0,0,0,1.12-3.63l.41-.24.79,1.15.17,0c.17-.46.17-.46-.47-1.47a10.51,10.51,0,0,0,1.12-.83,9.55,9.55,0,0,1,.28,5l-.17-1.12,0-.16h-.15c-.11.32-.11.32.19,2.53l-.18,1c-.44.6-1,1.4-1.53,2-.31.57-.1.77,0,.84.4-.47.94-1.07,1.3-1.57l-.42,1.69c-.51.58-1.18,1.36-1.72,1.91-.36.56-.16.75-.09.82.44-.46,1-1,1.46-1.53-.29.83-.65,1.94-1,2.75a.81.81,0,0,0-.07.49l.18,0c.22-.38,1.09-2.94,1.1-3-.06.78-.12,1.82-.21,2.6v.18c.21-.11.48-.24.56-4l.43-1.68c0,.8,0,1.88,0,2.68v.16l.15,0a18.48,18.48,0,0,0,.15-4l.17-1,.6-1.06a1.31,1.31,0,0,0,.06-.74l-.47.56c.1-1,.25-2.41.29-3.45.21,0,.29,0,.45-.45.17.77.43,1.79.54,2.57l-.22,0a1.4,1.4,0,0,0-.06.88l.38,0,0,.72c-.13,1.21-.3,2.83-.5,4,0,.11,0,.25-.05.36a24.65,24.65,0,0,0,.57-3.48l0,1.24c-.2,1.19-.47,2.77-.74,3.94,0,.11-.06.25-.08.35.19-.45.73-3.38.73-3.4l-.19,1.2.07-.36.14-.84.09-.64h0l.11-.89h0l0-1.25h.1l.07-.91h-.19l-.05-.72V57.36c0-.11,0-.26,0-.38-.08.17-.08.17-.07,1.68-.14-.79-.32-1.84-.52-2.62a9.32,9.32,0,0,0-.05-1.88,3.5,3.5,0,0,0,.4-1L86,54.31a2.63,2.63,0,0,0,.1.64A7.77,7.77,0,0,0,86,52.86c0-.09,0-.18,0-.27l.19,1-.15-1L86,52.26a1.08,1.08,0,0,0,0-.19l-.17-.92a2.34,2.34,0,0,1,0,.26l-.35-1.7" fill="#aae3f9"/>
          <path d="M14.75,53.38c-.18.86-.37,1.35-.47,1.2a.08.08,0,0,0,0,0c-.2-.88.44-3.9.68-3.77a6.69,6.69,0,0,1-.19,2.61m.09-3.66L15,49.1l-.23.95,0-.15.05-.18m4.71,7.52a.6.6,0,0,0-.14-.63c-.45-.21-.87-.43-1.27-.66L18,55.87c.44-.47,1-1.11,1.45-1.56a.65.65,0,0,0,0-.81,9.48,9.48,0,0,0-2,2q-.36-.22-.66-.45c.38-.47.88-1.1,1.29-1.54a.75.75,0,0,0,0-.81,11.38,11.38,0,0,0-1.77,2l-.31-.26L16,52.63l0-.15-.16,0c-.11.34-.11.34-.07,1.65a5.32,5.32,0,0,1-.76-1,9.92,9.92,0,0,1,1.4-4.37l-.3,1.21a2.28,2.28,0,0,0,0,.36l.16,0c.26-.69.45-1.65.63-2.35l.4-.65,1.35,0a.77.77,0,0,0,.32-.79l-1.13-.06.79-1.12,1.52,0a.72.72,0,0,0,.36-.77l-1.27,0c.47-.55,1.08-1.29,1.56-1.83a1,1,0,0,0,.25-.58l-.17,0c-.49.56-1.16,1.3-1.62,1.88.37-.81.85-1.91,1.26-2.7a2.19,2.19,0,0,0,.1-.34c-.13,0-.44.07-2,3.83L17.78,46c.33-.83.76-2,1.13-2.78a1.39,1.39,0,0,0,.09-.35c-.36.15-1.16,2.23-1.76,3.94l-.39.65-.49-.06a1.2,1.2,0,0,0-.27.83l.29.05c-.34.7-.81,1.62-1.11,2.33a9.17,9.17,0,0,1,.67-3.89l-.06.59c.23-.26.24-.31.43-1.71l.32-.88c.47-.91,1.1-2.12,1.63-3a3.58,3.58,0,0,0,.24-.48,15.45,15.45,0,0,0-1.43,2.39l.66-1.48c.54-.87,1.24-2,1.83-2.87a2.21,2.21,0,0,0,.3-.54c-.27.26-1.59,2.34-1.6,2.36.41-.71.93-1.67,1.36-2.37l.1-.16c-.31.33-1.6,2.69-1.61,2.71l.59-1.17-.42.76-.1.17c-.18.39-.44.89-.6,1.29l-.66,1.49c.16-.42.36-1,.56-1.41l-.41.86c-.18.49-.45,1.14-.59,1.65l-.32.88-.65,1.7a5,5,0,0,0-.18.61c.16-.34.33-.83.46-1.19-.25.93-.6,2.16-.8,3.09a6.11,6.11,0,0,0-.45,1.46,2.39,2.39,0,0,1,.06-.66l-.18.91a2.9,2.9,0,0,0-.05.58c-.27,1.6-.52,4.6-.52,4.62l.07-1.29v-.18c0,.84-.08,2-.11,2.8v.24l0,0s.08-.84,0-1c.07-.75.15-1.76.27-2.51l.21,4.17-.17-.64c-.15.35-.15.35.27,1.89l.11,1c0,1,.06,2.44.16,3.48a2.74,2.74,0,0,0,.14.63,12.44,12.44,0,0,0-.12-2.86l.32,1.7c.1,1,.22,2.37.39,3.38a2.09,2.09,0,0,0,.19.61,10,10,0,0,0-.29-2.77c.24.84.54,2,.82,2.79a1.55,1.55,0,0,0,.14.29s0,0-.82-3.3c.31.47.7,1.11,1,1.56l.15,0a17.08,17.08,0,0,0-1.47-2.74l-.33-1.71c.26.48.58,1.13.87,1.59l.15-.1-1.2-2.74-.11-1,.19-1.9a1.48,1.48,0,0,0,0-.65c-.26.29-.2.9-.25,1.3,0-1.08-.07-2.52,0-3.6a6.69,6.69,0,0,0,.39-1.31,5.16,5.16,0,0,0,.77,1l-.35.66a1,1,0,0,0,0,.83l.71-1.16.31.27c.19,1,.43,2.47.69,3.51l.06.16.15.05c.07-.12.07-.12-.47-3.39.2.15.43.3.66.45.27,1.06.62,2.47.94,3.51a.52.52,0,0,0,.23.21c.15-.14.15-.14-.63-3.39l.14.08c.4.23.82.45,1.27.66l.18,0a1.74,1.74,0,0,0,.1-.19" fill="#aae3f9"/>
          <path d="M33.61,33.62c-.11.11-1.12,1.12-1.78.94-.74-.4.84-2.17,2.05-2.56.58-.18.75.11.42.72a4.23,4.23,0,0,1-.69.9m7.48-1.87a.46.46,0,0,0,.14-.35c-.22-.22-.52-.51-.72-.74l1.61-.72c.33-.2.36-.36.37-.47s-.07,0-1.73.69c.56-.49,1.29-1.17,1.86-1.65a.6.6,0,0,0,.22-.29c-.15,0-.24,0-2.79,2.24l-1,.41c.59-.51,1.38-1.2,2-1.7.17-.15.17-.15.23-.3-.16,0-.25-.05-2.95,2.3l-.59.23-.33-.56c-.32,0-.56.31-.62.47l.2.38-2,.76c.27-.55.25-.68.21-.92a18.45,18.45,0,0,1,2.29-2.06l-.36.59v.11c.38-.1.38-.1,1.24-1.38l.72-.52c.8-.34,1.85-.81,2.65-1.16a1.78,1.78,0,0,0,.45-.28c-.13,0-.13,0-2.17.82.43-.28.87-.55,1.31-.81l2.58-1a2.15,2.15,0,0,0,.47-.25c-.63.22-1.47.49-2.09.73.76-.41,1.53-.79,2.31-1.13.22-.1.22-.1.29-.17a2.23,2.23,0,0,0-.4.13q-1.19.51-2.34,1.11c.44-.29,1-.7,1.47-.95-.54-.05-2.37,1.43-2.45,1.49-.45.25-.89.52-1.33.8.39-.35.9-.83,1.32-1.15-.14,0-.56-.07-2.27,1.77-.24.16-.49.33-.73.51l-1.47.64c-.46.25-.47.36-.47.46a5.76,5.76,0,0,0,1-.43c-.81.62-1.6,1.27-2.36,2a2.49,2.49,0,0,0-1.3.43c.13-.44.29-1,.46-1.44l.56,0a1.28,1.28,0,0,0,.62-.43l-1,0,.21-.38c.87-.62,2-1.46,3-2a1.49,1.49,0,0,0,.2-.15A12.59,12.59,0,0,0,34.73,29l.46-.62c.94-.57,2.19-1.33,3.16-1.84a1,1,0,0,0,.22-.13,16.28,16.28,0,0,0-3,1.54c.29-.28.67-.67,1-.94-.24-.06-.62.05-1.69,1.26l-1,0a1.68,1.68,0,0,0-.71.42c.41,0,1,0,1.37,0l-.45.65-1.13,0a1.29,1.29,0,0,0-.69.48c.46,0,1.07,0,1.53,0l-.21.39-1.43,1.3a1,1,0,0,0-.15.2l.1.06c.23-.09.23-.09,1.26-1.06-.14.45-.35,1-.45,1.49-.48.36-.77.93-1.31,1.24a13.35,13.35,0,0,1-2.24.83l.91-.78a1.23,1.23,0,0,0,.28-.34l0-.11c-.18,0-.18,0-1.88,1.47l-.57.2a12.78,12.78,0,0,1-.16-1.37c-.4-.05-.81.18-.54,1.61l-.94.34a13.49,13.49,0,0,1,0-1.42c-.23,0-.76,0-.63,1.66l-1.44.55s-.45.28-.49.65c.46-.17,1.07-.39,1.52-.57-.6.62-1.43,1.43-2,2.07-.23.29-.24.36-.24.5,1.91.08,2-1.88,2.92-2.81l.95-.35c-.63.62-1.49,1.42-2.1,2-.24.29-.23.36-.23.49s0,0,3-2.79l.58-.19.27.78s.82.16.46-1l2.19-.75c-.26.58-.19.74-.08,1-.75.87-1.48,1.78-2.16,2.72L29,37v-.12c-.5-.16-.55.12-.82,1.9l-.53.79L25,41.34a.74.74,0,0,0-.3.63l.1.07c.07,0,.07,0,2.2-1.44-.29.47-.58.95-.86,1.44-.77.54-1.8,1.27-2.57,1.83-.17.17-.42.54-.16.73a21.23,21.23,0,0,0,2.15-1.5c-.45.84-.87,1.69-1.27,2.56-.12.36,0,.4.1.49s.18-.07.31-.24c.43-.95.84-1.8,1.28-2.64.06.69.12,1.62.21,2.31.15.4.46,0,.5-.06.67-1.14-.1-2.21-.13-3.32q.41-.73.84-1.44c0,.66,0,1.55,0,2.21.12.38.45,0,.49-.06.68-1,.05-2.12.11-3.17.17-.27.34-.53.52-.79L30.06,38c.26-.21.35-.38.31-.59-.13,0-.13,0-1.11.54.66-.93,1.36-1.83,2.08-2.7a1.9,1.9,0,0,0,1.22-.35c.08.52.18,1.21.31,1.72l-.73.1a.68.68,0,0,0-.48.61l.08.08,1.31-.17.17.49c-.38,1-.89,2.26-1.22,3.24-.08.43.24.34.36.25.93-.73.73-1.91,1.1-2.86l.41.89c-.3,1-.71,2.32-1,3.34,0,.44.29.34.4.24s0,0,.89-2.94c.28.46.63,1.08.93,1.52.38.28.62-.38.57-.54a11.63,11.63,0,0,0-.94-1.55c.6-.1,1.4-.22,2-.33s.44-.67.27-.71a8.63,8.63,0,0,0-2.59.4l-.39-.86,1.89-.29a.59.59,0,0,0,.41-.62c-.07,0-.07,0-2.54.29l-.17-.49.86-1.61a.79.79,0,0,0,0-.22l-.09-.07c-.31.09-.31.09-1,1.29-.09-.49-.23-1.15-.28-1.65.52-.42.8-1.08,1.37-1.45a12.71,12.71,0,0,1,2.11-.79l-.83.78c-.17.18-.17.18-.21.37l.12,0c.18-.08.18-.08,1.68-1.5l.59-.24c.28.31.65.73.94,1,.34,0,.58-.43.52-.55-.14-.28-.51-.53-.71-.77l1-.42c.27.29.64.68.94,1a.38.38,0,0,0,.36-.17" fill="#aae3f9"/>
          <path d="M74.71,82.14A4.33,4.33,0,0,1,73,83.67c-.75.2-.5-.56-.27-1,.67-1.2,2.17-2.21,2.33-1.55a1.6,1.6,0,0,1-.35,1M81.53,76c0-.08.09-.18.12-.26a3.09,3.09,0,0,0-.6-.08c.39-.55.94-1.27,1.31-1.83s.25-.57.23-.67a14.38,14.38,0,0,0-1.42,2c.36-.82.87-1.91,1.2-2.75.08-.25.08-.25.06-.4-1.6.84-1.24,2.62-1.87,3.92l-.9,1c.4-.8,1-1.85,1.31-2.66.1-.25.1-.25,0-.39-1.42.86-1.34,2.53-2,3.79l-.56.57-.73,0c-.2.09-.56.45-.42.71l.44,0c-.61.55-1.41,1.3-2,1.83,0-.47-.2-.55-.54-.54.4-.85.76-1.72,1.1-2.63l.24.52.1,0c.59-.31.59-.31,0-1.59.09-.27.17-.55.26-.83.68-.89,1.59-2.09,2.23-3a.7.7,0,0,0,.12-.56l-.1-.06c-1.1.51-1.3,1.71-2,2.57.13-.5.25-1,.37-1.53.63-.93,1.49-2.18,2.08-3.15.24-.5.08-.59,0-.65-1.14.54-1.22,1.79-1.84,2.68.17-.89.3-1.79.41-2.72,0-.25,0-.25-.18-.34l-.11,0a.77.77,0,0,0-.25.4c-.12,1-.25,1.92-.41,2.8-.34-.47-.77-1.11-1.12-1.57-.4-.24-.58.44-.55.58.19.91,1,1.4,1.45,2.11-.11.52-.23,1-.36,1.52-.29-.44-.66-1-1-1.48-.38-.22-.6.42-.57.56.12.84.84,1.31,1.23,2-.08.28-.17.55-.25.83l-1.35,1.5c-.22.29-.2.37-.17.51.2.06.2.06,1.17-1-.32.9-.68,1.77-1.07,2.61a5,5,0,0,0-1.46,1.13l-1.33-.78.89-.47a.62.62,0,0,0,.35-.59c-.15-.07-.15-.07-1.8.77l-.46-.24c.05-.87.11-2,.12-2.9-.15-.49-.6,0-.65.11-.41.81,0,1.65-.1,2.47l-.93-.45c0-.9-.05-2.09-.11-3-.2-.51-.64,0-.69.1-.42.86.06,1.7.08,2.55l-1.84-.84c-.55-.1-.75.49-.56.65a8.76,8.76,0,0,0,1.89.86c-.79.3-1.82.72-2.61,1-.51.27-.39.6-.19.65s2.88-1.06,3.51-1.32l.93.45c-.73.31-1.71.73-2.46,1-.48.27-.4.58-.22.62s2.71-1.07,3.31-1.33l.46.23-.27,1.43v.12c.48.21.61-.34.81-1.26.4.23.93.53,1.32.77a8.11,8.11,0,0,1-3.32,3.07l.64-.83a.58.58,0,0,0,.09-.25L70,84c-.29.08-.29.08-1.53,1.68l-.72.42L65.53,86a.57.57,0,0,0-.54.45c.09.11.09.11,1.83.2l-1.28.69-2.29-.16a.53.53,0,0,0-.54.42c.11.1.11.1,1.91.21-.65.31-1.5.74-2.16,1a.53.53,0,0,0-.29.28l0,.11c.17,0,.26,0,2.42-1.07-.47.48-1.09,1.12-1.58,1.58l-.09.12L63,90c.24,0,.46-.09,2.51-2.26L66.81,87c-.49.51-1.14,1.21-1.65,1.7a.6.6,0,0,0-.09.22c.23,0,.41,0,2.64-2.42l.71-.42,1,.06a.74.74,0,0,0,.55-.5l-.62-.09c.76-.48,1.78-1.13,2.53-1.63.06.34.13.37.44.41a25.73,25.73,0,0,1-1.71,2.23l0-.36c-.62-.11-.61.65-.6,1.06l-.51.54c-.82.53-1.92,1.25-2.75,1.76a1.08,1.08,0,0,0-.32.25c.11,0,.24,0,2.4-1.37-.31.29-.64.57-1,.84-.82.47-1.91,1.1-2.74,1.54a1.19,1.19,0,0,0-.33.22,12.26,12.26,0,0,0,2.35-1.2,19.86,19.86,0,0,1-1.75,1.18l-.13.08a.81.81,0,0,0,.38-.14,22,22,0,0,0,1.85-1.23,7,7,0,0,1-.58.64c.18-.05.71-.2,1.31-1.21.33-.27.66-.55,1-.84a7.83,7.83,0,0,1-.41.75c.17,0,.69-.13,1.09-1.4l.52-.54,1.46-1.09a1.36,1.36,0,0,0,.29-.3L72,85.69c-.32.2-.71.54-1,.77a25.06,25.06,0,0,0,1.72-2.21A4.74,4.74,0,0,0,74,83.37a7.52,7.52,0,0,1,.5.62l-.68.44a1.42,1.42,0,0,0-.46.5c.43,0,.88-.5,1.24-.73l0,.16c-.55.64-1.28,1.51-1.88,2.11l-.08.09a12.76,12.76,0,0,0,2-2l0,.27c-.62.63-1.45,1.47-2.11,2.05l-.1.09A24.43,24.43,0,0,0,74.59,85a3.83,3.83,0,0,1-.28.42,2.38,2.38,0,0,0,.87-1c.37-.32.88-.74,1.23-1.08a5.94,5.94,0,0,0,.49-.52c-.5.43-1.16,1-1.67,1.41V84c.42-.33,1-.76,1.38-1.1a3.71,3.71,0,0,0,.46-.53c-.56.43-1.3,1-1.87,1.42l-.06-.16.83-1.3,0-.11c-.23,0-.32.12-1,1.2-.15-.19-.34-.45-.5-.62.4-.47.59-1.09,1-1.55S77,80,77.62,79.4l-.64,1a1.79,1.79,0,0,0-.12.24l.07.08c.2-.14.2-.14,1.4-2l.55-.57c.29,0,.69,0,1,0a1.38,1.38,0,0,0,.45-.69h-.76l.89-1,.82,0a1.13,1.13,0,0,0,.27-.38" fill="#aae3f9"/>
          <path d="M26.16,82.27c.32.61.27,1-.13.86a.24.24,0,0,1-.09,0c-1.23-.54-2.5-2.59-2-2.78s1.64.93,2.17,2m6.76-1.35c0-.25,0-.25-2.73-1.49l1.58-.8c.35-.44-.35-.71-.4-.7a6.57,6.57,0,0,0-1.68.83c0-.7,0-1.63,0-2.33-.07-.52-.48-.6-.6-.51a19.67,19.67,0,0,0,0,3.16l-.82.44c-.05-.68-.14-1.58-.16-2.26-.08-.37-.33-.58-.59-.5a19.84,19.84,0,0,0,.2,3.06l-.41.23-1.46-.82-.11,0-.11,0c0,.39,0,.4,1.2,1.09-.33.21-.79.49-1.11.71a6.06,6.06,0,0,0-1.47-1.27c-.41-.85-.78-1.73-1.12-2.64l.77.89c.16.15.16.15.32.17.09-.26.09-.26-1.45-2.09-.1-.27-.19-.55-.27-.83.31-.56.72-1.3,1.06-1.84a.6.6,0,0,0-.44-.74c-.28.45-.68,1-.93,1.51-.13-.5-.26-1-.37-1.53.37-.59.86-1.38,1.26-2a.58.58,0,0,0-.39-.78c-.33.48-.8,1.11-1.1,1.6-.17-.89-.31-1.8-.41-2.72-.05-.23-.14-.49-.36-.54s-.15.09-.16.33q.16,1.4.42,2.73c-.46-.75-1.1-1.75-1.53-2.53-.12-.18-.12-.18-.28-.2-.17.25-.26.4,2,3.86.12.52.24,1,.38,1.53-.49-.73-1.18-1.69-1.65-2.43-.13-.18-.13-.18-.28-.2-.11.3-.17.45,2.25,3.71.08.28.17.56.27.83l-.36.89a.84.84,0,0,0,.45.7l.27-.56q.52,1.36,1.14,2.64c-.35-.06-.51.07-.51.41-.62-.59-1.45-1.38-2.05-2h.4c.14-.7-.51-.72-1.08-.75l-.53-.6c-.52-1-1.22-2.41-1.68-3.47a1.23,1.23,0,0,0-.23-.37l-.09.07c.09.42,1.36,3,1.37,3l-.82-1.09c-.48-1.07-1.11-2.5-1.52-3.59a2.24,2.24,0,0,0-.19-.38c-.13.28.67,2.1,1.16,3.17-.35-.58-.83-1.33-1.15-1.91l-.06-.1a8.7,8.7,0,0,0,1.35,2.55l-.4-.07c.25.77.25.77.95.86l.81,1.08-.57-.08c.2.74.22.74,1.2.84l.52.6,1.08,1.72a1.46,1.46,0,0,0,.28.32l.07-.11c-.2-.37-.52-.84-.75-1.19.61.6,1.41,1.41,2,2a5.71,5.71,0,0,0,.9,1.46,3.61,3.61,0,0,0-.39.6l-.51-.78c-.27-.4-.39-.45-.49-.49a8.51,8.51,0,0,0,.94,1.47v.15c-.5-.45-1.16-1-1.63-1.52a11.58,11.58,0,0,0,1.65,1.72l.1.26c-.37-.38-.87-.87-1.22-1.26l0,0,.72.8.58.6.16.18.58.58-.16-.18,1,1,.88.78c-.6-.57-1.42-1.32-2-1.92l-.11-.25c.48.51,1.1,1.21,1.6,1.7l.43.37c-.62-.67-1.47-1.55-2.05-2.26v-.15l1.07.8c0-.24-.06-.28-1-1a5.79,5.79,0,0,1,.38-.58,6.57,6.57,0,0,0,1.24,1,26,26,0,0,0,1.85,2.29l-.85-.68a1,1,0,0,0-.22-.14c0,.2,0,.2,1.75,1.54l.55.56a9.82,9.82,0,0,0,.67,1,3.41,3.41,0,0,0,.53.39c-.14-.22-.34-.51-.47-.74.34.3.68.59,1,.87a9.14,9.14,0,0,0,.88.88,5.5,5.5,0,0,0,.59.36,8.43,8.43,0,0,1-.69-.65c.61.45,1.25.86,1.9,1.25a3.48,3.48,0,0,0,.47.23l-.13-.09c-.7-.41-1.32-.82-1.93-1.26.65.36,1.5.86,2.15,1.21l.22.09c-.85-1-2.09-1.24-3.13-1.88q-.53-.42-1-.87c.64.42,1.49,1,2.14,1.38a1.2,1.2,0,0,0,.23.11C32,88.16,30.52,88,29.5,87.29c-.19-.18-.37-.36-.55-.55l-.09-.6a1.07,1.07,0,0,0-.58-.51V86a28.5,28.5,0,0,1-1.79-2.25c.35.08.4,0,.5-.15l2.42,1.58-.48,0,0,.12c.28.43.28.43,1.37.4l.68.43c.67.68,1.55,1.6,2.25,2.26a.78.78,0,0,0,.45.22c-.19-1-1.22-1.31-1.83-2L33,87.4c.65.64,1.51,1.49,2.19,2.09a.73.73,0,0,0,.45.2c-.14-1-1.18-1.21-1.77-1.81.61.31,1.42.75,2,1.05a.64.64,0,0,0,.23,0l.05-.1c-.09-.13-.09-.13-2.36-1.37l1.52-.09.1-.09c-.13-.43-.13-.43-2.49-.3l-1.22-.71,1.48-.08.1-.09c-.16-.45-.16-.45-2.46-.36l-.68-.43L29.07,84a.76.76,0,0,0-.4-.29l-.11,0c0,.16,0,.16.77,1.09-.71-.49-1.66-1.14-2.36-1.65a4.65,4.65,0,0,0-.76-1.46L27.33,81l.23.84s.28.59.6.43a7.56,7.56,0,0,0-.35-1.55l.4-.22c.86.41,2,1,2.88,1.35a.53.53,0,0,0,.25,0c.16-.31.16-.31-2.59-1.65l.81-.43c.91.41,2.11,1,3,1.34.1,0,.35.07.34-.17" fill="#aae3f9"/>
          <path d="M50.87,94.19s-.15.22-.79.23-1-.24-.76-.42,1.57-.21,1.57.13a.14.14,0,0,1,0,.06m-1.41.43h0m.87,0h0m4-.24h.07c-.42,0-.83.09-1.24.13l1.17-.12m3.33-1.6.08-.07s0,0-1.44-.15l1.81-.63c.25-.12.25-.16.25-.26s-.09,0-2.12.66c.35-.34.83-.78,1.17-1.14a.29.29,0,0,0,0-.16c-.2-.08-.2-.08-1.94,1.55l-1,.32c.3-.3.71-.7,1-1l0-.09c-.16-.22-.16-.22-1.73,1.31l-.52.15-1-.11c-.26,0-.29.07-.33.16a1.66,1.66,0,0,0,.71.13l-1.54.41a1.69,1.69,0,0,0-.85-.25c0-.26,0-.57,0-.92l.49.26c.21.07.33,0,.43-.1-.17-.27-.63-.41-.9-.57,0-.11,0-.23,0-.35l1.89-1.15a.42.42,0,0,0,.11-.18c-.19-.27-.19-.27-2,.85,0-.23,0-.47,0-.73.62-.4,1.44-.93,2-1.34.31-.29-.12-.38-.12-.38-.16,0-.16,0-1.92,1.16q0-.69,0-1.47c0-.12-.11-.25-.4-.23s-.19.07-.25.18c0,.57,0,1.06,0,1.51l-1.6-1.09c-.37-.19-.54,0-.53.15s0,.11,2.14,1.51c0,.25,0,.5,0,.73l-1.49-1c-.31-.15-.53,0-.48.17a13.54,13.54,0,0,0,2,1.26c0,.12,0,.23,0,.35l-.84.47-.06.07c.14.28.26.21.91-.13,0,.35,0,.65,0,.91a1.89,1.89,0,0,0-.86.22l-1.59-.44.57-.06.1,0,0-.08c-.12-.14-.12-.14-1.31,0L46.3,93c-.36-.38-.85-.9-1.19-1.29-.26-.21-.43-.16-.51,0a10.07,10.07,0,0,0,1,1.12l-1-.32c-.42-.43-1-1-1.4-1.46-.07-.06-.31-.26-.51-.09A7.88,7.88,0,0,0,44,92.24c-.53-.19-1.24-.45-1.77-.66a.3.3,0,0,0-.28,0c0,.2,0,.2,2,.89-.39,0-.91.08-1.3.1l-.07.05c.18.25.18.25,2.08.1l.95.31-1.28.1-.07,0c.18.22.18.22,2,.06l.5.15.55.48a.52.52,0,0,0,.34.06v-.09l-.3-.27,1.56.41c0,.14,0,.19.13.32l-1,.16L48,94.33a.42.42,0,0,0-.29-.08l.1.23-.18,0-1.48-.17H46a4.8,4.8,0,0,0,1.38.19h-.22l-1.38-.15c.26,0,.61.07.87.1l1,.08H48l-.11,0h.17l.7,0h.1a2.08,2.08,0,0,0-.55-.07c.27,0,.64-.08.92-.13a2.41,2.41,0,0,0,.63.11l.06.13h.24a.55.55,0,0,0,0-.12,8.89,8.89,0,0,1,1.6,0l-.43,0h-.08l.77,0h.1l.26,0h0l.47,0h-.2l1.13-.12.21,0-1.55.14-.19,0,.14-.18c-.23-.09-.28,0-.41.15l-.93-.14c.2-.12.22-.16.22-.31l1.52-.41-.3.27V94c.23,0,.23,0,.9-.52l.51-.14,1.66.12a.68.68,0,0,0,.4-.15l-.07-.08-1.32-.09,1-.3,1.71.1a.73.73,0,0,0,.38-.12" fill="#aae3f9"/>
          <path d="M50.45,24.82c0,.35,0,.7-.23.73-.44-.06-.15-1.43,0-1.52s.21.52.23.79m3.37,2.06c-.07-.1-.18-.23-.31-.23-.18.18-.43.43-.63.6l-.59-.41c.15-.13.34-.3.48-.44a.48.48,0,0,0-.29-.4c-.17.17-.39.39-.57.55l-.28-.23-.45-.94c-.06-.11-.06-.11-.13-.13s0,.11.26.78c-.21-.22-.51-.51-.7-.75l-.13-1.46.17.42c.06.15.07.16.12.2a2.6,2.6,0,0,0-.36-.82l-.09-.15c.11.1.25.22.37.31,0-.08,0-.08-.45-.42l0,0,0,0h0a2.26,2.26,0,0,0,.11.22,2.55,2.55,0,0,1,0,.55,2.76,2.76,0,0,0-.14-.41c0-.12,0-.25,0-.36,0,.11,0,.23,0,.36s0,.1-.13.36a2.17,2.17,0,0,1,.07-.57l.06-.11-.09.05-.26.23a1.81,1.81,0,0,0,.33-.28l-.09.15-.35.69,0,.07h.06l.24-.55a4,4,0,0,0,0,.6c-.29,1-.29,1-.88,1.57l.24-.53a.84.84,0,0,0,0-.2l0,0a5.39,5.39,0,0,0-.55,1l-.28.23c-.15-.16-.35-.37-.49-.54-.44.07-.4.35.12.83l-.58.4a7.68,7.68,0,0,1-.55-.59c-.15,0-.35.25-.37.39.14.15.32.36.48.5-.35.22-.81.51-1.17.71-.09.07-.29.25-.26.45.07,0,.11.05,1.33-.74l-1.1,1.67c-.12.21-.08.28,0,.34s.14,0,1.6-2.32l.59-.42-.9,1.6c-.14.28,0,.35.06.32s.09,0,1.23-2.22l.28-.23.39.31c.21,0,.19-.38.16-.41a.82.82,0,0,0-.22-.19c.23-.24.55-.55.77-.81a.59.59,0,0,0,.24.47c0,.57-.05,1.18-.08,1.85l-.22-.47a.18.18,0,0,0-.08-.07c-.23.15-.23.15.28,1.23,0,.19,0,.38,0,.57-.35.52-.82,1.21-1.2,1.71-.19.34,0,.51.09.5A9.87,9.87,0,0,0,50,29.81c0,.36,0,.72,0,1.1-.41.56-1,1.32-1.39,1.86-.18.27-.06.56.11.54a10.16,10.16,0,0,0,1.26-1.58c0,.66,0,1.34,0,2.05,0,.36.27.37.38.23a.36.36,0,0,0,.07-.23c0-.71,0-1.39,0-2,.33.45.75,1.06,1.09,1.49.21.22.35,0,.36-.17,0-1.06-1-1.43-1.45-2.15V29.82c.28.41.64,1,.93,1.37.2.21.3,0,.31-.15,0-.95-.84-1.31-1.25-2v-.57l.43-.83c0-.16,0-.36-.13-.4s-.22.37-.3.54c0-.66,0-1.26,0-1.82.12-.05.21-.09.3-.39.22.25.52.58.76.81l-.23.18a.32.32,0,0,0,.12.43l.44-.31.29.23L53,29c.21.34.3.08.3.08s0-.1-.94-1.85l.6.43c.4.64.92,1.51,1.31,2.16.26.36.34.09.34.08s0-.12-1.17-1.93c.37.22.86.53,1.24.74l.11,0c.13-.19.13-.19-1.44-1.18.16-.15.38-.34.53-.49a.2.2,0,0,0,0-.19" fill="#aae3f9"/>
        </g>
        <g>
          <path d="M50.54,5.68h0a6,6,0,0,0-6,6v3.21h2.36V11.68a3.65,3.65,0,1,1,7.29,0v3.21h2.36V11.68A6,6,0,0,0,50.54,5.68Z" fill="#f2ab38"/>
          <g>
            <path d="M44.52,13.91H55.85a6,6,0,0,1,6,6v3.74a0,0,0,0,1,0,0H38.51a0,0,0,0,1,0,0V19.91A6,6,0,0,1,44.52,13.91Z" fill="#353232"/>
            <path d="M44.52,13.91H55.85a6,6,0,0,1,6,6v3.74a0,0,0,0,1,0,0H38.51a0,0,0,0,1,0,0V19.91A6,6,0,0,1,44.52,13.91Z" fill="#f4c237"/>
            <path d="M55.47,23.65h6.38V17.81a3.9,3.9,0,0,0-3.9-3.9H54.56C55.38,16.35,56.39,20.44,55.47,23.65Z" fill="#f2ab38"/>
          </g>
        </g>
      </g>

</svg>
