<svg xmlns="http://www.w3.org/2000/svg" xmlns:xlink="http://www.w3.org/1999/xlink" width="100%"
  viewBox="0 0 100 100">

  <g>
    <circle cx="49.62" cy="58.08" r="36.38" transform="translate(-18.94 24.4) rotate(-23.33)"
      fill="#cf3adb" />
    <path d="M50,21.7A29.53,29.53,0,0,1,14.16,66.22,36.38,36.38,0,1,0,50,21.7Z" fill="#af21bf" />
    <path
      d="M60,23.19A36.38,36.38,0,0,1,32.8,83.79,36.62,36.62,0,0,1,22.48,82.3,36.38,36.38,0,1,0,60,23.19Z"
      fill="#8c0e9e" />
    <g>
      <path
        d="M53.1,22.86c1.2.76-.76,1.24-1,1.29-2.74.64-6.92,0-6.3-1a1.44,1.44,0,0,1,.74-.47,26,26,0,0,1,3.07.47,29.44,29.44,0,0,1,3.47-.27"
        fill="#f4c237" />
      <path
        d="M74.25,31.35l.24.23C78,34.89,72.56,38.51,61,40.07c-12.86,1.73-28.41.22-34.71-3.36-3-1.7-3.37-3.56-1.58-5.23l.24-.22c1.05-.9,2.47-2.05,3.57-2.88-2.27,1.59-2.2,3.43.72,5.09,5.51,3.13,19.08,4.44,30.32,2.93,10.72-1.44,15.44-4.94,11-8,1.11.84,2.58,2,3.61,2.92"
        fill="#ea95f4" />
      <path
        d="M85.45,52l.35,2.79c.35,3.81-7.15,7.49-20.28,9.26-18,2.41-39.68.31-48.49-4.69-2.66-1.52-3.84-3.12-3.7-4.69l.37-2.79.4-2c-.38,1.66.74,3.37,3.56,5,8.65,4.91,29.94,7,47.56,4.6,13.3-1.79,20.71-5.59,19.84-9.46l.39,2"
        fill="#ea95f4" />
      <path
        d="M78.71,79.86c-1.82,2.41-7.48,4.56-16.06,5.72-14.78,2-32.64.26-39.88-3.86a7.88,7.88,0,0,1-2.43-2c-.54-.78-1.27-1.8-1.77-2.6l-.79-1.35a7.41,7.41,0,0,0,2.9,2.55c7.82,4.44,27.07,6.3,43,4.16,9.78-1.31,16-3.83,17.6-6.61-.74,1.21-1.74,2.81-2.57,4"
        fill="#ea95f4" />
      <path
        d="M54.42,94.14l-1.87.21-1.68.09c-1.06,0-1.06,0-1.59,0-1.05,0-1.05,0-1.58,0l-1.64-.12c-1.18-.13-1.2-.13-1.81-.22-1.31-.21-1.36-.22-2.08-.37-1.55-.35-1.65-.37-2.54-.62L39,92.92c4.18,1.25,11,1.66,16.75.88a29.48,29.48,0,0,0,3.51-.66,37.72,37.72,0,0,1-4.88,1"
        fill="#f4c237" />
      <path
        d="M35.4,25.19c-3.08,1.1-3.08,1.1-3.18,1.11l0,0c1.13-1.05,7-3.15,8.49-2.86v.05a7.27,7.27,0,0,1-1.27.42c-.87.26-2.18.66-4,1.32"
        fill="#f4c237" />
      <path
        d="M37.35,28.15c-4,2.53-4.67,1.94-4.6,1.5C33,27.91,39.84,25,41,25.38l0,.05c0,.37-2.84,2.18-3.69,2.72"
        fill="#f4c237" />
      <path
        d="M46,29.92c-1.2,2.77-3.7,3.37-4.16,2-.61-1.83,2.82-5.17,4.27-5.15.86.2.21,2.42-.11,3.17"
        fill="#f4c237" />
      <path
        d="M56.68,29.56c1.29,2,.54,3.36-1,3.09-2.75-.47-3.88-5.14-2.91-5.8a.58.58,0,0,1,.21-.07c1,0,2.82,1.52,3.66,2.78"
        fill="#f4c237" />
      <path
        d="M63.46,27.27c2.55,1.4,3.37,2.71,2.67,2.87-1.18.28-7.87-4-8-4.65l0,0c.49-.15,3.1.62,5.28,1.82"
        fill="#f4c237" />
      <path
        d="M62.68,24.29a17.23,17.23,0,0,1,4.47,2.13l0,0c-.39,0-8.47-2.92-8.51-2.94v-.06a12,12,0,0,1,4,.82"
        fill="#f4c237" />
      <path
        d="M22.1,47.13c-1.43,3-3.65,4.06-4.31,2.08-.89-2.68,2.26-9,4.66-7.85,1.29,1,.47,4.07-.35,5.77"
        fill="#f4c237" />
      <path d="M41.39,51.08c-.8,3.81-5,5.28-7.1,2.47s.18-8.11,4.1-7.9c2.75.48,3.4,3.47,3,5.43"
        fill="#f4c237" />
      <path
        d="M65.39,50.27a4,4,0,0,1-6.45,4c-3-2.22-2.62-7.84,1.37-8.5,3.06-.15,4.81,2.56,5.08,4.53"
        fill="#f4c237" />
      <path
        d="M80.57,45.14c1.28,3,.81,5.73-.89,5.21-2.27-.7-5.07-7.3-3.11-8.79,1.26-.56,3.06,1.43,4,3.58"
        fill="#f4c237" />
      <path
        d="M19.48,70.75c.33,2.37-.31,3.5-1.46,2.58-2.31-1.84-4-8.92-2.14-9.12a1.09,1.09,0,0,1,.58.17c1.63,1.17,2.75,4.43,3,6.37"
        fill="#f4c237" />
      <path
        d="M40.57,75.07c-.17,3.75-4.64,4.63-7.36,1.45-2.46-2.88-1.42-7.16,2.69-6.91a5.49,5.49,0,0,1,4.67,5.46"
        fill="#f4c237" />
      <path
        d="M66.82,74.2c-.87,4.06-6.34,5.91-8.48,2.86-1.59-2.27-.11-6.66,4.28-7.34,3.61-.2,4.63,2.5,4.2,4.48"
        fill="#f4c237" />
      <path
        d="M83.43,68.58c-.88,3.58-3,6.35-3.79,4.87-.84-1.67.75-7.4,2.8-8.83,1.38-.66,1.59,1.54,1,4"
        fill="#f4c237" />
      <path
        d="M30.88,89.13a22.06,22.06,0,0,0,1.87,1.21l-1.14-.61a36.5,36.5,0,0,1-5.18-3.57L26,85.81a2.27,2.27,0,0,1-.47-.47c.09,0,.09,0,.3.13,1.75,1.12,3.34,2.46,5,3.66"
        fill="#f4c237" />
      <path
        d="M44,91.8c.5,1.3-1.17,1.55-3.5.52s-3.25-2.5-2-3a3,3,0,0,1,1.31-.1A5.46,5.46,0,0,1,44,91.8"
        fill="#f4c237" />
      <path
        d="M60.22,91.26c-1.64,1.47-5.76,2.58-5.72.92,0-1,1.69-2.52,4.36-2.88,2.3-.17,2.28.87,1.73,1.57a4.51,4.51,0,0,1-.37.39"
        fill="#f4c237" />
      <path
        d="M68.92,88.89c-.82.48-1.91,1.11-2.74,1.56,2.45-1.36,4.48-3.33,6.86-4.8a1.15,1.15,0,0,1,.27-.13c0,.06,0,.15-.67.68-1.09.84-2.56,2-3.72,2.69"
        fill="#ff9797" />
    </g>
    <g>
      <path
        d="M50.54,5.69h0a6,6,0,0,0-6,6v3.22h2.36V11.7a3.65,3.65,0,1,1,7.3,0v3.22h2.36V11.7A6,6,0,0,0,50.54,5.69Z"
        fill="#f2ab38" />
      <g>
        <path
          d="M44.51,13.93H55.87a6,6,0,0,1,6,6v3.75a0,0,0,0,1,0,0H38.51a0,0,0,0,1,0,0V19.93A6,6,0,0,1,44.51,13.93Z"
          fill="#353232" />
        <path
          d="M44.51,13.93H55.87a6,6,0,0,1,6,6v3.75a0,0,0,0,1,0,0H38.51a0,0,0,0,1,0,0V19.93A6,6,0,0,1,44.51,13.93Z"
          fill="#f4c237" />
        <path
          d="M55.48,23.68h6.39V17.84A3.91,3.91,0,0,0,58,13.93H54.57C55.39,16.38,56.41,20.47,55.48,23.68Z"
          fill="#f2ab38" />
      </g>
    </g>
  </g>
</svg>