<svg xmlns="http://www.w3.org/2000/svg" width="100%" viewBox="0 0 100 100">
  <g id="Слой_2" data-name="Слой 2">
    <g id="toy_16">
      <g id="toy_24">
        <g>
          <g>
            <path d="M50.76,14.64l-.36.28L50,14.64c-53.37,46-12.84,44.58-.8,73.62a2.2,2.2,0,1,0,2.31,0C63.59,59.22,104.13,60.61,50.76,14.64Z" fill="#ff162b"/>
            <path d="M36.67,66.08c4.69,4.61,9.92,9.74,13.73,16.74,3.81-7,9-12.13,13.73-16.74,5.75-5.64,10.3-10.1,10.11-15.85a13.39,13.39,0,0,0-.55-3.29c-11.15,21.4-33.19,5.3-47.09,2.58,0,.24,0,.47,0,.71C26.37,56,30.91,60.44,36.67,66.08Z" fill="#c91859"/>
            <path d="M30,50.36c-.12,4.06,3.21,7.53,9.09,13.3A90.71,90.71,0,0,1,50.4,76.41,90.71,90.71,0,0,1,61.76,63.66c5.37-5.27,8.6-8.62,9-12.25C60,64.62,42.62,54.13,30,50.36Z" fill="#b51154"/>
            <path d="M64.49,27.53c-5.15,7.55-15.09,15.28-31.78,4A68.84,68.84,0,0,0,28.42,37C54.5,53.59,68.63,48.3,75.47,42.23,73.47,38.08,70,33.28,64.49,27.53Z" fill="#ff5f5f"/>
          </g>
          <g>
            <circle cx="50.37" cy="49.55" r="18.59" fill="#e0f4ff"/>
            <g>
              <path d="M24.91,49.55A25.28,25.28,0,0,1,27.49,38.4a29,29,0,0,0-3.74,7.94,28.51,28.51,0,0,0-.19,3.21,26.7,26.7,0,0,0,.92,7,24.86,24.86,0,0,0,3.95,5.92A25.31,25.31,0,0,1,24.91,49.55Z" fill="#e0f4ff"/>
              <path d="M50.37,75A25.33,25.33,0,0,1,37,71.23c1,1,1.93,2,2.89,3a26.78,26.78,0,0,0,21,0c1-1.07,2-2.09,3-3.09A25.27,25.27,0,0,1,50.37,75Z" fill="#e0f4ff"/>
              <path d="M76.16,56.87a26.74,26.74,0,0,0,1-7.32A26.06,26.06,0,0,0,76.94,46,30.12,30.12,0,0,0,73,38a25.35,25.35,0,0,1-.84,24.67A26.28,26.28,0,0,0,76.16,56.87Z" fill="#e0f4ff"/>
              <path d="M38,25.76c-1.54,1.56-2.94,3-4.22,4.48a25.4,25.4,0,0,1,33.36.21c-1.3-1.47-2.75-3-4.34-4.63A26.73,26.73,0,0,0,38,25.76Z" fill="#e0f4ff"/>
            </g>
            <path d="M50.37,65.16A15.61,15.61,0,1,1,66,49.55,15.62,15.62,0,0,1,50.37,65.16Zm0-30.54A14.93,14.93,0,1,0,65.3,49.55,15,15,0,0,0,50.37,34.62Z" fill="#b51154"/>
            <circle cx="50.37" cy="49.55" r="3.29" fill="#ff162b"/>
            <g>
              <path d="M50.37,35.71A3.29,3.29,0,0,0,47.08,39c0,1.81,3.29,6.55,3.29,6.55s3.29-4.74,3.29-6.55A3.29,3.29,0,0,0,50.37,35.71Z" fill="#ff162b"/>
              <path d="M47.08,60.11a3.29,3.29,0,0,0,6.58,0c0-1.82-3.29-6.55-3.29-6.55S47.08,58.29,47.08,60.11Z" fill="#ff162b"/>
              <path d="M60.93,46.26c-1.82,0-6.56,3.29-6.56,3.29s4.74,3.29,6.56,3.29a3.29,3.29,0,0,0,0-6.58Z" fill="#ff162b"/>
              <path d="M36.52,49.55a3.29,3.29,0,0,0,3.29,3.29c1.82,0,6.56-3.29,6.56-3.29s-4.74-3.29-6.56-3.29A3.3,3.3,0,0,0,36.52,49.55Z" fill="#ff162b"/>
            </g>
            <g>
              <path d="M60.16,39.76a3.3,3.3,0,0,0-4.65,0c-1.29,1.29-2.31,7-2.31,7s5.68-1,7-2.31A3.28,3.28,0,0,0,60.16,39.76Z" fill="#ff162b"/>
              <path d="M40.58,54.69a3.29,3.29,0,0,0,4.65,4.65c1.29-1.28,2.31-7,2.31-7S41.86,53.41,40.58,54.69Z" fill="#ff162b"/>
              <path d="M60.16,54.69c-1.28-1.28-7-2.31-7-2.31s1,5.68,2.31,7a3.29,3.29,0,0,0,4.65-4.65Z" fill="#ff162b"/>
              <path d="M40.58,39.76a3.28,3.28,0,0,0,0,4.65c1.28,1.29,7,2.31,7,2.31s-1-5.67-2.31-7A3.3,3.3,0,0,0,40.58,39.76Z" fill="#ff162b"/>
            </g>
          </g>
        </g>
        <path d="M50.38,6.23h0a5.92,5.92,0,0,0-5.93,5.93h0v3.18h2.33V12.16a3.61,3.61,0,0,1,7.21,0v3.18h2.33V12.16a5.92,5.92,0,0,0-5.93-5.93Z" fill="#f2ab38"/>
        <path d="M44.51,14.36H55.56a6,6,0,0,1,6,6h0V24H38.51V20.36a6,6,0,0,1,6-6Z" fill="#f4c237"/>
        <path d="M55.26,24h6.3V18.21a3.85,3.85,0,0,0-3.85-3.85H54.36C55.17,16.77,56.17,20.82,55.26,24Z" fill="#f2ab38"/>
        <rect width="100" height="100" fill="none"/>
      </g>
    </g>
  </g>
</svg>
