<svg xmlns="http://www.w3.org/2000/svg" xmlns:xlink="http://www.w3.org/1999/xlink" width="100%" viewBox="0 0 100 100">

      <path d="M49.05,81.19,36.14,88.8a7.24,7.24,0,0,1-10.86-7.12L27.1,66.81a7.28,7.28,0,0,0-2.39-6.3L13.48,50.59a7.24,7.24,0,0,1,3.41-12.53L31.6,35.19A7.23,7.23,0,0,0,36.85,31l6-13.73a7.24,7.24,0,0,1,13-.63L63.06,29.7a7.25,7.25,0,0,0,5.63,3.69l14.92,1.44A7.23,7.23,0,0,1,88.21,47L78,57.93a7.23,7.23,0,0,0-1.76,6.5l3.24,14.62a7.23,7.23,0,0,1-10.12,8.13L55.78,80.86A7.25,7.25,0,0,0,49.05,81.19Z" fill="#af21bf"/>
      <path d="M57.23,77.75l13.58,6.32a3.81,3.81,0,0,0,1.79.36,3.86,3.86,0,0,0,2.86-1.53,3.64,3.64,0,0,0,.66-3.1L72.88,65.17a10.7,10.7,0,0,1,0-4.4C51.54,69,37.32,52.35,25.63,39.86l-8.08,1.58A3.79,3.79,0,0,0,15.76,48L27,57.94a10.65,10.65,0,0,1,3.53,9.29L28.7,82.1a3.62,3.62,0,0,0,1,3,3.87,3.87,0,0,0,3,1.25,3.8,3.8,0,0,0,1.75-.54l12.9-7.6a10.65,10.65,0,0,1,9.93-.48Z" fill="#8c0e9e"/>
      <path d="M35.47,33.05a7.23,7.23,0,0,1-3.87,2.14l-1.24.24C42.82,52.42,59,61.7,81.13,54.57L88.21,47a7.24,7.24,0,0,0-1.62-11.18C73,44.12,51.77,51.72,35.47,33.05Z" fill="#cf3adb"/>
      <path d="M72.44,81.21a.52.52,0,0,1-.27-.07L58.59,74.82a13.92,13.92,0,0,0-12.93.63l-12.9,7.6a.57.57,0,0,1-.27.1.69.69,0,0,1-.47-.22.45.45,0,0,1-.12-.44l1.81-14.87a13.89,13.89,0,0,0-4.59-12.1L17.9,45.6a.49.49,0,0,1-.17-.58.5.5,0,0,1,.44-.42l14.7-2.86A13.89,13.89,0,0,0,43,33.63l6-13.74a.58.58,0,0,1,1-.05l7.27,13.1A13.91,13.91,0,0,0,68.06,40L83,41.46a.57.57,0,0,1,.36,1l-10.2,11a13.89,13.89,0,0,0-3.4,12.48L73,80.5a.44.44,0,0,1-.07.44A.72.72,0,0,1,72.44,81.21Z" fill="none" stroke="#fff" stroke-miterlimit="10"/>
      <path d="M50.24,7.58h0a5.92,5.92,0,0,0-5.93,5.93h0v3.18h2.33V13.51a3.61,3.61,0,0,1,7.21,0v3.18h2.33V13.51a5.93,5.93,0,0,0-5.93-5.93Z" fill="#f2ab38"/>
      <path d="M44.37,15.71H55.42a6,6,0,0,1,6,6h0v3.64H38.37V21.71a6,6,0,0,1,6-6Z" fill="#f4c237"/>
      <path d="M55.12,25.35h6.3V19.56a3.85,3.85,0,0,0-3.85-3.85H54.22C55,18.12,56,22.17,55.12,25.35Z" fill="#f2ab38"/>

</svg>
