<svg xmlns="http://www.w3.org/2000/svg" xmlns:xlink="http://www.w3.org/1999/xlink" width="100%" viewBox="0 0 71.84 87.97">
  <defs>
    <symbol id="toy_15" data-name="toy 15" viewBox="0 0 71.84 87.97">
      <circle cx="35.92" cy="35.94" r="35.92" fill="#0078ff"/>
      <path d="M35.51,71.85a29.16,29.16,0,0,1,35.42-44,35.92,35.92,0,1,0-35.42,44Z" fill="#005ec7"/>
      <path d="M25.72,70.39A35.93,35.93,0,0,1,62.72,12a35.92,35.92,0,1,0-37,58.36Z" fill="#004593"/>
      <path d="M35.38,88h0a5.92,5.92,0,0,0,6-5.86h0V79h-2v3.18a3.5,3.5,0,0,1-7,0V79h-3v3.08A5.93,5.93,0,0,0,35.3,88Z" fill="#f2ab38"/>
      <path d="M41.38,80h-11a6.11,6.11,0,0,1-6-6.22h0V70h23v3.78a6.11,6.11,0,0,1-6,6.22Z" fill="#f4c237"/>
      <path d="M30.91,70H24.37v6.15A3.85,3.85,0,0,0,28.22,80h3.62C31,77.47,30,73.27,30.91,70Z" fill="#f2ab38"/>
    </symbol>
  </defs>
  <g id="Слой_2" data-name="Слой 2">
    <g id="Слой_15" data-name="Слой 15">
      <use id="toy_15-3" data-name="toy_15" width="71.84" height="87.97" transform="matrix(1, 0, 0, -1, 0, 87.97)" xlink:href="#toy_15"/>
    </g>
  </g>
</svg>
