<svg xmlns="http://www.w3.org/2000/svg" xmlns:xlink="http://www.w3.org/1999/xlink" width="100%" viewBox="0 0 100 100">
        <path d="M47.05,83.19,34.14,90.8a7.24,7.24,0,0,1-10.86-7.12L25.1,68.81a7.28,7.28,0,0,0-2.39-6.3L11.48,52.59a7.24,7.24,0,0,1,3.41-12.53L29.6,37.19A7.23,7.23,0,0,0,34.85,33l6-13.73a7.24,7.24,0,0,1,13-.63L61.06,31.7a7.25,7.25,0,0,0,5.63,3.69l14.92,1.44A7.23,7.23,0,0,1,86.21,49L76,59.93a7.23,7.23,0,0,0-1.76,6.5l3.24,14.62a7.23,7.23,0,0,1-10.12,8.13L53.78,82.86A7.25,7.25,0,0,0,47.05,83.19Z" fill="#00beff"/>
        <path d="M55.23,79.75l13.58,6.32a3.81,3.81,0,0,0,1.79.36,3.86,3.86,0,0,0,2.86-1.53,3.64,3.64,0,0,0,.66-3.1L70.88,67.17a10.7,10.7,0,0,1,0-4.4C49.54,71,35.32,54.35,23.63,41.86l-8.08,1.58A3.79,3.79,0,0,0,13.76,50L25,59.94a10.65,10.65,0,0,1,3.53,9.29L26.7,84.1a3.62,3.62,0,0,0,1,3,3.87,3.87,0,0,0,3,1.25,3.8,3.8,0,0,0,1.75-.54l12.9-7.6a10.65,10.65,0,0,1,9.93-.48Z" fill="#2d8bff"/>
        <path d="M33.47,35.05a7.23,7.23,0,0,1-3.87,2.14l-1.24.24C40.82,54.42,57,63.7,79.13,56.57L86.21,49a7.24,7.24,0,0,0-1.62-11.18C71,46.12,49.77,53.72,33.47,35.05Z" fill="#5ae3ff"/>
        <path d="M70.44,83.21a.52.52,0,0,1-.27-.07L56.59,76.82a13.92,13.92,0,0,0-12.93.63l-12.9,7.6a.57.57,0,0,1-.27.1.69.69,0,0,1-.47-.22.45.45,0,0,1-.12-.44l1.81-14.87a13.89,13.89,0,0,0-4.59-12.1L15.9,47.6a.49.49,0,0,1-.17-.58.5.5,0,0,1,.44-.42l14.7-2.86A13.89,13.89,0,0,0,41,35.63l6-13.74a.58.58,0,0,1,1-.05l7.27,13.1A13.91,13.91,0,0,0,66.06,42L81,43.46a.57.57,0,0,1,.36,1l-10.2,11a13.89,13.89,0,0,0-3.4,12.48L71,82.5a.44.44,0,0,1-.07.44A.72.72,0,0,1,70.44,83.21Z" fill="none" stroke="#fff" stroke-miterlimit="10"/>
        <path d="M48.24,9.58h0a5.92,5.92,0,0,0-5.93,5.93h0v3.18h2.33V15.51a3.61,3.61,0,0,1,7.21,0v3.18h2.33V15.51a5.93,5.93,0,0,0-5.93-5.93Z" fill="#f2ab38"/>
        <path d="M42.37,17.71H53.42a6,6,0,0,1,6,6h0v3.64H36.37V23.71a6,6,0,0,1,6-6Z" fill="#f4c237"/>
        <path d="M53.12,27.35h6.3V21.56a3.85,3.85,0,0,0-3.85-3.85H52.22C53,20.12,54,24.17,53.12,27.35Z" fill="#f2ab38"/>
</svg>
