<svg xmlns="http://www.w3.org/2000/svg" xmlns:xlink="http://www.w3.org/1999/xlink" width="100%" viewBox="0 0 100 100">
      <g>
        <circle cx="49.91" cy="58.75" r="36.38" fill="#62c3f4"/>
        <path d="M50.31,22.38A29.52,29.52,0,0,1,14.44,66.89,36.38,36.38,0,1,0,50.31,22.38Z" fill="#29a3d3"/>
        <path d="M60.23,23.86A36.39,36.39,0,0,1,22.76,83,36.38,36.38,0,1,0,60.23,23.86Z" fill="#1489ad"/>
        <path d="M47.14,28.52c-.8,1-1.92,1.57-2.8,2.46l.25-.89c.17-.47.17-.47.79-.77,1.1-.81,1.1-.81,2.21-2.95-.35.25-.71.51-1.5,1-3.1,2-3.1,2-11.29,6.15a7.15,7.15,0,0,1-1.93.73c-2.15.59-2.73,1-4.47,2.95-1,1.1-1.6,2.48-2.71,3.49a21.5,21.5,0,0,1-3.19,1.87c.72-.85,1.67-2,2.41-2.79a3.71,3.71,0,0,0,1.77-1.62,21.94,21.94,0,0,1,2.43-3.06c1.05-.89,2.38-1.3,3.48-2.1,1.78-1.28,3.24-3,5.12-4.11a25.47,25.47,0,0,1,3.09-1.66c3-1.26,6.11-2.2,9.11-3.45h0a20,20,0,0,0-1.68,1.28c.12.06.12.06.44,0l-1.53,3.46" fill="#0c5f72"/>
        <path d="M71.23,41.89c-3.41-5.75-4.61-6.12-6.78-6.81a8.47,8.47,0,0,1-1.32-.48l-.31-.16C61.49,33.72,60.33,32.75,59,32c-1.14-.62-2.44-.9-3.55-1.6A26.74,26.74,0,0,1,51,26.51c0,.48,0,1.12,0,1.6.9,1.29,1,1.36,1.57,1.61.15.25.15.25.14,1.5l-.71-1c-1.35-1.33-1.35-1.33-1.65-5,.06,0,.06,0,.53.1a6.12,6.12,0,0,0-.94-1.46,37.33,37.33,0,0,0,3.3,2c2.44,1.25,5.19,1.88,7.36,3.66,1.62,1.32,2.88,3,4.48,4.36,1,.88,2.42,1.28,3.39,2.28.09.09.19.22.27.31,1,1.26,1.49,2.83,2.63,4A25.16,25.16,0,0,1,74.6,44a18.65,18.65,0,0,1-3.37-2.09" fill="#0c5f72"/>
        <path d="M32.28,84.72C31,85.94,31,85.94,31,86.85l-.94-.94a3.5,3.5,0,0,1-.45-.55l.5-.17c.08-.12.08-.12.71-1.27-.55-.78-1.29-1.81-1.84-2.6-1.6,1.33-1.61,1.39-1.73,1.94-.4,1.92-.46,2-1.18,2.48,0,.16,0,.57,1.38,1.7l-.76-.61a37.64,37.64,0,0,1-4.33-4.21l-1.54-1.89c-.38-.55-.87-1.3-1.19-1.89l.11-.29c2.06,0,1.54-8.73,0-10.42a4.91,4.91,0,0,1-1.28-2.25l1.43.54.41,0c0-.2,0-.2-.36-.58-2.28-2.33-2.23-3.86-2.15-6.41a4.32,4.32,0,0,1,1.5-2.8c-.17.89-1,1.5-1.06,2.4a16.82,16.82,0,0,0,.31,3.74,12.32,12.32,0,0,0,.71-3.45A7.16,7.16,0,0,1,19,63.68a6.36,6.36,0,0,0,1.12,1.18c.37-1.25,0-2.61.65-3.82l.17,0c-.13,4.47-.13,4.47.18,5.23.15,0,3.61-.14,4,.15a4.65,4.65,0,0,1,0,2c-.25.55-.89.5-1.29.84s-.18,1,0,1.55a27,27,0,0,1,2.21,7.77c1,.4,2.17-.4,3.08.5,0,0,3,4.66,3.13,5.61" fill="#0c5f72"/>
        <path d="M74.15,85.82a37.64,37.64,0,0,1-5,3.74l-.06,0c1.53-1,1.58-1.4,1.6-1.54-.44-.38-.44-.38-1-2.56a7.24,7.24,0,0,0-1.55-1.42l-2,2.24c.68,1.12.68,1.12,1.21,1.27-.06.21-.06.21-1.41,1.39l0-.76a15.71,15.71,0,0,0-1.28-1.14,2.17,2.17,0,0,1,0-.25c2.35-5,3.69-5,5-5.09s1.39-.14,1.5-.36a6.62,6.62,0,0,0,.27-1.17,21.49,21.49,0,0,1,2.32-5.94c.48-.9.56-1.41-.4-1.72-1.51-.49-.65-2.48-.64-2.5A27.38,27.38,0,0,1,76.9,70a9.39,9.39,0,0,0,.63-4.51c-.09-.55-.06-.58.06-.7.81,1.17.24,2.49.36,3.73l.15.06a5.84,5.84,0,0,0,1.15-1.06l-.35-1.19c.43-3.28.43-3.28.44-3.31.24,1.18,0,2.44.48,3.59,1.12-3.1.47-4.45.08-5.25s-.35-.79-.31-.94c1.38,1.11,1.3,2.66,1.21,4.16-.19,1.87-.19,1.87-3.16,5.49.54.06.54.06,2-.56a4.83,4.83,0,0,1-1.34,2.14c-.88.59-1.27,1.91-1.65,4-.71,3.87,0,6,.76,6l.12.29a13,13,0,0,1-2.4,2.91l-1,.95" fill="#0c5f72"/>
        <path d="M60.34,80.72c.41-5.36-.26-6.07-.67-6.5-1.46-1.53-3.72-1.51-5.32-2.77-1.4-1.1-2.34-2.67-3.83-3.67a21.75,21.75,0,0,0-2.28-1.23c-2.42-1.16-2.42-1.16-11-10.18-.5.88-1.19,2.05-1.63,3,1.72,2.65,1.72,2.65,3,3.3.14.4.14.4-.75,2.35l-1-1.82C34,60.17,34,60,34,59.6c0-.59,1.68-6.47,2.64-6.58,1.22-.13,2.23.66,3.4.78.06-.07.17-.15.2-.23.36-1.32-.07-2.69.27-4,.44-1.7,1.7-3.06,2-4.82.06-.3-.19-.65-.71-1-1.37-1-.2-2.53-.09-2.59,1.26.37,2.38,1.2,3.76,1.19,0-.07,0-.07.91-4.21,1,1,.09,2.18.21,3.27.23.06.5.12,1.49-.44-.12-.35-.29-.81-.41-1.16a24,24,0,0,1,.6-2.42c.45.92-.07,2,.42,2.9a9.31,9.31,0,0,0,.86-2.73c0-.79-.69-1.35-.68-2.13h0a3.87,3.87,0,0,1,1,3.6c-.26,1.7-.26,1.7-3.55,3.63.34.33.34.33,2.46.35-.45,1.45-2.37,1.62-2.74,3.15a9.59,9.59,0,0,0,.64,5.58,10.55,10.55,0,0,0,1.11,1.92,12.88,12.88,0,0,0,6.94,4.75c6,2.12,5.48,8,5,10.43s1.47,5.23,2.91,5.73c.32,1.5-.55,2.8-.69,4.22a1.05,1.05,0,0,0,.38,1.06c.28.17.57.36.92,3l-2.93-2.08" fill="#0c5f72"/>
        <path d="M53.56,94.82a15.06,15.06,0,0,1-2,.28h-.3a2.08,2.08,0,0,1,.5-.07,11.86,11.86,0,0,0,1.33-.27,2,2,0,0,0,.11-.54c-3,.92-3.48.91-3.92.91l-1.28,0L46.34,95l-1.43-.17a4.49,4.49,0,0,1-.72-.19v-.15c2.09-.35,2.8-.47,3.71-1.62.68-.86.8-2.52,0-3s-1.72-.39-2.18-1.28l2,.08.69-.14c-1.23-.63-2.64-.86-3.74-1.76a5.43,5.43,0,0,1-.79-1.94c-.21-1.18,1.4-2.28,1.52-2.32l.07.08c-.22.68-1,1-1,1.86a8,8,0,0,0,1.16,2.29c1.06-.51,0-1.69.53-2.44.09.09.24.25.8,2.1l-.52.84a8.81,8.81,0,0,0,1.6.47c.15-.13.18-.19.33-1.5.1-.84.12-1.07.41-1.08,0,0,.11.11,0,.34a3.47,3.47,0,0,0,.51,2.88l.42-.07c.58-.1,1.17,0,1.74-.15.75-.14,1.47-.4,2.23-.5.25,0,.29,0,.34.06a3.67,3.67,0,0,1-.1.76,1.46,1.46,0,0,1-.07.19c-.35.92-2.29.32-2,1.45.14.56.68.94.68,1.55a3,3,0,0,1-.63,2.05,19.32,19.32,0,0,1,2.52-.21c.22.49-.25,1.24-.88,1.41" fill="#0c5f72"/>
        <path d="M15.7,53.92A19.58,19.58,0,0,0,14,57l.07-1.56a4.82,4.82,0,0,1,.12-.93l.24-.12c.76-1.3.76-1.3,1.64-5.18a7.18,7.18,0,0,0-2.32,4.66l.2-1.3a34.15,34.15,0,0,1,1.51-5.82c.4-1,.93-2.41,1.39-3.42A60.3,60.3,0,0,1,23,34.4l-.16.47c.18-.06.18-.06.4-.38a17.56,17.56,0,0,1,4.16-4.11A11.68,11.68,0,0,1,29.77,29c-3.1,1.91-3.1,1.91-4.67,3.42.87-.66,1.71-1.36,2.61-2C27.05,31,24.53,33,24.52,33a7.39,7.39,0,0,0-.55.74c1-.67,1.77-1.57,2.76-2.23-1.08,1.25-2.55,2.09-3.59,3.38.18,0,.18,0,.28.3a3.3,3.3,0,0,1,.7,0,5.56,5.56,0,0,1-2,1.91c-.6.18-.77.23-3.54,5.08C16.45,46,16.45,46,17.1,46.3c1.07.54-1.36,7.55-1.4,7.62" fill="#0c5f72"/>
        <path d="M85.73,52.67a36.31,36.31,0,0,1,.51,6.14l-.08,2.32a5,5,0,0,0-.29-2.67c0-.05-4-5.05-5.74-6.35,0,1,.06,2.35.07,3.36,1.63,1.91,1.63,1.91,2.14,2,.15.38.15.38,0,2.54l-.69-1.4c-2.2-2.12-2.2-2.12-2.27-2.3S78.48,50,78.47,50c-.13-1.1,1.4-.72,2-1.26C79.06,46,78,43.16,76.6,40.48a1.82,1.82,0,0,0-1-.9,3.84,3.84,0,0,1-2.29-2.1c.14-.07.27-.13,2.09-.23,0-.52-.92-1.44-3.24-3.65.26.08.26.08,2.83,2.48l.12-.12c-.09-.61-.09-.61-1.22-1.48-.76-.8-.89-.92-2.09-2.06,1,.61,1.79,1.53,2.76,2.2-1.28-1.62-3.19-2.47-4.66-3.85a11.5,11.5,0,0,1,3.66,2.45,6.66,6.66,0,0,1,2.28,3.6c.06.38.09.44.35.46l.45-.56c.66.89.78,2,1.33,3,.35.6,1.45,2.2,2.71,4.05s2.81,3.17,4,4.94a1.62,1.62,0,0,1,.25.39c.25,1.08.62,2.51.79,3.6" fill="#0c5f72"/>
        <g>
          <path d="M50.28,6.1h0a6,6,0,0,0-6,6v3.22h2.36V12.11a3.65,3.65,0,0,1,7.3,0v3.22h2.36V12.11A6,6,0,0,0,50.28,6.1Z" fill="#f2ab38"/>
          <g>
            <path d="M44.24,14.34H55.6a6,6,0,0,1,6,6v3.75a0,0,0,0,1,0,0H38.24a0,0,0,0,1,0,0V20.34A6,6,0,0,1,44.24,14.34Z" fill="#353232"/>
            <path d="M44.24,14.34H55.6a6,6,0,0,1,6,6v3.75a0,0,0,0,1,0,0H38.24a0,0,0,0,1,0,0V20.34A6,6,0,0,1,44.24,14.34Z" fill="#f4c237"/>
            <path d="M55.21,24.09H61.6V18.25a3.91,3.91,0,0,0-3.9-3.91H54.3C55.12,16.79,56.14,20.88,55.21,24.09Z" fill="#f2ab38"/>
          </g>
        </g>
      </g>

</svg>
