<svg xmlns="http://www.w3.org/2000/svg" xmlns:xlink="http://www.w3.org/1999/xlink" width="100%" viewBox="0 0 100 100">
  <path d="M48.05,84.19,35.14,91.8a7.24,7.24,0,0,1-10.86-7.12L26.1,69.81a7.28,7.28,0,0,0-2.39-6.3L12.48,53.59a7.24,7.24,0,0,1,3.41-12.53L30.6,38.19A7.23,7.23,0,0,0,35.85,34l6-13.73a7.24,7.24,0,0,1,13-.63L62.06,32.7a7.25,7.25,0,0,0,5.63,3.69l14.92,1.44A7.23,7.23,0,0,1,87.21,50L77,60.93a7.23,7.23,0,0,0-1.76,6.5l3.24,14.62a7.23,7.23,0,0,1-10.12,8.13L54.78,83.86A7.25,7.25,0,0,0,48.05,84.19Z" fill="#eaaf2d"/>
  <path d="M56.23,80.75l13.58,6.32a3.81,3.81,0,0,0,1.79.36,3.86,3.86,0,0,0,2.86-1.53,3.64,3.64,0,0,0,.66-3.1L71.88,68.17a10.7,10.7,0,0,1,0-4.4C50.54,72,36.32,55.35,24.63,42.86l-8.08,1.58A3.79,3.79,0,0,0,14.76,51L26,60.94a10.65,10.65,0,0,1,3.53,9.29L27.7,85.1a3.62,3.62,0,0,0,1,3,3.87,3.87,0,0,0,3,1.25,3.8,3.8,0,0,0,1.75-.54l12.9-7.6a10.65,10.65,0,0,1,9.93-.48Z" fill="#e8932e"/>
  <path d="M34.47,36.05a7.23,7.23,0,0,1-3.87,2.14l-1.24.24C41.82,55.42,58,64.7,80.13,57.57L87.21,50a7.24,7.24,0,0,0-1.62-11.18C72,47.12,50.77,54.72,34.47,36.05Z" fill="#f7c154"/>
  <path d="M71.44,84.21a.52.52,0,0,1-.27-.07L57.59,77.82a13.92,13.92,0,0,0-12.93.63l-12.9,7.6a.57.57,0,0,1-.27.1.69.69,0,0,1-.47-.22.45.45,0,0,1-.12-.44l1.81-14.87a13.89,13.89,0,0,0-4.59-12.1L16.9,48.6a.49.49,0,0,1-.17-.58.5.5,0,0,1,.44-.42l14.7-2.86A13.89,13.89,0,0,0,42,36.63l6-13.74a.58.58,0,0,1,1-.05l7.27,13.1A13.91,13.91,0,0,0,67.06,43L82,44.46a.57.57,0,0,1,.36,1l-10.2,11a13.89,13.89,0,0,0-3.4,12.48L72,83.5a.44.44,0,0,1-.07.44A.72.72,0,0,1,71.44,84.21Z" fill="none" stroke="#fff" stroke-miterlimit="10"/>
  <path d="M49.24,10.58h0a5.92,5.92,0,0,0-5.93,5.93h0v3.18h2.33V16.51a3.61,3.61,0,0,1,7.21,0v3.18h2.33V16.51a5.93,5.93,0,0,0-5.93-5.93Z" fill="#f2ab38"/>
  <path d="M43.37,18.71H54.42a6,6,0,0,1,6,6h0v3.64H37.37V24.71a6,6,0,0,1,6-6Z" fill="#f4c237"/>
  <path d="M54.12,28.35h6.3V22.56a3.85,3.85,0,0,0-3.85-3.85H53.22C54,21.12,55,25.17,54.12,28.35Z" fill="#f2ab38"/>
</svg>
