<svg xmlns="http://www.w3.org/2000/svg" xmlns:xlink="http://www.w3.org/1999/xlink" width="100%"
  viewBox="0 0 100 100">
  <g>
    <circle cx="50.08" cy="57.85" r="35.92" fill="#f7c154" />
    <path d="M50.49,21.94a29.16,29.16,0,0,1-35.42,44A35.92,35.92,0,1,0,50.49,21.94Z" fill="#eaaf2d" />
    <path d="M60.28,23.4a35.93,35.93,0,0,1-37,58.36,35.92,35.92,0,1,0,37-58.36Z" fill="#e8932e" />
    <g>
      <path
        d="M50.81,23.46c2.91.65,4,2.44-.1,4.94C43.15,33,25.36,35,24.43,32.77a1.83,1.83,0,0,1,.18-.3l1.15-1.1c.9-.77,2.12-1.79,3.06-2.51-.28.22-.29.26-.31.52,2.85,2.76,22.43-1.55,22.53-5,0-.55-.42-.81-.95-1.08.22,0,.51.07.72.12"
        fill="#f42f2f" />
      <path
        d="M57.54,23.27c7.26,2.6,9,8.18-4.37,14.3C39.14,44,19.81,45.93,17,44.06a.57.57,0,0,1,0-.29c.45-1,1-2.23,1.54-3.16l1-1.75.08.42c5.47,2.75,42.18-4.64,39-13-.47-1.24-2.38-2.8-6.24-3.14a29.65,29.65,0,0,1,5.18.15"
        fill="#f42f2f" />
      <path
        d="M67.75,26.6l1.64,1c14.35,9.87-8.12,23.44-37.78,29-11,2-17.14,1.71-17.5.95.08-1.74.28-4,.51-5.78,4.27,3.71,57-6.61,55-21-.22-1.53-1.26-3.76-5-5.7a27.53,27.53,0,0,1,3.14,1.52"
        fill="#f42f2f" />
      <path
        d="M78.41,35.82c.74,1,1.72,2.42,2.39,3.49,10.33,18.52-51,35.09-63.36,32.34a2,2,0,0,1-.73-.34C16.14,69.73,15.47,67.59,15,66c6.21,4,68.26-10.81,63.85-28.42A8.55,8.55,0,0,0,77,34.13l1.4,1.69"
        fill="#f42f2f" />
      <path
        d="M85.45,51.85l.32,2.34C86.52,74.05,30,85.39,24,82.57l-1.06-1.16c-.72-.89-1.68-2.08-2.35-3,5.36,3.41,67.86-10.19,64.12-30,0-.16-.09-.36-.13-.52.29,1.19.71,2.77.9,4"
        fill="#f42f2f" />
      <path
        d="M85.37,64.33a34.27,34.27,0,0,1-1.55,5.73v0c-7.11,16-46.54,21.34-49.41,20.1-.63-.33-1.47-.75-2.09-1.1s-1.68-1-2.38-1.47C35,89.18,81.32,81.46,85.45,63.86l-.08.47"
        fill="#f42f2f" />
    </g>
    <g>
      <path
        d="M50.38,6.23h0a5.93,5.93,0,0,0-5.93,5.93v3.18h2.33V12.16a3.61,3.61,0,0,1,7.21,0v3.18h2.33V12.16A5.93,5.93,0,0,0,50.38,6.23Z"
        fill="#f2ab38" />
      <g>
        <path
          d="M44.51,14.36H55.56a6,6,0,0,1,6,6V24a0,0,0,0,1,0,0H38.51a0,0,0,0,1,0,0V20.36A6,6,0,0,1,44.51,14.36Z"
          fill="#353232" />
        <path
          d="M44.51,14.36H55.56a6,6,0,0,1,6,6V24a0,0,0,0,1,0,0H38.51a0,0,0,0,1,0,0V20.36A6,6,0,0,1,44.51,14.36Z"
          fill="#f4c237" />
        <path
          d="M55.26,24h6.3V18.21a3.85,3.85,0,0,0-3.85-3.85H54.36C55.17,16.77,56.17,20.82,55.26,24Z"
          fill="#f2ab38" />
      </g>
    </g>
  </g>
</svg>