<svg xmlns="http://www.w3.org/2000/svg" width="100%" viewBox="0 0 100 100">
  <g id="Слой_2" data-name="Слой 2">
    <g id="toy_16">
      <g id="toy_23">
        <g>
          <g>
            <path d="M50.76,14.2l-.36.27L50,14.2c-53.68,46.23-12.91,44.83-.8,74a2.2,2.2,0,1,0,2.32,0C63.67,59,104.44,60.43,50.76,14.2Z" fill="#2ece00"/>
            <path d="M36.59,65.93c4.72,4.64,10,9.79,13.81,16.83,3.83-7,9.09-12.19,13.81-16.83C70,60.26,74.56,55.78,74.38,50a13.58,13.58,0,0,0-.56-3.3C62.61,68.21,40.45,52,26.47,49.27c0,.24,0,.48,0,.71C26.23,55.78,30.8,60.26,36.59,65.93Z" fill="#00892a"/>
            <path d="M29.83,50.12C29.71,54.2,33.06,57.69,39,63.5A91.2,91.2,0,0,1,50.4,76.32,91.2,91.2,0,0,1,61.82,63.5c5.4-5.3,8.65-8.67,9.09-12.33C60.08,64.46,42.58,53.91,29.83,50.12Z" fill="#007b26"/>
            <path d="M64.57,27.16c-5.18,7.59-15.17,15.36-32,4a69,69,0,0,0-4.31,5.55c26.22,16.67,40.43,11.36,47.31,5.25C73.6,37.77,70.07,32.94,64.57,27.16Z" fill="#7bff1d"/>
          </g>
          <path d="M74.94,40.62,72.23,46,65.42,32.4,59.61,44,50.4,25.57,41.16,44.08,35.32,32.4,28.51,46l-2.68-5.37c-3.74,6.93-3.43,12.07-1,16.65l3.69-7.38,6.81,13.63,5.84-11.68L50.4,70.4,59.61,52l5.81,11.62,6.81-13.63L76,57.38C78.4,52.78,78.72,47.61,74.94,40.62Z" fill="#fff"/>
          <g>
            <polygon points="42.26 47.99 50.4 64.29 58.54 47.99 50.4 31.68 42.26 47.99" fill="#c91859"/>
            <polygon points="30.59 47.99 35.32 57.46 40.06 47.99 35.32 38.51 30.59 47.99" fill="#c91859"/>
            <path d="M24.36,43.84a16.31,16.31,0,0,0-1.15,8.84l.44.88L26.43,48Z" fill="#c91859"/>
            <polygon points="60.68 47.99 65.42 57.46 70.15 47.99 65.42 38.51 60.68 47.99" fill="#c91859"/>
            <path d="M76.41,43.77,74.31,48l2.78,5.57.52-1A16.53,16.53,0,0,0,76.41,43.77Z" fill="#c91859"/>
          </g>
        </g>
        <path d="M50.38,6.23h0a5.92,5.92,0,0,0-5.93,5.93h0v3.18h2.33V12.16a3.61,3.61,0,0,1,7.21,0v3.18h2.33V12.16a5.92,5.92,0,0,0-5.93-5.93Z" fill="#f2ab38"/>
        <path d="M44.51,14.36H55.56a6,6,0,0,1,6,6h0V24H38.51V20.36a6,6,0,0,1,6-6Z" fill="#f4c237"/>
        <path d="M55.26,24h6.3V18.21a3.85,3.85,0,0,0-3.85-3.85H54.36C55.17,16.77,56.17,20.82,55.26,24Z" fill="#f2ab38"/>
        <rect width="100" height="100" fill="none"/>
      </g>
    </g>
  </g>
</svg>
