<svg xmlns="http://www.w3.org/2000/svg" width="100%" viewBox="0 0 100 100">
  <path d="M50,14.42C-1.64,58.9,37.59,57.56,49.24,85.66a2.12,2.12,0,1,0,3.24,1.8,2.11,2.11,0,0,0-1-1.8c11.66-28.1,50.89-26.76-.77-71.24" fill="#00beff"/>
  <path d="M37.07,64.2c4.54,4.46,9.6,9.42,13.29,16.2,3.69-6.78,8.74-11.74,13.29-16.2,5.56-5.46,10-9.77,9.78-15.35a12.89,12.89,0,0,0-.53-3.17C62.11,66.39,40.78,50.8,27.33,48.17c0,.23,0,.46,0,.68C27.1,54.43,31.5,58.74,37.07,64.2Z" fill="#2d8bff"/>
  <path d="M30.57,49c-.12,3.93,3.1,7.29,8.8,12.88a88.31,88.31,0,0,1,11,12.34,87.68,87.68,0,0,1,11-12.34c5.2-5.1,8.32-8.35,8.74-11.86C59.67,62.79,42.83,52.64,30.57,49Z" fill="#0078db"/>
  <path d="M64,26.89c-5,7.3-14.6,14.78-30.75,3.83a64.94,64.94,0,0,0-4.15,5.34c25.23,16,38.91,10.93,45.53,5C72.68,37.1,69.29,32.46,64,26.89Z" fill="#5ae3ff"/>
  <path d="M57.75,75c-1.18,1.37-2.11,2.45-4.06,2.45s-2.88-1.08-4-2.45-2.71-3.14-5.57-3.14a5.82,5.82,0,0,0-3.23.92c.45.5.89,1,1.33,1.53a3.92,3.92,0,0,1,1.9-.45c2,0,2.88,1.08,4,2.45s2.71,3.14,5.57,3.14a6.4,6.4,0,0,0,1.11-.09,51.44,51.44,0,0,1,4.69-6.14A13.87,13.87,0,0,0,57.75,75Z" fill="#fff"/>
  <path d="M28.87,37c1.27,1.47,2.71,3.14,5.57,3.14S38.74,38.48,40,37s2.11-2.45,4.06-2.45,2.88,1.08,4,2.45,2.71,3.14,5.57,3.14S58,38.48,59.26,37s2.11-2.45,4.06-2.45,2.87,1.08,4.05,2.45,2.71,3.14,5.57,3.14a5.83,5.83,0,0,0,1.14-.1c-.33-.61-.69-1.25-1.09-1.9h0c-2,0-2.88-1.08-4.06-2.45s-2.7-3.14-5.56-3.14S59,34.24,57.75,35.71s-2.11,2.45-4.06,2.45-2.88-1.08-4-2.45-2.71-3.14-5.57-3.14-4.3,1.67-5.57,3.14-2.11,2.45-4.06,2.45-2.87-1.08-4-2.45L29.81,35c-.42.58-.81,1.14-1.18,1.69Z" fill="#fff"/>
  <path d="M34.44,33.6c2.87,0,4.3-1.66,5.57-3.14S42.12,28,44.07,28s2.88,1.08,4,2.45,2.71,3.14,5.57,3.14,4.3-1.66,5.57-3.14S61.37,28,63.32,28a3.83,3.83,0,0,1,2.57.92Q64.62,27.52,63.16,26c-2.76.06-4.17,1.69-5.41,3.14s-2.11,2.45-4.06,2.45-2.88-1.08-4-2.45S46.93,26,44.07,26s-4.3,1.67-5.57,3.14-2.11,2.45-4.06,2.45a3.94,3.94,0,0,1-1.65-.34c-.46.53-.89,1.06-1.3,1.58A5.7,5.7,0,0,0,34.44,33.6Z" fill="#235fc9"/>
  <path d="M49.64,81.55a7.72,7.72,0,0,0-4.26-3,41.55,41.55,0,0,1,2.27,3.78c.16.17.31.35.47.54a8.83,8.83,0,0,0,3.38,2.75c.26-.63.54-1.23.82-1.83A6.52,6.52,0,0,1,49.64,81.55Z" fill="#235fc9"/>
  <path d="M37.16,26.43A9.57,9.57,0,0,0,40,23.91c1.18-1.37,2.11-2.45,4.06-2.45s2.88,1.08,4,2.45,2.71,3.15,5.57,3.15,4.3-1.67,5.57-3.15c.29-.33.56-.65.84-.94l-1.44-1.38c-.32.34-.62.68-.91,1-1.18,1.37-2.11,2.45-4.06,2.45s-2.88-1.08-4-2.45-2.63-3-5.32-3.13Q40.29,23.17,37.16,26.43Z" fill="#fff"/>
  <path d="M28.87,56.66c1.27,1.47,2.71,3.14,5.57,3.14s4.3-1.67,5.57-3.14,2.11-2.45,4.06-2.45,2.88,1.08,4,2.45,2.71,3.14,5.57,3.14,4.3-1.67,5.57-3.14,2.11-2.45,4.06-2.45,2.87,1.08,4.05,2.45,2.51,2.91,5,3.12c.55-.69,1.07-1.39,1.54-2.09a4.15,4.15,0,0,1-1,.12c-2,0-2.88-1.09-4.06-2.45s-2.7-3.15-5.56-3.15S59,53.88,57.75,55.36s-2.11,2.45-4.06,2.45-2.88-1.09-4-2.45-2.71-3.15-5.57-3.15-4.3,1.67-5.57,3.15-2.11,2.45-4.06,2.45-2.87-1.09-4-2.45-2.71-3.15-5.57-3.15l-.47,0a12.73,12.73,0,0,0,.62,2C26.81,54.28,27.73,55.33,28.87,56.66Z" fill="#235fc9"/>
  <path d="M68.88,42.26c-1.26-1.47-2.7-3.14-5.56-3.14S59,40.79,57.75,42.26s-2.11,2.45-4.06,2.45-2.88-1.08-4-2.45-2.71-3.14-5.57-3.14-4.3,1.67-5.57,3.14-2.11,2.45-4.06,2.45-2.87-1.08-4-2.45a8.56,8.56,0,0,0-3.45-2.78q-.51.92-.93,1.8a6.25,6.25,0,0,1,2.86,2.28c1.27,1.47,2.71,3.14,5.57,3.14S38.74,45,40,43.56s2.11-2.45,4.06-2.45,2.88,1.08,4,2.45,2.71,3.14,5.57,3.14S58,45,59.26,43.56s2.11-2.45,4.06-2.45,2.87,1.08,4.05,2.45,2.71,3.14,5.57,3.14a5.74,5.74,0,0,0,3.35-1,18.1,18.1,0,0,0-.6-2.06,3.89,3.89,0,0,1-2.75,1.06C71,44.71,70.06,43.63,68.88,42.26Z" fill="#235fc9"/>
  <path d="M40,63.21c1.18-1.37,2.11-2.45,4.06-2.45s2.88,1.08,4,2.45,2.71,3.14,5.57,3.14,4.3-1.67,5.57-3.14,2.11-2.45,4.06-2.45,2.87,1.08,4.05,2.45c.29.34.59.68.92,1,.47-.48.94-1,1.39-1.43l-.8-.89c-1.26-1.48-2.7-3.15-5.56-3.15S59,60.43,57.75,61.91s-2.11,2.44-4.06,2.44-2.88-1.08-4-2.44-2.71-3.15-5.57-3.15-4.3,1.67-5.57,3.15-2.11,2.44-4.06,2.44-2.87-1.08-4-2.44a13.7,13.7,0,0,0-1.81-1.85,85.84,85.84,0,0,0,6,6.29C37.35,66.3,38.76,64.66,40,63.21Z" fill="#fff"/>
  <path d="M44.07,67.31c2,0,2.88,1.08,4,2.45s2.71,3.14,5.57,3.14,4.3-1.67,5.57-3.14,2.11-2.45,4.06-2.45a3.89,3.89,0,0,1,1.55.3c.5-.5,1-1,1.51-1.48a5.78,5.78,0,0,0-3.06-.82c-2.87,0-4.31,1.67-5.57,3.15s-2.11,2.44-4.06,2.44-2.88-1.08-4-2.44-2.71-3.15-5.57-3.15S39.77,67,38.5,68.46c-.29.33-.57.65-.85,1,.46.47.93.94,1.39,1.43.35-.36.66-.72,1-1.08C41.19,68.39,42.12,67.31,44.07,67.31Z" fill="#235fc9"/>
  <path d="M24.82,47.66c1.95,0,2.88,1.08,4.05,2.45s2.71,3.14,5.57,3.14,4.3-1.67,5.57-3.14,2.11-2.45,4.06-2.45,2.88,1.08,4,2.45,2.71,3.14,5.57,3.14,4.3-1.67,5.57-3.14,2.11-2.45,4.06-2.45,2.87,1.08,4.05,2.45,2.71,3.14,5.57,3.14a5.79,5.79,0,0,0,3.44-1,14.09,14.09,0,0,0,.34-3.07c-1.06,1.21-2,2.13-3.78,2.13-2,0-2.88-1.08-4.06-2.45s-2.7-3.15-5.56-3.15S59,47.33,57.75,48.81s-2.11,2.45-4.06,2.45-2.88-1.08-4-2.45-2.71-3.15-5.57-3.15-4.3,1.67-5.57,3.15-2.11,2.45-4.06,2.45-2.87-1.08-4-2.45-2.71-3.15-5.57-3.15l-.39,0a15.57,15.57,0,0,0-.35,2A5.54,5.54,0,0,1,24.82,47.66Z" fill="#fff"/>
  <path d="M50.38,6.23h0a5.92,5.92,0,0,0-5.93,5.93h0v3.18h2.33V12.16a3.61,3.61,0,0,1,7.21,0v3.18h2.33V12.16a5.92,5.92,0,0,0-5.93-5.93Z" fill="#f2ab38"/>
  <path d="M44.51,14.36H55.56a6,6,0,0,1,6,6h0V24H38.51V20.36a6,6,0,0,1,6-6Z" fill="#f4c237"/>
  <path d="M55.26,24h6.3V18.21a3.85,3.85,0,0,0-3.85-3.85H54.36C55.17,16.77,56.17,20.82,55.26,24Z" fill="#f2ab38"/>
</svg>
