<svg xmlns="http://www.w3.org/2000/svg" xmlns:xlink="http://www.w3.org/1999/xlink" width="100%" viewBox="0 0 100 100">

      <g>
        <circle cx="49.91" cy="58.29" r="36.38" fill="#7ace38"/>
        <path d="M50.31,21.91A29.53,29.53,0,0,1,14.44,66.43,36.39,36.39,0,1,0,50.31,21.91Z" fill="#64af22"/>
        <path d="M60.23,23.4A36.38,36.38,0,0,1,33.09,84a36.69,36.69,0,0,1-10.33-1.49A36.38,36.38,0,1,0,60.23,23.4Z" fill="#519113"/>
        <g>
          <path d="M78.59,36a35.09,35.09,0,0,1,3.25,5L83,43.19a26.44,26.44,0,0,1,1.81,5.49,14.15,14.15,0,0,0-3.53-4.12,23,23,0,0,1-.3,8.31,62.14,62.14,0,0,0-6.28-4.75,30.48,30.48,0,0,1-3.89,8.08c-1.39-1-1.39-1-8.17-5.62A73.17,73.17,0,0,1,55.77,58c-3.84-3.1-4.85-4-7.76-6.69-2.71,2.31-3.62,3.09-7.87,6.42a54.29,54.29,0,0,1-6-7.56C28.72,54,28.72,54,26.5,55.56a30.57,30.57,0,0,1-3.21-8.18,50.54,50.54,0,0,0-6,4.45,21.47,21.47,0,0,1,.51-8.37,9.33,9.33,0,0,0-2.67,3.89l.36-1.09a36.36,36.36,0,0,1,5.69-10.39c1-1.16,2.34-2.67,3.4-3.76a31.39,31.39,0,0,0-4.5,5.48,18.93,18.93,0,0,1,4.44-3.23,17.67,17.67,0,0,0-2.56,7c1.92-1.15,2.72-1.63,6.9-3.87a18,18,0,0,0,1,7.07c3.8-2.4,4.7-3,7.61-4.9a30.07,30.07,0,0,0,4.07,6.73,87.51,87.51,0,0,0,6.88-5.83A61,61,0,0,0,55,46.6,39.69,39.69,0,0,0,60,40c2.6,1.73,2.82,1.87,7.85,5.09a18.06,18.06,0,0,0,1.69-7c3.12,1.78,4.17,2.38,7,4.17a17.43,17.43,0,0,0-1.82-7,29,29,0,0,1,5.1,3.41A26.06,26.06,0,0,0,75,32.05c.25.22.6.5.84.74.86.94,2,2.18,2.79,3.19" fill="#b3ea83"/>
          <path d="M85.64,64.85a35,35,0,0,1-1.56,5.81l-1,2.47a5.36,5.36,0,0,0,.49-2.22,34.6,34.6,0,0,1-5.07,7.76,8.2,8.2,0,0,0-2-3.93,55.25,55.25,0,0,1-7.37,7,56.83,56.83,0,0,0-5.6-4.35c-3,2.31-4.11,3.18-8.25,6C52,81.16,51,80.48,47.82,78.12c-.71.52-.71.52-7,5a89.86,89.86,0,0,1-7.91-6.22,40.51,40.51,0,0,0-4.67,4.26,53.75,53.75,0,0,1-7-7.22c-1.16,1.79-1.4,2.27-1.47,3.77a29.91,29.91,0,0,1-4.43-8l.18.65c-.36-1.19-.85-2.78-1.15-4-.31-1.69-.64-4-.82-5.66a15.65,15.65,0,0,1,.27-2.36,27.42,27.42,0,0,0,2.52,9.08A18,18,0,0,1,20,62.77a44.91,44.91,0,0,0,5.82,8.51c1.86-1.66,2.71-2.42,6.4-5.42a77.08,77.08,0,0,0,7.62,7.61c3.5-2.71,4.33-3.36,7.93-6.33,3.39,2.91,4.39,3.73,8.16,6.61a96.18,96.18,0,0,0,8.24-7.38c3.95,3,4.66,3.49,7.2,5.57A46.34,46.34,0,0,0,77.7,63.6a24.35,24.35,0,0,1,4.11,4.91,30.7,30.7,0,0,0,3.28-8.91,7.61,7.61,0,0,1,.72,4.25l-.17,1" fill="#b3ea83"/>
          <polyline points="13.56 55.67 13.56 55.68 13.56 55.68 13.54 55.92 13.62 54.86 13.56 55.67 13.56 55.67 13.56 55.67" fill="#ff9797"/>
          <path d="M28.48,63.9h0c-.83.7-1.94,1.64-2.76,2.36C25,65.18,24,63.73,23.28,62.62h0c.81-.69,1.89-1.6,2.72-2.27.72,1.08,1.7,2.51,2.46,3.55h0" fill="#f4c237"/>
          <path d="M17.48,60.28h0c-.49.59-1.13,1.39-1.57,2-.34-1.16-.78-2.71-1-3.9h0c.42-.6,1-1.4,1.45-2,.32,1.16.77,2.7,1.17,3.84h0" fill="#f4c237"/>
          <path d="M60,65.48h0c-1,1-2.39,2.24-3.43,3.19-1-.85-2.43-2-3.46-2.84h0c1-.92,2.39-2.16,3.4-3.1,1,.83,2.44,1.93,3.49,2.75h0" fill="#f4c237"/>
          <path d="M43.33,65.69h0L40,68.44c-1-1-2.26-2.27-3.21-3.27h0L40.1,62.5c1,1,2.24,2.24,3.23,3.19h0" fill="#f4c237"/>
          <path d="M83.82,59.39h0c-.35,1.15-.85,2.69-1.27,3.82-.5-.65-1.18-1.51-1.72-2.12h0c.43-1.12,1-2.61,1.35-3.75.5.6,1.18,1.41,1.64,2h0" fill="#f4c237"/>
          <path d="M75,63.11h0c-.77,1.09-1.8,2.54-2.61,3.6-.88-.73-2.06-1.69-3-2.4h0c.83-1,1.92-2.44,2.71-3.52.86.69,2,1.61,2.85,2.32h0" fill="#f4c237"/>
          <path d="M86.23,57.62l0,1.48a15.08,15.08,0,0,0-.35-2h0c0-1.15,0-2.68-.06-3.83.07.36.2.84.24,1.2.06,1,.19,2.21.19,3.15" fill="#f4c237"/>
          <path d="M15.57,51h0c-.38.55-.89,1.28-1.22,1.86.1-1.11.25-2.61.43-3.72h0A19.46,19.46,0,0,1,15.9,47.4c-.14,1.08-.29,2.54-.33,3.63h0" fill="#f4c237"/>
          <path d="M35.75,57.93h0l-3.29,2.52c-.76-1-1.77-2.38-2.49-3.42h0l3.26-2.41c.74,1,1.74,2.34,2.52,3.31h0" fill="#f4c237"/>
          <path d="M22.9,55.22h0c-.79.62-1.85,1.46-2.62,2.1-.4-1.1-.93-2.57-1.26-3.7h0c.76-.6,1.78-1.4,2.56-2,.37,1.09.88,2.53,1.32,3.59h0" fill="#f4c237"/>
          <path d="M67.06,57.55h0c-.86,1-2,2.38-2.91,3.37-1.06-.77-2.47-1.81-3.52-2.6h0c.89-1,2.06-2.25,2.92-3.24l3.52,2.47h0" fill="#f4c237"/>
          <path d="M51.12,58.77h0l-3.38,2.94c-1-.91-2.29-2.13-3.25-3.06h0c1-.85,2.36-2,3.36-2.83,1,.89,2.28,2.08,3.27,3h0" fill="#f4c237"/>
          <path d="M84.59,50.49h0c0,1.11.06,2.6,0,3.71-.45-.59-1.07-1.38-1.57-1.93h0c0-1.09.1-2.54.07-3.62.46.54,1.07,1.26,1.49,1.84h0" fill="#f4c237"/>
          <path d="M79.05,54.49h0c-.41,1.1-1,2.56-1.47,3.63-.81-.67-1.91-1.55-2.75-2.2h0c.49-1.05,1.13-2.45,1.56-3.53.8.63,1.87,1.46,2.66,2.1h0" fill="#f4c237"/>
          <path d="M64.65,25.11c5.1,3.22-3.21,5.28-4.18,5.5-11.63,2.69-29.38-.18-26.74-4.34a6.36,6.36,0,0,1,2.81-1.85c1.78-.66,1.78-.66,2.7-.94a17.38,17.38,0,0,1,2.26-.57c-3.34.95-4.34,2.42-2.1,3.69,2.84,1.62,9.86,2.3,15.66,1.52s8.21-2.73,5.36-4.35a28.16,28.16,0,0,1,4.23,1.34" fill="#b3ea83"/>
          <path d="M57.11,23.22c1.94,1.11.3,2.44-3.67,3s-8.78.07-10.72-1c-1.53-.87-.85-1.88,1.44-2.53a19.83,19.83,0,0,1,2.54.1c-2,.62-1.08,1.26-.75,1.44,2.27,1.22,8.8.71,8.42-.66-.06-.21-.32-.37-.45-.45a30.56,30.56,0,0,1,3.19.16" fill="#b3ea83"/>
          <path d="M74.15,85.36c-.91.76-2.13,1.77-3.08,2.48-8.37,5.32-34.62,5.27-42.56-.08l-1.8-1.39c-.74-.66-1.73-1.52-2.44-2.21A8.32,8.32,0,0,0,26,85.4c6.45,3.66,22.35,5.2,35.51,3.43,7-.94,11.85-2.64,13.84-4.57l-1.18,1.1" fill="#b3ea83"/>
          <path d="M63.73,91.92a27,27,0,0,1-6.54,1.57c-7.63,1-16.72.3-21.34-1.61A33.78,33.78,0,0,1,32.05,90c4.85,2.72,16.67,3.86,26.47,2.54a27.49,27.49,0,0,0,8.91-2.42c-1.09.57-2.56,1.3-3.7,1.78" fill="#b3ea83"/>
        </g>
        <g>
          <path d="M50.62,5.64h0a6,6,0,0,0-6,6v3.21H47V11.65a3.65,3.65,0,0,1,7.3,0v3.21h2.36V11.65A6,6,0,0,0,50.62,5.64Z" fill="#f2ab38"/>
          <g>
            <path d="M44.59,13.88H55.94a6,6,0,0,1,6,6v3.75a0,0,0,0,1,0,0H38.59a0,0,0,0,1,0,0V19.88A6,6,0,0,1,44.59,13.88Z" fill="#353232"/>
            <path d="M44.59,13.88H55.94a6,6,0,0,1,6,6v3.75a0,0,0,0,1,0,0H38.59a0,0,0,0,1,0,0V19.88A6,6,0,0,1,44.59,13.88Z" fill="#f4c237"/>
            <path d="M55.56,23.63H62V17.78A3.9,3.9,0,0,0,58,13.88H54.65C55.47,16.32,56.48,20.42,55.56,23.63Z" fill="#f2ab38"/>
          </g>
        </g>
      </g>

</svg>
