<svg xmlns="http://www.w3.org/2000/svg" xmlns:xlink="http://www.w3.org/1999/xlink" width="100%" viewBox="0 0 100 100">
      <g>
        <circle cx="50.3" cy="58.61" r="36.38" fill="#62c3f4"/>
        <path d="M50.7,22.23A29.53,29.53,0,0,1,14.83,66.75,36.39,36.39,0,1,0,50.7,22.23Z" fill="#29a3d3"/>
        <path d="M60.63,23.72A36.39,36.39,0,0,1,23.15,82.83,36.38,36.38,0,1,0,60.63,23.72Z" fill="#1489ad"/>
        <g>
          <path d="M55.24,23.39c1.34.76.21,1.68-2.51,2s-6,.05-7.36-.71c-.92-.52-.68-1.12.45-1.56a25.8,25.8,0,0,1,4,.4c-.14.05-.17.12-.06.19a1.84,1.84,0,0,0,.89.08c.32,0,.46-.15.3-.24a30.36,30.36,0,0,1,4.34-.2" fill="#aae3f9"/>
          <path d="M71.06,28.77c4.86,3.73-2.09,6.71-10.61,7.89C43.4,39,24,34.74,28.5,29.58a7.2,7.2,0,0,1,1-.85L30.56,28l1.52-.93c-4.84,3-.14,5.58,5.35,6.84,14.35,3.3,35.86-.11,32.88-5.21a5.05,5.05,0,0,0-1.72-1.52c.74.47,1.76,1.06,2.47,1.58" fill="#aae3f9"/>
          <path d="M36,25.27c1.07-.41,2.52-.92,3.61-1.27.8-.11,1.86-.24,2.66-.32-1.11.25-2.57.62-3.65.94-.79.18-1.84.43-2.62.65" fill="#aae3f9"/>
          <path d="M34.6,26.82c1-.53,2.42-1.19,3.48-1.64,1-.2,2.36-.45,3.38-.63-1.07.36-2.48.88-3.52,1.31s-2.34.65-3.34,1" fill="#aae3f9"/>
          <path d="M35.38,28.43c.83-.63,2-1.43,2.85-2l3.67-1c-.88.46-2,1.12-2.86,1.67-1.1.38-2.57.9-3.66,1.3" fill="#aae3f9"/>
          <path d="M38.35,29.9a25.57,25.57,0,0,1,1.78-2.23l3.45-1.38a21.87,21.87,0,0,0-1.82,1.91l-3.41,1.7" fill="#aae3f9"/>
          <path d="M42.88,30.92a16,16,0,0,1,.54-2.35c.81-.5,1.9-1.19,2.71-1.71a12.09,12.09,0,0,0-.56,2c-.8.61-1.87,1.42-2.69,2" fill="#aae3f9"/>
          <path d="M48.35,31.41a22,22,0,0,1-.78-2.33c.5-.57,1.17-1.34,1.64-1.94a16.51,16.51,0,0,0,.78,2c-.47.69-1.12,1.6-1.64,2.25" fill="#aae3f9"/>
          <path d="M54.17,31.32c-.63-.64-1.46-1.51-2.06-2.19a12.84,12.84,0,0,0,.37-2c.61.58,1.44,1.33,2.08,1.87a18.73,18.73,0,0,1-.39,2.36" fill="#aae3f9"/>
          <path d="M59.64,30.61,56.58,28.7a13.49,13.49,0,0,0-1-2l3.06,1.6a17.69,17.69,0,0,1,1,2.32" fill="#aae3f9"/>
          <path d="M69.59,89.42l-.9.55c-1.92,1.12-5.16,2.06-9.48,2.64C49.05,94,36.77,92.79,31.78,90l-.14-.08a34.91,34.91,0,0,1-4.25-3,8.5,8.5,0,0,0,1.15.77C34.4,91,48.85,92.42,60.81,90.81,66.72,90,70.92,88.63,72.94,87c-1,.73-2.31,1.72-3.35,2.38" fill="#aae3f9"/>
          <path d="M83.27,73.9c-1.39,3-8,5.69-18.39,7.09-16.52,2.23-36.48.3-44.58-4.31a7.16,7.16,0,0,1-3.14-2.9l-.6-1.38-.49-1.24a7,7,0,0,0,3.34,3.23c8.34,4.74,28.9,6.73,45.92,4.44,11-1.48,17.85-4.4,19-7.55-.33.78-.73,1.84-1.09,2.62" fill="#aae3f9"/>
          <path d="M66.37,88.43a15.45,15.45,0,0,0-1-1.64c1.13-.83,2.61-2,3.71-2.84a19.08,19.08,0,0,1,1,1.85c-1.08.81-2.54,1.86-3.65,2.63" fill="#aae3f9"/>
          <path d="M57.24,89.68c-.67-.55-1.56-1.28-2.24-1.82l3.42-2.45c.68.6,1.59,1.4,2.27,2-1,.68-2.41,1.59-3.45,2.25" fill="#aae3f9"/>
          <path d="M47.44,89.89l-3-2.1L47,85.65,50.05,88l-2.61,1.93" fill="#aae3f9"/>
          <path d="M38.17,89.11c-1.06-.72-2.47-1.69-3.52-2.44.45-.59,1.06-1.37,1.54-1.93,1.05.81,2.45,1.87,3.52,2.65-.47.51-1.09,1.19-1.54,1.72" fill="#aae3f9"/>
          <path d="M30.43,87.44c-1.08-.83-2.52-2-3.57-2.83a11.06,11.06,0,0,1,.32-1.81c1.05.92,2.47,2.14,3.56,3a9.74,9.74,0,0,0-.31,1.61" fill="#aae3f9"/>
          <path d="M25.25,85c-.94-.93-2.16-2.21-3-3.2A14.88,14.88,0,0,1,21.13,80c.9,1,2.13,2.43,3.09,3.42a12.08,12.08,0,0,0,1,1.63" fill="#aae3f9"/>
          <path d="M63.59,29.44l-3.54-1.58A26.19,26.19,0,0,0,57.79,26l3.56,1.26a28.43,28.43,0,0,1,2.24,2.15" fill="#aae3f9"/>
          <path d="M65.72,28c-1.08-.37-2.51-.86-3.59-1.21-.92-.5-2.18-1.13-3.14-1.55,1.09.25,2.54.61,3.62.89,1,.53,2.2,1.27,3.11,1.87" fill="#aae3f9"/>
          <path d="M65.79,26.35c-.94-.27-2.2-.61-3.15-.85-1.07-.4-2.52-.89-3.61-1.21.95.14,2.22.35,3.17.53,1.09.42,2.53,1,3.59,1.53" fill="#aae3f9"/>
          <path d="M78.67,81.31l-1.23,1.46.48-.59c.74-.91,1.71-2.14,2.4-3.09-.5.67-1.12,1.58-1.65,2.22" fill="#aae3f9"/>
          <path d="M72.85,86.42a8.94,8.94,0,0,0,.41-1.62c1-.94,2.37-2.21,3.35-3.19a10.62,10.62,0,0,1-.41,1.84c-1,.91-2.32,2.11-3.35,3" fill="#aae3f9"/>
          <path d="M27.47,71.84a39,39,0,0,1-9.32-3.18,28.62,28.62,0,0,1,3.93-8.47,27.19,27.19,0,0,1-3.42-1.4,49.15,49.15,0,0,1,5.95-7.88c.53-.58,1.23-1.37,1.77-1.94-.81-.26-1.89-.62-2.7-.91,2.12-2.14,2.56-2.58,5.51-5.28,2.4-2.17,2.71-2.45,5.77-5.09a26.17,26.17,0,0,0,.13,6.45,41,41,0,0,0,1.92,7c-1.1-.16-2.57-.38-3.66-.57.23.76.52,1.78.78,2.54A64.14,64.14,0,0,0,39,63.51c-3.4-.37-3.53-.39-5.41-.67a81.34,81.34,0,0,0,6.64,11,98.47,98.47,0,0,1-12.8-2" fill="#aae3f9"/>
          <path d="M63.77,73.42a126,126,0,0,1-14.59.78c2.28-3.07,3.93-5.28,7.24-10.34-3.66.15-3.81.16-6,.17,2.12-3.11,4.12-6.05,6.32-9.92.39-.73.92-1.71,1.29-2.45-1.26.08-2.93.17-4.19.23a67.63,67.63,0,0,0,3.51-6.76,37.85,37.85,0,0,0,2-6.38c1.94,2,1.94,2,5.37,5.55,3,3.07,3.24,3.27,5.59,5.74-1.07.2-2.51.47-3.59.65.56.63,1.31,1.46,1.86,2.09a89.44,89.44,0,0,1,6.81,8.44c-2.78.67-2.88.7-4.68,1a52.17,52.17,0,0,1,5.46,8.91,76.61,76.61,0,0,1-12.46,2.26" fill="#aae3f9"/>
          <path d="M82.77,42.85c.29.5.7,1.15,1,1.66s.53,1.14.71,1.65l.2.54a34.51,34.51,0,0,1,1.48,5.83,35.27,35.27,0,0,1,.51,6.14,34.52,34.52,0,0,1-.51,6,5.74,5.74,0,0,1-.26.8c-.56.93-1.32,2.2-4.68,3.85a38.21,38.21,0,0,0,3.14-12A14.82,14.82,0,0,1,82,58.84a33,33,0,0,0,.21-11c-.16-.77-.34-1.8-.54-2.56a15.52,15.52,0,0,1-1.33,1.1,29.92,29.92,0,0,0-2.11-7,30.56,30.56,0,0,0-3.9-6,37.34,37.34,0,0,1,4.87,4,20.72,20.72,0,0,1,3.31,4.35c.12.33.19.8.3,1.14" fill="#aae3f9"/>
        </g>
        <g>
          <path d="M50.67,6.16h0a6,6,0,0,0-6,6v3.21H47V12.17a3.65,3.65,0,0,1,7.3,0v3.21h2.36V12.17A6,6,0,0,0,50.67,6.16Z" fill="#f2ab38"/>
          <g>
            <path d="M44.64,14.39H56a6,6,0,0,1,6,6v3.75a0,0,0,0,1,0,0H38.64a0,0,0,0,1,0,0V20.4A6,6,0,0,1,44.64,14.39Z" fill="#353232"/>
            <path d="M44.64,14.39H56a6,6,0,0,1,6,6v3.75a0,0,0,0,1,0,0H38.64a0,0,0,0,1,0,0V20.4A6,6,0,0,1,44.64,14.39Z" fill="#f4c237"/>
            <path d="M55.6,24.15H62V18.3a3.91,3.91,0,0,0-3.9-3.91H54.7C55.51,16.84,56.53,20.93,55.6,24.15Z" fill="#f2ab38"/>
          </g>
        </g>
      </g>
</svg>
