<svg xmlns="http://www.w3.org/2000/svg" xmlns:xlink="http://www.w3.org/1999/xlink" width="100%" viewBox="0 0 100 100">
      <g>
        <circle cx="50.2" cy="57.61" r="36.38" fill="#f42f2f"/>
        <path d="M50.61,21.23A29.53,29.53,0,0,1,14.74,65.75,36.38,36.38,0,1,0,50.61,21.23Z" fill="#e21b1b"/>
        <path d="M60.53,22.72A36.39,36.39,0,0,1,23.06,81.83,36.38,36.38,0,1,0,60.53,22.72Z" fill="#c61010"/>
        <g>
          <path d="M48.83,21.26A77,77,0,0,1,40,22.67a36.65,36.65,0,0,0-3.61,1.26c5.68-.77,9.76-1.51,12.93-2.69Z" fill="#ff9797"/>
          <path d="M50.1,21.23h-.24c-3,2.52-13.3,4.26-16.79,4.85l-1.44.24c-1,.59-2,1.23-2.89,1.91l2.38-.44C45.92,25.05,49.46,22.61,50.1,21.23Z" fill="#ff9797"/>
          <path d="M39,29.93c8.38-2.69,14.82-6.44,11.74-8.69h-.28c1.58,2.58-7.33,6.58-21,9.32-2,.41-3.53.72-4.68,1A33.59,33.59,0,0,0,22.54,34c1.17-.29,2.66-.61,4.57-1A117.67,117.67,0,0,0,39,29.93Z" fill="#ff9797"/>
          <path d="M51.36,29.37c4.43-3.05,6.08-6.58.61-8.1l-.58,0C57.59,23.61,51.25,31,23.94,37c-2,.42-3.36.76-4.4,1-.6.94-1.16,1.91-1.67,2.91,1.34-.4,3.12-.81,5.24-1.29C35.73,36.78,46,33,51.36,29.37Z" fill="#ff9797"/>
          <path d="M56.12,33.28c7.09-5.4,5.48-9.78-.3-11.62-.63-.1-1.28-.18-1.93-.25C63.17,23.9,61,34.66,21,44.18c-2.37.56-4,1-5.16,1.36-.37,1.05-.69,2.13-1,3.23,1-.36,2.37-.72,4-1.13C26.37,45.78,46.21,40.83,56.12,33.28Z" fill="#ff9797"/>
          <path d="M63.46,23.72c-1.06-.41-2.15-.78-3.27-1.1,8.23,4.59,8.24,16.5-40.63,29.55-2.63.7-4.38,1.19-5.54,1.64-.12,1.13-.18,2.28-.2,3.44,1.59-.57,4.55-1.42,10.13-3C64.57,42.65,72.78,30.63,63.46,23.72Z" fill="#ff9797"/>
          <path d="M71.37,28a35.34,35.34,0,0,0-3-1.95c5.92,6.61,5,18.62-46.86,34a74.43,74.43,0,0,0-7.34,2.39c.15,1.15.36,2.29.62,3.41,1.38-.57,3.85-1.34,8.14-2.66C62.66,50.94,78.94,39.11,71.37,28Z" fill="#ff9797"/>
          <path d="M78.11,34.27a36.19,36.19,0,0,0-2.53-2.72c8.09,18.61-38.45,32.78-54.23,37.58-2.66.81-4.18,1.28-5.08,1.62a33.23,33.23,0,0,0,1.35,3c1-.36,2.77-.88,5.83-1.79C63.8,60.06,82.15,47.38,78.11,34.27Z" fill="#ff9797"/>
          <path d="M83.19,42.27a35.57,35.57,0,0,0-1.8-3.4c2.34,17.07-28.95,29.9-56.8,37.87-2.25.65-3.62,1-4.47,1.33.61.9,1.27,1.78,2,2.62C23,80.4,24.42,80,27,79.27,53.69,71.8,83.87,59.51,83.19,42.27Z" fill="#ff9797"/>
          <path d="M73.57,68.2c5.28-3.67,11.09-9.2,12.55-16.38A35,35,0,0,0,85.28,48C84.57,54.07,80.14,60,72.07,65.69c-13.66,9.58-35,15.34-43,17.5-1.85.5-3,.81-3.67,1,.78.73,1.59,1.42,2.43,2.08.7-.2,1.74-.48,3.4-.91C39,83.34,59.6,77.92,73.57,68.2Z" fill="#ff9797"/>
          <path d="M34.58,88.28,31.79,89a31.53,31.53,0,0,0,2.82,1.49l1.19-.28c28.06-6.72,44.94-15.88,50.4-27.32a36.43,36.43,0,0,0,.37-4.59C82.12,70.56,64.42,80.82,34.58,88.28Z" fill="#ff9797"/>
          <path d="M72.83,80C69.26,82.26,59,87.86,39.12,92.27q1.32.42,2.7.75c4.81-1.19,9.72-2,14.42-3.6a86.69,86.69,0,0,0,16.31-7.15,41.84,41.84,0,0,0,9.92-7.85,35.11,35.11,0,0,0,2-4.48C81.92,73.42,78.13,76.68,72.83,80Z" fill="#ff9797"/>
          <path d="M50.2,94c.62,0,1.23,0,1.84,0,6-1.33,14.33-3.85,21.41-8.35A36.82,36.82,0,0,0,78,81.06C68.8,88.56,55.15,92.3,47.53,93.89,48.41,94,49.3,94,50.2,94Z" fill="#ff9797"/>
        </g>
        <g>
          <path d="M50.54,5.16h0a6,6,0,0,0-6,6v3.21h2.36V11.17a3.65,3.65,0,1,1,7.3,0v3.21h2.36V11.17A6,6,0,0,0,50.54,5.16Z" fill="#f2ab38"/>
          <g>
            <path d="M44.5,13.39H55.86a6,6,0,0,1,6,6v3.75a0,0,0,0,1,0,0H38.5a0,0,0,0,1,0,0V19.4A6,6,0,0,1,44.5,13.39Z" fill="#353232"/>
            <path d="M44.5,13.39H55.86a6,6,0,0,1,6,6v3.75a0,0,0,0,1,0,0H38.5a0,0,0,0,1,0,0V19.4A6,6,0,0,1,44.5,13.39Z" fill="#f4c237"/>
            <path d="M55.47,23.15h6.39V17.3A3.91,3.91,0,0,0,58,13.39h-3.4C55.38,15.84,56.4,19.93,55.47,23.15Z" fill="#f2ab38"/>
          </g>
        </g>
      </g>
</svg>
