<svg xmlns="http://www.w3.org/2000/svg" xmlns:xlink="http://www.w3.org/1999/xlink" width="100%" viewBox="0 0 100 100">
      <rect width="100" height="100" fill="none"/>
      <path d="M50.05,82.19,37.14,89.8a7.24,7.24,0,0,1-10.86-7.12L28.1,67.81a7.28,7.28,0,0,0-2.39-6.3L14.48,51.59a7.24,7.24,0,0,1,3.41-12.53L32.6,36.19A7.23,7.23,0,0,0,37.85,32l6-13.73a7.24,7.24,0,0,1,13-.63L64.06,30.7a7.25,7.25,0,0,0,5.63,3.69l14.92,1.44A7.23,7.23,0,0,1,89.21,48L79,58.93a7.23,7.23,0,0,0-1.76,6.5l3.24,14.62a7.23,7.23,0,0,1-10.12,8.13L56.78,81.86A7.25,7.25,0,0,0,50.05,82.19Z" fill="#64af22"/>
      <path d="M58.23,78.75l13.58,6.32a3.81,3.81,0,0,0,1.79.36,3.86,3.86,0,0,0,2.86-1.53,3.64,3.64,0,0,0,.66-3.1L73.88,66.17a10.7,10.7,0,0,1,0-4.4C52.54,70,38.32,53.35,26.63,40.86l-8.08,1.58A3.79,3.79,0,0,0,16.76,49L28,58.94a10.65,10.65,0,0,1,3.53,9.29L29.7,83.1a3.62,3.62,0,0,0,1,3,3.87,3.87,0,0,0,3,1.25,3.8,3.8,0,0,0,1.75-.54l12.9-7.6a10.65,10.65,0,0,1,9.93-.48Z" fill="#519113"/>
      <path d="M36.47,34.05a7.23,7.23,0,0,1-3.87,2.14l-1.24.24C43.82,53.42,60,62.7,82.13,55.57L89.21,48a7.24,7.24,0,0,0-1.62-11.18C74,45.12,52.77,52.72,36.47,34.05Z" fill="#7ace38"/>
      <path d="M73.44,82.21a.52.52,0,0,1-.27-.07L59.59,75.82a13.92,13.92,0,0,0-12.93.63l-12.9,7.6a.57.57,0,0,1-.27.1.69.69,0,0,1-.47-.22.45.45,0,0,1-.12-.44l1.81-14.87a13.89,13.89,0,0,0-4.59-12.1L18.9,46.6a.49.49,0,0,1-.17-.58.5.5,0,0,1,.44-.42l14.7-2.86A13.89,13.89,0,0,0,44,34.63l6-13.74a.58.58,0,0,1,1-.05l7.27,13.1A13.91,13.91,0,0,0,69.06,41L84,42.46a.57.57,0,0,1,.36,1l-10.2,11a13.89,13.89,0,0,0-3.4,12.48L74,81.5a.44.44,0,0,1-.07.44A.72.72,0,0,1,73.44,82.21Z" fill="none" stroke="#fff" stroke-miterlimit="10"/>
      <path d="M51.24,8.58h0a5.92,5.92,0,0,0-5.93,5.93h0v3.18h2.33V14.51a3.61,3.61,0,0,1,7.21,0v3.18h2.33V14.51a5.93,5.93,0,0,0-5.93-5.93Z" fill="#f2ab38"/>
      <path d="M45.37,16.71H56.42a6,6,0,0,1,6,6h0v3.64H39.37V22.71a6,6,0,0,1,6-6Z" fill="#f4c237"/>
      <path d="M56.12,26.35h6.3V20.56a3.85,3.85,0,0,0-3.85-3.85H55.22C56,19.12,57,23.17,56.12,26.35Z" fill="#f2ab38"/>
</svg>
