<svg xmlns="http://www.w3.org/2000/svg" xmlns:xlink="http://www.w3.org/1999/xlink" width="100%" viewBox="0 0 100 100">
      <g>
        <circle cx="49.94" cy="57.6" r="36.35" fill="#f7c154"/>
        <path d="M50.34,21.26A29.51,29.51,0,0,1,14.5,65.74,36.36,36.36,0,1,0,50.34,21.26Z" fill="#eaaf2d"/>
        <path d="M60.26,22.74A36.36,36.36,0,0,1,22.82,81.8,36.35,36.35,0,1,0,60.26,22.74Z" fill="#e8932e"/>
        <g>
          <path d="M24.75,32a34.93,34.93,0,0,0-6.69,8.66,21.91,21.91,0,0,1,2.73-4.87l.46-.6a36.21,36.21,0,0,1,4.07-4.4A38.56,38.56,0,0,1,30.21,27a33.88,33.88,0,0,1,3.85-2.16,5.74,5.74,0,0,0-.53.32A29.9,29.9,0,0,1,41.82,23a31,31,0,0,0-9.56,3.48A4,4,0,0,0,31,28.77c-4.11,1.8-5.69,2.75-6.29,3.24" fill="#ffe6bb"/>
          <path d="M44.58,39.28a89.93,89.93,0,0,0,.27,10.19,50.34,50.34,0,0,1-7-5.65c-3.34,1.51-4.27,1.92-8.46,3.66A75.88,75.88,0,0,1,34.78,38a13.11,13.11,0,0,1,.53-6.69,51.1,51.1,0,0,0,5.12,0c2.46-2.35,3.22-3.07,6-5.61a12.26,12.26,0,0,0-1.71,6.16,46,46,0,0,0,5.35,1.33,49.36,49.36,0,0,1-3.94,4.52c-.47.46-1.3.92-1.56,1.52" fill="#ffe6bb"/>
          <path d="M73.44,35a44,44,0,0,1,6.74,8.52c-2.11-.95-2.69-1.2-6.1-2.53a18.59,18.59,0,0,1-3.34,6.46,41.09,41.09,0,0,0-3.29-9.95c-5-3.21-5.15-3.34-7.67-5a15.11,15.11,0,0,0,3.59-2A18.58,18.58,0,0,0,57,24.93a67.37,67.37,0,0,1,9,4.44,15,15,0,0,0,2.88-.62,28.17,28.17,0,0,1,2.63,2.94c.68.93,1.26,2.39,1.93,3.33" fill="#ffe6bb"/>
          <path d="M21.58,70.41a39.48,39.48,0,0,0,4.12,9.75,40.29,40.29,0,0,1-6.85-6.48c-.77.84-.89,1.08-.57,1.91L17.93,75a28.14,28.14,0,0,1-3-8.62,28.57,28.57,0,0,1-1.4-9v-.89c.16.64.32.83,1.56,1.46a29.16,29.16,0,0,1,3.79-8.6,37.86,37.86,0,0,0,.45,11.19,39,39,0,0,0,7.39,3.91,47.69,47.69,0,0,0-5.15,6" fill="#ffe6bb"/>
          <path d="M66.66,73.19A38.18,38.18,0,0,1,66.44,82c-5.51-2.14-5.51-2.14-7.74-3-3.85,1.92-4.89,2.42-9.24,4.31,1.19-5.44,1.27-5.84,1.92-9-3.79-3.43-4.68-4.3-8-7.75,5-.51,6.19-.67,11-1.46,2.24-5,2.72-6.19,4.31-10.53,3.1,5.56,3.52,6.34,5.33,9.82,4.38.07,5.6.07,9.79-.13a53.24,53.24,0,0,1-7.21,8.91" fill="#ffe6bb"/>
          <path d="M84.25,45.7a34.51,34.51,0,0,1,1.48,5.83,36.26,36.26,0,0,1-.09,12.63,35.65,35.65,0,0,1-4,11.2l-.19.34-.16.28a35.29,35.29,0,0,0,4-10.36A10,10,0,0,0,84.2,60a8,8,0,0,0,1.93-4.54,35,35,0,0,0-2.32-11l.08.19.36,1" fill="#ffe6bb"/>
          <path d="M46.62,93.46a5.62,5.62,0,0,0,1.27.44l-1.51-.11c-1.17-.13-1.2-.13-1.8-.22-1.32-.21-1.37-.22-2.08-.37l-.33-.07c-.43-.12-1-.26-1.43-.42a39.68,39.68,0,0,1-7.51-3.25,30.39,30.39,0,0,0,4.38.61c-.44-1.55-.57-2-.12-4.87a50.3,50.3,0,0,0,5.66,5.58c2.92.46,3.7.56,6.84.85l-3.37,1.83" fill="#ffe6bb"/>
          <path d="M69.22,88.38a38.86,38.86,0,0,1-5.95,3c-1.61.6-1.9.71-3.52,1.19l.57-.18c.91-.53,1-.71.67-1.62a45.94,45.94,0,0,0,6.1-1.87,39.56,39.56,0,0,0,7.53-6.61,13.05,13.05,0,0,1-4.16,5.2l.42-.24-1.66,1.11" fill="#ffe6bb"/>
        </g>
        <g>
          <path d="M50.62,5.2h0a6,6,0,0,0-6,6v3.21H47V11.2a3.65,3.65,0,0,1,7.3,0v3.21h2.36V11.2A6,6,0,0,0,50.62,5.2Z" fill="#f2ab38"/>
          <g>
            <path d="M44.6,13.43H55.93a6,6,0,0,1,6,6v3.74a0,0,0,0,1,0,0H38.6a0,0,0,0,1,0,0V19.43a6,6,0,0,1,6-6Z" fill="#353232"/>
            <path d="M44.6,13.43H55.93a6,6,0,0,1,6,6v3.74a0,0,0,0,1,0,0H38.6a0,0,0,0,1,0,0V19.43a6,6,0,0,1,6-6Z" fill="#f4c237"/>
            <path d="M55.55,23.17h6.39V17.33A3.9,3.9,0,0,0,58,13.43H54.65C55.46,15.87,56.48,20,55.55,23.17Z" fill="#f2ab38"/>
          </g>
        </g>
      </g>

</svg>
